<?xml version="1.0" encoding="UTF-8" standalone="no"?>
<svg
   xmlns:dc="http://purl.org/dc/elements/1.1/"
   xmlns:cc="http://creativecommons.org/ns#"
   xmlns:rdf="http://www.w3.org/1999/02/22-rdf-syntax-ns#"
   xmlns:svg="http://www.w3.org/2000/svg"
   xmlns="http://www.w3.org/2000/svg"
   xmlns:sodipodi="http://sodipodi.sourceforge.net/DTD/sodipodi-0.dtd"
   xmlns:inkscape="http://www.inkscape.org/namespaces/inkscape"
   version="1.1"
   viewBox="0.0 0.0 1280.0 720.0"
   fill="none"
   stroke="none"
   stroke-linecap="square"
   stroke-miterlimit="10"
   id="svg203"
   sodipodi:docname="june.svg"
   inkscape:version="0.92.0 r15299">
  <metadata
     id="metadata209">
    <rdf:RDF>
      <cc:Work
         rdf:about="">
        <dc:format>image/svg+xml</dc:format>
        <dc:type
           rdf:resource="http://purl.org/dc/dcmitype/StillImage" />
        <dc:title></dc:title>
      </cc:Work>
    </rdf:RDF>
  </metadata>
  <defs
     id="defs207" />
  <sodipodi:namedview
     pagecolor="#ffffff"
     bordercolor="#666666"
     borderopacity="1"
     objecttolerance="10"
     gridtolerance="10"
     guidetolerance="10"
     inkscape:pageopacity="0"
     inkscape:pageshadow="2"
     inkscape:window-width="716"
     inkscape:window-height="512"
     id="namedview205"
     showgrid="false"
     inkscape:zoom="0.221875"
     inkscape:cx="640"
     inkscape:cy="360"
     inkscape:window-x="0"
     inkscape:window-y="341"
     inkscape:window-maximized="0"
     inkscape:current-layer="svg203" />
  <clipPath
     id="p10.0">
    <path
       d="m0 0l1280.0 0l0 720.0l-1280.0 0l0 -720.0z"
       clip-rule="nonzero"
       id="path2" />
  </clipPath>
  <g
     clip-path="url(#p10.0)"
     id="g201">
    <path
       fill="#1f5b22"
       d="m0 0l1280.0 0l0 720.0l-1280.0 0z"
       fill-rule="evenodd"
       id="path5" />
    <path
       shape-rendering="crispEdges"
       fill="#e9eff7"
       d="m23.088608 92.354126l1230.9895 0l0 616.0945l-1230.9895 0l0 -616.0945z"
       fill-rule="nonzero"
       id="path7" />
    <path
       shape-rendering="crispEdges"
       fill="#196515"
       d="m23.088608 92.354126l175.85564 0l0 102.68242l-175.85564 0l0 -102.68242z"
       fill-rule="nonzero"
       id="path9" />
    <path
       shape-rendering="crispEdges"
       fill="#196515"
       d="m198.94424 92.354126l175.85565 0l0 102.68242l-175.85565 0l0 -102.68242z"
       fill-rule="nonzero"
       id="path11" />
    <path
       shape-rendering="crispEdges"
       fill="#196515"
       d="m374.7999 92.354126l175.85562 0l0 102.68242l-175.85562 0l0 -102.68242z"
       fill-rule="nonzero"
       id="path13" />
    <path
       shape-rendering="crispEdges"
       fill="#196515"
       d="m550.6555 92.354126l175.85565 0l0 102.68242l-175.85565 0l0 -102.68242z"
       fill-rule="nonzero"
       id="path15" />
    <path
       shape-rendering="crispEdges"
       fill="#196515"
       d="m726.51117 92.354126l175.85565 0l0 102.68242l-175.85565 0l0 -102.68242z"
       fill-rule="nonzero"
       id="path17" />
    <path
       shape-rendering="crispEdges"
       fill="#196515"
       d="m902.3668 92.354126l175.85559 0l0 102.68242l-175.85559 0l0 -102.68242z"
       fill-rule="nonzero"
       id="path19" />
    <path
       shape-rendering="crispEdges"
       fill="#196515"
       d="m1078.2224 92.354126l175.85571 0l0 102.68242l-175.85571 0l0 -102.68242z"
       fill-rule="nonzero"
       id="path21" />
    <path
       shape-rendering="crispEdges"
       fill="#d0deef"
       d="m23.088608 195.03654l175.85564 0l0 102.68242l-175.85564 0l0 -102.68242z"
       fill-rule="nonzero"
       id="path23" />
    <path
       shape-rendering="crispEdges"
       fill="#d0deef"
       d="m198.94424 195.03654l175.85565 0l0 102.68242l-175.85565 0l0 -102.68242z"
       fill-rule="nonzero"
       id="path25" />
    <path
       shape-rendering="crispEdges"
       fill="#d0deef"
       d="m374.7999 195.03654l175.85562 0l0 102.68242l-175.85562 0l0 -102.68242z"
       fill-rule="nonzero"
       id="path27" />
    <path
       shape-rendering="crispEdges"
       fill="#d0deef"
       d="m550.6555 195.03654l175.85565 0l0 102.68242l-175.85565 0l0 -102.68242z"
       fill-rule="nonzero"
       id="path29" />
    <path
       shape-rendering="crispEdges"
       fill="#99cc00"
       d="m726.51117 195.03654l175.85565 0l0 102.68242l-175.85565 0l0 -102.68242z"
       fill-rule="nonzero"
       id="path31" />
    <path
       shape-rendering="crispEdges"
       fill="#99cc00"
       d="m902.3668 195.03654l175.85559 0l0 102.68242l-175.85559 0l0 -102.68242z"
       fill-rule="nonzero"
       id="path33" />
    <path
       shape-rendering="crispEdges"
       fill="#99cc00"
       d="m1078.2224 195.03654l175.85571 0l0 102.68242l-175.85571 0l0 -102.68242z"
       fill-rule="nonzero"
       id="path35" />
    <path
       shape-rendering="crispEdges"
       fill="#99cc00"
       d="m23.088608 297.71896l175.85564 0l0 102.6824l-175.85564 0l0 -102.6824z"
       fill-rule="nonzero"
       id="path37" />
    <path
       shape-rendering="crispEdges"
       fill="#99cc00"
       d="m198.94424 297.71896l175.85565 0l0 102.6824l-175.85565 0l0 -102.6824z"
       fill-rule="nonzero"
       id="path39" />
    <path
       shape-rendering="crispEdges"
       fill="#99cc00"
       d="m374.7999 297.71896l175.85562 0l0 102.6824l-175.85562 0l0 -102.6824z"
       fill-rule="nonzero"
       id="path41" />
    <path
       shape-rendering="crispEdges"
       fill="#99cc00"
       d="m550.6555 297.71896l175.85565 0l0 102.6824l-175.85565 0l0 -102.6824z"
       fill-rule="nonzero"
       id="path43" />
    <path
       shape-rendering="crispEdges"
       fill="#99cc00"
       d="m726.51117 297.71896l175.85565 0l0 102.6824l-175.85565 0l0 -102.6824z"
       fill-rule="nonzero"
       id="path45" />
    <path
       shape-rendering="crispEdges"
       fill="#99cc00"
       d="m902.3668 297.71896l175.85559 0l0 102.6824l-175.85559 0l0 -102.6824z"
       fill-rule="nonzero"
       id="path47" />
    <path
       shape-rendering="crispEdges"
       fill="#99cc00"
       d="m1078.2224 297.71896l175.85571 0l0 102.6824l-175.85571 0l0 -102.6824z"
       fill-rule="nonzero"
       id="path49" />
    <path
       shape-rendering="crispEdges"
       fill="#99cc00"
       d="m23.088608 400.40137l175.85564 0l0 102.6824l-175.85564 0l0 -102.6824z"
       fill-rule="nonzero"
       id="path51" />
    <path
       shape-rendering="crispEdges"
       fill="#99cc00"
       d="m198.94424 400.40137l175.85565 0l0 102.6824l-175.85565 0l0 -102.6824z"
       fill-rule="nonzero"
       id="path53" />
    <path
       shape-rendering="crispEdges"
       fill="#99cc00"
       d="m374.7999 400.40137l175.85562 0l0 102.6824l-175.85562 0l0 -102.6824z"
       fill-rule="nonzero"
       id="path55" />
    <path
       shape-rendering="crispEdges"
       fill="#99cc00"
       d="m550.6555 400.40137l175.85565 0l0 102.6824l-175.85565 0l0 -102.6824z"
       fill-rule="nonzero"
       id="path57" />
    <path
       shape-rendering="crispEdges"
       fill="#99cc00"
       d="m726.51117 400.40137l175.85565 0l0 102.6824l-175.85565 0l0 -102.6824z"
       fill-rule="nonzero"
       id="path59" />
    <path
       shape-rendering="crispEdges"
       fill="#99cc00"
       d="m902.3668 400.40137l175.85559 0l0 102.6824l-175.85559 0l0 -102.6824z"
       fill-rule="nonzero"
       id="path61" />
    <path
       shape-rendering="crispEdges"
       fill="#99cc00"
       d="m1078.2224 400.40137l175.85571 0l0 102.6824l-175.85571 0l0 -102.6824z"
       fill-rule="nonzero"
       id="path63" />
    <path
       shape-rendering="crispEdges"
       fill="#99cc00"
       d="m23.088608 503.08377l175.85564 0l0 102.6824l-175.85564 0l0 -102.6824z"
       fill-rule="nonzero"
       id="path65" />
    <path
       shape-rendering="crispEdges"
       fill="#99cc00"
       d="m198.94424 503.08377l175.85565 0l0 102.6824l-175.85565 0l0 -102.6824z"
       fill-rule="nonzero"
       id="path67" />
    <path
       shape-rendering="crispEdges"
       fill="#99cc00"
       d="m374.7999 503.08377l175.85562 0l0 102.6824l-175.85562 0l0 -102.6824z"
       fill-rule="nonzero"
       id="path69" />
    <path
       shape-rendering="crispEdges"
       fill="#99cc00"
       d="m550.6555 503.08377l175.85565 0l0 102.6824l-175.85565 0l0 -102.6824z"
       fill-rule="nonzero"
       id="path71" />
    <path
       shape-rendering="crispEdges"
       fill="#99cc00"
       d="m726.51117 503.08377l175.85565 0l0 102.6824l-175.85565 0l0 -102.6824z"
       fill-rule="nonzero"
       id="path73" />
    <path
       shape-rendering="crispEdges"
       fill="#99cc00"
       d="m902.3668 503.08377l175.85559 0l0 102.6824l-175.85559 0l0 -102.6824z"
       fill-rule="nonzero"
       id="path75" />
    <path
       shape-rendering="crispEdges"
       fill="#99cc00"
       d="m1078.2224 503.08377l175.85571 0l0 102.6824l-175.85571 0l0 -102.6824z"
       fill-rule="nonzero"
       id="path77" />
    <path
       shape-rendering="crispEdges"
       fill="#99cc00"
       d="m23.088608 605.7662l175.85564 0l0 102.682434l-175.85564 0l0 -102.682434z"
       fill-rule="nonzero"
       id="path79" />
    <path
       shape-rendering="crispEdges"
       fill="#99cc00"
       d="m198.94424 605.7662l175.85565 0l0 102.682434l-175.85565 0l0 -102.682434z"
       fill-rule="nonzero"
       id="path81" />
    <path
       shape-rendering="crispEdges"
       fill="#ff9900"
       d="m374.7999 605.7662l175.85562 0l0 102.682434l-175.85562 0l0 -102.682434z"
       fill-rule="nonzero"
       id="path83" />
    <path
       shape-rendering="crispEdges"
       fill="#ff9900"
       d="m550.6555 605.7662l175.85565 0l0 102.682434l-175.85565 0l0 -102.682434z"
       fill-rule="nonzero"
       id="path85" />
    <path
       shape-rendering="crispEdges"
       fill="#ff9900"
       d="m726.51117 605.7662l175.85565 0l0 102.682434l-175.85565 0l0 -102.682434z"
       fill-rule="nonzero"
       id="path87" />
    <path
       shape-rendering="crispEdges"
       fill="#ff9900"
       d="m902.3668 605.7662l175.85559 0l0 102.682434l-175.85559 0l0 -102.682434z"
       fill-rule="nonzero"
       id="path89" />
    <path
       shape-rendering="crispEdges"
       fill="#d0deef"
       d="m1078.2224 605.7662l175.85571 0l0 102.682434l-175.85571 0l0 -102.682434z"
       fill-rule="nonzero"
       id="path91" />
    <path
       stroke="#000000"
       stroke-width="1.3333333333333333"
       stroke-linecap="butt"
       d="m23.088608 91.68746l0 617.42786"
       fill-rule="nonzero"
       id="path93" />
    <path
       stroke="#000000"
       stroke-width="1.3333333333333333"
       stroke-linecap="butt"
       d="m198.94424 91.68746l0 617.42786"
       fill-rule="nonzero"
       id="path95" />
    <path
       stroke="#000000"
       stroke-width="1.3333333333333333"
       stroke-linecap="butt"
       d="m374.7999 91.68746l0 617.42786"
       fill-rule="nonzero"
       id="path97" />
    <path
       stroke="#000000"
       stroke-width="1.3333333333333333"
       stroke-linecap="butt"
       d="m550.6555 91.68746l0 617.42786"
       fill-rule="nonzero"
       id="path99" />
    <path
       stroke="#000000"
       stroke-width="1.3333333333333333"
       stroke-linecap="butt"
       d="m726.51117 91.68746l0 617.42786"
       fill-rule="nonzero"
       id="path101" />
    <path
       stroke="#000000"
       stroke-width="1.3333333333333333"
       stroke-linecap="butt"
       d="m902.3668 91.68746l0 617.42786"
       fill-rule="nonzero"
       id="path103" />
    <path
       stroke="#000000"
       stroke-width="1.3333333333333333"
       stroke-linecap="butt"
       d="m1078.2224 91.68746l0 617.42786"
       fill-rule="nonzero"
       id="path105" />
    <path
       stroke="#000000"
       stroke-width="1.3333333333333333"
       stroke-linecap="butt"
       d="m1254.0781 91.68746l0 617.42786"
       fill-rule="nonzero"
       id="path107" />
    <path
       stroke="#000000"
       stroke-width="1.3333333333333333"
       stroke-linecap="butt"
       d="m22.421942 92.354126l1232.3228 0"
       fill-rule="nonzero"
       id="path109" />
    <path
       stroke="#000000"
       stroke-width="1.3333333333333333"
       stroke-linecap="butt"
       d="m22.421942 195.03654l1232.3228 0"
       fill-rule="nonzero"
       id="path111" />
    <path
       stroke="#000000"
       stroke-width="1.3333333333333333"
       stroke-linecap="butt"
       d="m22.421942 297.71896l1232.3228 0"
       fill-rule="nonzero"
       id="path113" />
    <path
       stroke="#000000"
       stroke-width="1.3333333333333333"
       stroke-linecap="butt"
       d="m22.421942 400.40137l1232.3228 0"
       fill-rule="nonzero"
       id="path115" />
    <path
       stroke="#000000"
       stroke-width="1.3333333333333333"
       stroke-linecap="butt"
       d="m22.421942 503.08377l1232.3228 0"
       fill-rule="nonzero"
       id="path117" />
    <path
       stroke="#000000"
       stroke-width="1.3333333333333333"
       stroke-linecap="butt"
       d="m22.421942 605.7662l1232.3228 0"
       fill-rule="nonzero"
       id="path119" />
    <path
       stroke="#000000"
       stroke-width="1.3333333333333333"
       stroke-linecap="butt"
       d="m22.421942 708.4486l1232.3228 0"
       fill-rule="nonzero"
       id="path121" />
    <path
       fill="#ffffff"
       d="m111.05557 152.4697q-1.734375 0 -3.078125 -0.421875q-1.34375 -0.4375 -2.515625 -1.46875q-0.65625 -0.578125 -0.65625 -1.265625q0 -0.5625 0.40625 -0.96875q0.421875 -0.421875 1.0 -0.421875q0.453125 0 0.8125 0.28125q0.953125 0.796875 1.859375 1.15625q0.921875 0.359375 2.171875 0.359375q1.34375 0 2.3125 -0.59375q0.96875 -0.609375 0.96875 -1.5q0 -1.078125 -0.96875 -1.6875q-0.953125 -0.609375 -3.03125 -0.921875q-5.265625 -0.765625 -5.265625 -4.90625q0 -1.5 0.796875 -2.609375q0.796875 -1.125 2.15625 -1.71875q1.375 -0.59375 3.046875 -0.59375q1.515625 0 2.84375 0.46875q1.34375 0.453125 2.21875 1.1875q0.703125 0.5625 0.703125 1.28125q0 0.546875 -0.40625 0.96875q-0.40625 0.421875 -0.96875 0.421875q-0.359375 0 -0.640625 -0.21875q-0.625 -0.5 -1.75 -0.921875q-1.109375 -0.421875 -2.0 -0.421875q-1.5 0 -2.328125 0.5625q-0.828125 0.5625 -0.828125 1.484375q0 1.03125 0.84375 1.5625q0.859375 0.515625 2.671875 0.859375q2.0625 0.359375 3.296875 0.921875q1.25 0.5625 1.875 1.53125q0.625 0.96875 0.625 2.578125q0 1.515625 -0.859375 2.65625q-0.859375 1.140625 -2.28125 1.75q-1.40625 0.609375 -3.03125 0.609375z"
       fill-rule="nonzero"
       id="path123" />
    <path
       fill="#ffffff"
       d="m293.4191 135.4072q0.59375 0 1.03125 0.421875q0.453125 0.421875 0.453125 1.046875l0 13.890625q0 0.625 -0.40625 1.046875q-0.40625 0.421875 -1.078125 0.421875q-0.671875 0 -1.09375 -0.40625q-0.421875 -0.40625 -0.421875 -1.0625l0 -9.671875l-3.96875 6.046875q-0.234375 0.296875 -0.546875 0.484375q-0.3125 0.171875 -0.640625 0.140625q-0.3125 0.03125 -0.625 -0.140625q-0.3125 -0.1875 -0.5625 -0.484375l-3.953125 -6.265625l0 9.890625q0 0.65625 -0.390625 1.0625q-0.375 0.40625 -1.0 0.40625q-0.609375 0 -1.0 -0.421875q-0.375 -0.421875 -0.375 -1.046875l0 -13.890625q0 -0.59375 0.4375 -1.03125q0.453125 -0.4375 1.078125 -0.4375q0.359375 0 0.71875 0.1875q0.359375 0.171875 0.546875 0.46875l5.234375 8.03125l5.375 -8.03125q0.203125 -0.296875 0.515625 -0.46875q0.328125 -0.1875 0.671875 -0.1875z"
       fill-rule="nonzero"
       id="path125" />
    <path
       fill="#ffffff"
       d="m468.05948 135.43845q0.640625 0 1.046875 0.390625q0.40625 0.375 0.40625 1.0q0 0.625 -0.40625 1.0q-0.40625 0.359375 -1.046875 0.359375l-3.765625 0l0 12.578125q0 0.625 -0.46875 1.046875q-0.453125 0.421875 -1.125 0.421875q-0.671875 0 -1.109375 -0.421875q-0.421875 -0.421875 -0.421875 -1.046875l0 -12.578125l-3.765625 0q-0.65625 0 -1.0625 -0.375q-0.40625 -0.390625 -0.40625 -1.015625q0 -0.59375 0.421875 -0.96875q0.421875 -0.390625 1.046875 -0.390625l10.65625 0z"
       fill-rule="nonzero"
       id="path127" />
    <path
       fill="#ffffff"
       d="m647.9549 135.36032q0.578125 0 1.0625 0.453125q0.5 0.4375 0.5 1.109375q0 0.21875 -0.078125 0.484375l-4.71875 13.921875q-0.15625 0.40625 -0.515625 0.640625q-0.359375 0.234375 -0.78125 0.265625q-0.4375 0 -0.828125 -0.234375q-0.375 -0.25 -0.59375 -0.703125l-3.40625 -7.75l-3.4375 7.75q-0.203125 0.453125 -0.59375 0.703125q-0.390625 0.234375 -0.8125 0.234375q-0.4375 -0.03125 -0.796875 -0.265625q-0.359375 -0.234375 -0.5 -0.640625l-4.734375 -13.921875q-0.0625 -0.265625 -0.0625 -0.484375q0 -0.671875 0.484375 -1.109375q0.5 -0.453125 1.09375 -0.453125q0.484375 0 0.859375 0.25q0.390625 0.25 0.53125 0.6875l3.578125 10.84375l3.125 -7.484375q0.1875 -0.4375 0.546875 -0.6875q0.359375 -0.25 0.8125 -0.21875q0.453125 -0.03125 0.796875 0.21875q0.359375 0.25 0.546875 0.6875l2.953125 7.421875l3.546875 -10.78125q0.15625 -0.4375 0.546875 -0.6875q0.390625 -0.25 0.875 -0.25z"
       fill-rule="nonzero"
       id="path129" />
    <path
       fill="#ffffff"
       d="m819.77075 135.43845q0.640625 0 1.046875 0.390625q0.40625 0.375 0.40625 1.0q0 0.625 -0.40625 1.0q-0.40625 0.359375 -1.046875 0.359375l-3.765625 0l0 12.578125q0 0.625 -0.46875 1.046875q-0.453125 0.421875 -1.125 0.421875q-0.671875 0 -1.109375 -0.421875q-0.421875 -0.421875 -0.421875 -1.046875l0 -12.578125l-3.765625 0q-0.65625 0 -1.0625 -0.375q-0.40625 -0.390625 -0.40625 -1.015625q0 -0.59375 0.421875 -0.96875q0.421875 -0.390625 1.046875 -0.390625l10.65625 0z"
       fill-rule="nonzero"
       id="path131" />
    <path
       fill="#ffffff"
       d="m988.34753 138.18845l0 4.234375l5.1875 0q0.625 0 1.046875 0.390625q0.421875 0.390625 0.421875 1.015625q0 0.53125 -0.421875 0.9375q-0.421875 0.40625 -1.046875 0.40625l-5.1875 0l0 5.59375q0 0.625 -0.453125 1.046875q-0.4375 0.421875 -1.03125 0.421875q-0.671875 0 -1.09375 -0.40625q-0.421875 -0.40625 -0.421875 -1.0625l0 -13.875q0 -0.609375 0.421875 -1.03125q0.421875 -0.421875 1.046875 -0.421875l7.796875 0q0.625 0 1.046875 0.390625q0.421875 0.390625 0.421875 1.015625q0 0.53125 -0.421875 0.9375q-0.421875 0.40625 -1.046875 0.40625l-6.265625 0z"
       fill-rule="nonzero"
       id="path133" />
    <path
       fill="#ffffff"
       d="m1166.1895 152.4697q-1.734375 0 -3.078125 -0.421875q-1.34375 -0.4375 -2.515625 -1.46875q-0.65625 -0.578125 -0.65625 -1.265625q0 -0.5625 0.40625 -0.96875q0.421875 -0.421875 1.0 -0.421875q0.453125 0 0.8125 0.28125q0.953125 0.796875 1.859375 1.15625q0.921875 0.359375 2.171875 0.359375q1.34375 0 2.3125 -0.59375q0.96875 -0.609375 0.96875 -1.5q0 -1.078125 -0.96875 -1.6875q-0.953125 -0.609375 -3.03125 -0.921875q-5.265625 -0.765625 -5.265625 -4.90625q0 -1.5 0.796875 -2.609375q0.796875 -1.125 2.15625 -1.71875q1.375 -0.59375 3.046875 -0.59375q1.515625 0 2.84375 0.46875q1.34375 0.453125 2.21875 1.1875q0.703125 0.5625 0.703125 1.28125q0 0.546875 -0.40625 0.96875q-0.40625 0.421875 -0.96875 0.421875q-0.359375 0 -0.640625 -0.21875q-0.625 -0.5 -1.75 -0.921875q-1.109375 -0.421875 -2.0 -0.421875q-1.5 0 -2.328125 0.5625q-0.828125 0.5625 -0.828125 1.484375q0 1.03125 0.84375 1.5625q0.859375 0.515625 2.671875 0.859375q2.0625 0.359375 3.296875 0.921875q1.25 0.5625 1.875 1.53125q0.625 0.96875 0.625 2.578125q0 1.515625 -0.859375 2.65625q-0.859375 1.140625 -2.28125 1.75q-1.40625 0.609375 -3.03125 0.609375z"
       fill-rule="nonzero"
       id="path135" />
    <path
       fill="#000000"
       d="m815.5836 238.12086q0.265625 0.015625 0.4375 0.21875q0.1875 0.203125 0.1875 0.5l0 15.359375q0 0.3125 -0.234375 0.515625q-0.234375 0.203125 -0.5625 0.203125q-0.3125 0 -0.53125 -0.203125q-0.21875 -0.203125 -0.21875 -0.515625l0 -14.046875l-3.0 1.78125q-0.15625 0.09375 -0.328125 0.09375q-0.3125 0 -0.546875 -0.234375q-0.21875 -0.25 -0.21875 -0.53125q0 -0.171875 0.109375 -0.328125q0.109375 -0.171875 0.265625 -0.265625l4.0625 -2.453125q0.234375 -0.140625 0.578125 -0.09375z"
       fill-rule="nonzero"
       id="path137" />
    <path
       fill="#000000"
       d="m995.3188 253.52711q0.296875 0 0.5 0.203125q0.203125 0.203125 0.203125 0.484375q0 0.3125 -0.203125 0.515625q-0.203125 0.1875 -0.5 0.1875l-9.0 0q-0.328125 0 -0.546875 -0.1875q-0.21875 -0.203125 -0.21875 -0.53125q0 -0.265625 0.1875 -0.5l5.546875 -6.125q1.34375 -1.4375 1.984375 -2.578125q0.65625 -1.140625 0.65625 -2.25q0 -1.625 -0.984375 -2.5625q-0.984375 -0.9375 -2.734375 -0.9375q-1.171875 0 -2.09375 0.5625q-0.921875 0.5625 -1.390625 1.71875q-0.265625 0.4375 -0.625 0.4375q-0.25 0 -0.5 -0.1875q-0.234375 -0.203125 -0.234375 -0.4375q0 -0.15625 0.09375 -0.34375q0.09375 -0.1875 0.234375 -0.375q0.625 -1.296875 1.875 -2.015625q1.25 -0.734375 2.734375 -0.734375q2.421875 0 3.78125 1.328125q1.375 1.3125 1.375 3.453125q0 1.328125 -0.71875 2.703125q-0.71875 1.375 -2.375 3.203125l-4.40625 4.96875l7.359375 0z"
       fill-rule="nonzero"
       id="path139" />
    <path
       fill="#000000"
       d="m1166.004 244.29274q1.34375 0 2.5 0.625q1.171875 0.609375 1.875 1.8125q0.71875 1.203125 0.71875 2.828125q0 1.640625 -0.78125 2.921875q-0.78125 1.265625 -2.125 1.96875q-1.34375 0.703125 -2.984375 0.703125q-1.03125 0 -1.984375 -0.328125q-0.953125 -0.34375 -1.625 -1.015625q-0.34375 -0.234375 -0.34375 -0.578125q0 -0.28125 0.21875 -0.53125q0.21875 -0.25 0.5 -0.25q0.296875 0 0.59375 0.265625q1.015625 1.078125 2.796875 1.078125q1.140625 0 2.125 -0.53125q0.984375 -0.53125 1.5625 -1.484375q0.578125 -0.96875 0.578125 -2.15625q0 -1.328125 -0.59375 -2.21875q-0.578125 -0.890625 -1.53125 -1.296875q-0.953125 -0.421875 -2.0 -0.421875q-0.296875 0 -0.75 0.078125q-0.453125 0.078125 -0.578125 0.078125q-0.28125 0 -0.46875 -0.203125q-0.171875 -0.203125 -0.171875 -0.515625q0 -0.3125 0.234375 -0.546875l4.59375 -5.09375l-6.671875 0q-0.296875 0 -0.5 -0.1875q-0.203125 -0.1875 -0.203125 -0.5q0 -0.296875 0.203125 -0.484375q0.203125 -0.1875 0.5 -0.1875l8.0625 0q0.375 0 0.546875 0.234375q0.1875 0.21875 0.1875 0.5q0 0.296875 -0.234375 0.53125l-4.390625 4.90625l0.140625 0z"
       fill-rule="nonzero"
       id="path141" />
    <path
       fill="#000000"
       d="m115.98507 351.0689q0.28125 0 0.484375 0.203125q0.21875 0.1875 0.21875 0.46875q0 0.296875 -0.21875 0.484375q-0.203125 0.1875 -0.484375 0.1875l-1.609375 0l0 4.46875q0 0.3125 -0.21875 0.515625q-0.21875 0.203125 -0.53125 0.203125q-0.3125 0 -0.5 -0.203125q-0.1875 -0.203125 -0.1875 -0.515625l0 -4.46875l-7.0625 0q-0.28125 0 -0.5 -0.21875q-0.21875 -0.234375 -0.21875 -0.515625q0 -0.296875 0.171875 -0.484375l7.734375 -10.109375q0.1875 -0.28125 0.59375 -0.28125q0.3125 0 0.515625 0.203125q0.203125 0.203125 0.203125 0.515625l0 9.546875l1.609375 0zm-8.859375 0l5.8125 0l0 -7.671875l-5.8125 7.671875z"
       fill-rule="nonzero"
       id="path143" />
    <path
       fill="#000000"
       d="m286.3622 346.4439q1.53125 0 2.765625 0.6875q1.234375 0.671875 1.9375 1.921875q0.71875 1.234375 0.71875 2.765625q0 1.671875 -0.78125 3.015625q-0.78125 1.328125 -2.171875 2.078125q-1.390625 0.734375 -3.171875 0.734375q-1.0 0 -2.0 -0.328125q-1.0 -0.34375 -1.75 -0.96875q-0.140625 -0.09375 -0.234375 -0.265625q-0.078125 -0.1875 -0.078125 -0.359375q0 -0.234375 0.203125 -0.453125q0.21875 -0.234375 0.5 -0.234375q0.265625 0 0.53125 0.203125q0.625 0.484375 1.34375 0.75q0.734375 0.265625 1.484375 0.265625q1.375 0 2.4375 -0.546875q1.0625 -0.5625 1.65625 -1.5625q0.59375 -1.015625 0.59375 -2.28125q0 -1.828125 -1.1875 -2.9375q-1.171875 -1.125 -3.140625 -1.125q-0.75 0 -1.390625 0.21875q-0.625 0.21875 -1.421875 0.578125q-0.5625 0.28125 -0.734375 0.28125q-0.359375 0 -0.59375 -0.21875q-0.21875 -0.234375 -0.21875 -0.546875q0 -0.109375 0.015625 -0.1875l1.03125 -6.53125q0.046875 -0.234375 0.25 -0.40625q0.203125 -0.1875 0.5 -0.1875l7.21875 0q0.296875 0 0.5 0.203125q0.203125 0.203125 0.203125 0.515625q0 0.28125 -0.203125 0.484375q-0.203125 0.203125 -0.5 0.203125l-6.71875 0l-0.8125 4.96875q0.625 -0.3125 1.46875 -0.515625q0.859375 -0.21875 1.75 -0.21875z"
       fill-rule="nonzero"
       id="path145" />
    <path
       fill="#000000"
       d="m463.40872 346.97516q1.421875 0 2.5625 0.765625q1.140625 0.765625 1.765625 2.046875q0.640625 1.265625 0.640625 2.671875q0 1.421875 -0.6875 2.65625q-0.671875 1.234375 -1.875 1.984375q-1.203125 0.734375 -2.6875 0.734375q-1.796875 0 -3.046875 -0.828125q-1.25 -0.84375 -1.875 -2.203125q-0.609375 -1.375 -0.609375 -2.96875q0 -2.03125 0.859375 -4.375q0.875 -2.34375 2.53125 -4.296875q1.65625 -1.953125 3.9375 -2.8125q0.1875 -0.046875 0.3125 -0.046875q0.3125 0 0.53125 0.1875q0.21875 0.1875 0.21875 0.546875q0 0.5 -0.578125 0.703125q-1.921875 0.78125 -3.625 2.796875q-1.6875 2.0 -2.3125 4.25q0.71875 -0.828125 1.734375 -1.3125q1.03125 -0.5 2.203125 -0.5zm-0.328125 9.46875q1.671875 0 2.75 -1.109375q1.078125 -1.125 1.078125 -2.875q0 -1.078125 -0.4375 -2.015625q-0.4375 -0.9375 -1.28125 -1.5q-0.84375 -0.578125 -2.0 -0.578125q-1.25 0 -2.1875 0.5625q-0.921875 0.5625 -1.4375 1.515625q-0.5 0.9375 -0.5 2.09375q0 1.046875 0.484375 1.9375q0.484375 0.890625 1.390625 1.4375q0.90625 0.53125 2.140625 0.53125z"
       fill-rule="nonzero"
       id="path147" />
    <path
       fill="#000000"
       d="m643.3361 340.80328q0.328125 0 0.5 0.1875q0.1875 0.1875 0.1875 0.484375q0 0.109375 -0.0625 0.328125l-6.609375 15.390625q-0.09375 0.21875 -0.28125 0.359375q-0.1875 0.125 -0.40625 0.125q-0.28125 0 -0.515625 -0.1875q-0.234375 -0.203125 -0.234375 -0.484375q0 -0.203125 0.078125 -0.359375l6.21875 -14.484375l-7.703125 0q-0.296875 0 -0.5 -0.1875q-0.203125 -0.1875 -0.203125 -0.5q0 -0.296875 0.203125 -0.484375q0.203125 -0.1875 0.5 -0.1875l8.828125 0z"
       fill-rule="nonzero"
       id="path149" />
    <path
       fill="#000000"
       d="m816.87775 349.05328q1.203125 0.578125 1.953125 1.65625q0.75 1.0625 0.75 2.40625q0 1.265625 -0.6875 2.34375q-0.671875 1.078125 -1.859375 1.703125q-1.1875 0.625 -2.609375 0.625q-1.40625 0 -2.59375 -0.625q-1.171875 -0.625 -1.859375 -1.703125q-0.6875 -1.078125 -0.6875 -2.34375q0 -1.390625 0.75 -2.421875q0.75 -1.03125 1.890625 -1.609375q-0.953125 -0.515625 -1.609375 -1.5q-0.640625 -1.0 -0.640625 -2.21875q0 -1.28125 0.625 -2.3125q0.640625 -1.046875 1.734375 -1.640625q1.09375 -0.609375 2.390625 -0.609375q1.296875 0 2.390625 0.609375q1.09375 0.59375 1.71875 1.640625q0.625 1.03125 0.625 2.3125q0 1.25 -0.671875 2.203125q-0.65625 0.953125 -1.609375 1.484375zm-2.453125 -6.890625q-1.46875 0 -2.375 0.890625q-0.90625 0.890625 -0.90625 2.3125q0 0.9375 0.453125 1.671875q0.453125 0.71875 1.203125 1.125q0.765625 0.40625 1.625 0.40625q0.859375 0 1.609375 -0.40625q0.765625 -0.40625 1.203125 -1.125q0.453125 -0.734375 0.453125 -1.671875q0 -1.421875 -0.921875 -2.3125q-0.90625 -0.890625 -2.34375 -0.890625zm0 14.234375q1.640625 0 2.671875 -0.921875q1.03125 -0.921875 1.03125 -2.359375q0 -0.9375 -0.515625 -1.703125q-0.5 -0.765625 -1.359375 -1.203125q-0.84375 -0.453125 -1.828125 -0.453125q-0.984375 0 -1.828125 0.453125q-0.828125 0.4375 -1.34375 1.203125q-0.5 0.765625 -0.5 1.703125q0 1.4375 1.015625 2.359375q1.03125 0.921875 2.65625 0.921875z"
       fill-rule="nonzero"
       id="path151" />
    <path
       fill="#000000"
       d="m990.25244 340.53766q1.78125 0 3.03125 0.84375q1.25 0.828125 1.859375 2.203125q0.609375 1.375 0.609375 2.953125q0 2.015625 -0.859375 4.296875q-0.84375 2.28125 -2.515625 4.171875q-1.65625 1.890625 -3.9375 2.765625q-0.203125 0.046875 -0.296875 0.046875q-0.3125 0 -0.546875 -0.21875q-0.21875 -0.21875 -0.21875 -0.53125q0 -0.5 0.578125 -0.6875q1.96875 -0.84375 3.625 -2.703125q1.671875 -1.859375 2.28125 -4.046875q-0.703125 0.796875 -1.71875 1.265625q-1.015625 0.46875 -2.203125 0.46875q-1.40625 0 -2.546875 -0.75q-1.125 -0.765625 -1.78125 -2.015625q-0.640625 -1.265625 -0.640625 -2.6875q0 -1.421875 0.6875 -2.65625q0.6875 -1.234375 1.890625 -1.96875q1.21875 -0.75 2.703125 -0.75zm-0.0625 9.4375q1.25 0 2.171875 -0.546875q0.9375 -0.5625 1.421875 -1.5q0.5 -0.953125 0.5 -2.09375q0 -1.046875 -0.484375 -1.9375q-0.46875 -0.890625 -1.390625 -1.421875q-0.90625 -0.546875 -2.125 -0.546875q-1.109375 0 -1.96875 0.515625q-0.859375 0.5 -1.359375 1.40625q-0.484375 0.90625 -0.484375 2.0625q0 1.078125 0.421875 2.0q0.4375 0.921875 1.28125 1.5q0.84375 0.5625 2.015625 0.5625z"
       fill-rule="nonzero"
       id="path153" />
    <path
       fill="#000000"
       d="m1160.1549 340.80328q0.265625 0.015625 0.4375 0.21875q0.1875 0.203125 0.1875 0.5l0 15.359375q0 0.3125 -0.234375 0.515625q-0.234375 0.203125 -0.5625 0.203125q-0.3125 0 -0.53125 -0.203125q-0.21875 -0.203125 -0.21875 -0.515625l0 -14.046875l-3.0 1.78125q-0.15625 0.09375 -0.328125 0.09375q-0.3125 0 -0.546875 -0.234375q-0.21875 -0.25 -0.21875 -0.53125q0 -0.171875 0.109375 -0.328125q0.109375 -0.171875 0.265625 -0.265625l4.0625 -2.453125q0.234375 -0.140625 0.578125 -0.09375zm9.97644 17.03125q-1.890625 0 -3.1875 -1.125q-1.296875 -1.125 -1.96875 -3.078125q-0.65625 -1.953125 -0.65625 -4.4375q0 -2.484375 0.640625 -4.421875q0.65625 -1.953125 1.96875 -3.078125q1.3125 -1.140625 3.203125 -1.140625q1.90625 0 3.203125 1.125q1.3125 1.109375 1.96875 3.078125q0.65625 1.953125 0.65625 4.4375q0 2.484375 -0.65625 4.4375q-0.65625 1.953125 -1.96875 3.078125q-1.296875 1.125 -3.203125 1.125zm0 -1.484375q2.0625 0 3.171875 -1.921875q1.125 -1.9375 1.125 -5.234375q0 -3.3125 -1.125 -5.234375q-1.109375 -1.9375 -3.171875 -1.9375q-2.03125 0 -3.15625 1.9375q-1.109375 1.921875 -1.109375 5.234375q0 3.296875 1.109375 5.234375q1.125 1.921875 3.15625 1.921875z"
       fill-rule="nonzero"
       id="path155" />
    <path
       fill="#000000"
       d="m108.16508 443.4857q0.265625 0.015625 0.4375 0.21875q0.1875 0.203125 0.1875 0.5l0 15.359375q0 0.3125 -0.234375 0.515625q-0.234375 0.203125 -0.5625 0.203125q-0.3125 0 -0.53125 -0.203125q-0.21875 -0.203125 -0.21875 -0.515625l0 -14.046875l-3.0 1.78125q-0.15625 0.09375 -0.328125 0.09375q-0.3125 0 -0.546875 -0.234375q-0.21875 -0.25 -0.21875 -0.53125q0 -0.171875 0.109375 -0.328125q0.109375 -0.171875 0.265625 -0.265625l4.0625 -2.453125q0.234375 -0.140625 0.578125 -0.09375zm7.991974 0q0.265625 0.015625 0.4375 0.21875q0.1875 0.203125 0.1875 0.5l0 15.359375q0 0.3125 -0.234375 0.515625q-0.234375 0.203125 -0.5625 0.203125q-0.3125 0 -0.53125 -0.203125q-0.21875 -0.203125 -0.21875 -0.515625l0 -14.046875l-3.0 1.78125q-0.15625 0.09375 -0.328125 0.09375q-0.3125 0 -0.546875 -0.234375q-0.21875 -0.25 -0.21875 -0.53125q0 -0.171875 0.109375 -0.328125q0.109375 -0.171875 0.265625 -0.265625l4.0625 -2.453125q0.234375 -0.140625 0.578125 -0.09375z"
       fill-rule="nonzero"
       id="path157" />
    <path
       fill="#000000"
       d="m281.21274 443.4857q0.265625 0.015625 0.4375 0.21875q0.1875 0.203125 0.1875 0.5l0 15.359375q0 0.3125 -0.234375 0.515625q-0.234375 0.203125 -0.5625 0.203125q-0.3125 0 -0.53125 -0.203125q-0.21875 -0.203125 -0.21875 -0.515625l0 -14.046875l-3.0 1.78125q-0.15625 0.09375 -0.328125 0.09375q-0.3125 0 -0.546875 -0.234375q-0.21875 -0.25 -0.21875 -0.53125q0 -0.171875 0.109375 -0.328125q0.109375 -0.171875 0.265625 -0.265625l4.0625 -2.453125q0.234375 -0.140625 0.578125 -0.09375zm14.679474 15.40625q0.296875 0 0.5 0.203125q0.203125 0.203125 0.203125 0.484375q0 0.3125 -0.203125 0.515625q-0.203125 0.1875 -0.5 0.1875l-9.0 0q-0.328125 0 -0.546875 -0.1875q-0.21875 -0.203125 -0.21875 -0.53125q0 -0.265625 0.1875 -0.5l5.546875 -6.125q1.34375 -1.4375 1.984375 -2.578125q0.65625 -1.140625 0.65625 -2.25q0 -1.625 -0.984375 -2.5625q-0.984375 -0.9375 -2.734375 -0.9375q-1.171875 0 -2.09375 0.5625q-0.921875 0.5625 -1.390625 1.71875q-0.265625 0.4375 -0.625 0.4375q-0.25 0 -0.5 -0.1875q-0.234375 -0.203125 -0.234375 -0.4375q0 -0.15625 0.09375 -0.34375q0.09375 -0.1875 0.234375 -0.375q0.625 -1.296875 1.875 -2.015625q1.25 -0.734375 2.734375 -0.734375q2.421875 0 3.78125 1.328125q1.375 1.3125 1.375 3.453125q0 1.328125 -0.71875 2.703125q-0.71875 1.375 -2.375 3.203125l-4.40625 4.96875l7.359375 0z"
       fill-rule="nonzero"
       id="path159" />
    <path
       fill="#000000"
       d="m457.63235 443.4857q0.265625 0.015625 0.4375 0.21875q0.1875 0.203125 0.1875 0.5l0 15.359375q0 0.3125 -0.234375 0.515625q-0.234375 0.203125 -0.5625 0.203125q-0.3125 0 -0.53125 -0.203125q-0.21875 -0.203125 -0.21875 -0.515625l0 -14.046875l-3.0 1.78125q-0.15625 0.09375 -0.328125 0.09375q-0.3125 0 -0.546875 -0.234375q-0.21875 -0.25 -0.21875 -0.53125q0 -0.171875 0.109375 -0.328125q0.109375 -0.171875 0.265625 -0.265625l4.0625 -2.453125q0.234375 -0.140625 0.578125 -0.09375zm8.945099 6.171875q1.34375 0 2.5 0.625q1.171875 0.609375 1.875 1.8125q0.71875 1.203125 0.71875 2.828125q0 1.640625 -0.78125 2.921875q-0.78125 1.265625 -2.125 1.96875q-1.34375 0.703125 -2.984375 0.703125q-1.03125 0 -1.984375 -0.328125q-0.953125 -0.34375 -1.625 -1.015625q-0.34375 -0.234375 -0.34375 -0.578125q0 -0.28125 0.21875 -0.53125q0.21875 -0.25 0.5 -0.25q0.296875 0 0.59375 0.265625q1.015625 1.078125 2.796875 1.078125q1.140625 0 2.125 -0.53125q0.984375 -0.53125 1.5625 -1.484375q0.578125 -0.96875 0.578125 -2.15625q0 -1.328125 -0.59375 -2.21875q-0.578125 -0.890625 -1.53125 -1.296875q-0.953125 -0.421875 -2.0 -0.421875q-0.296875 0 -0.75 0.078125q-0.453125 0.078125 -0.578125 0.078125q-0.28125 0 -0.46875 -0.203125q-0.171875 -0.203125 -0.171875 -0.515625q0 -0.3125 0.234375 -0.546875l4.59375 -5.09375l-6.671875 0q-0.296875 0 -0.5 -0.1875q-0.203125 -0.1875 -0.203125 -0.5q0 -0.296875 0.203125 -0.484375q0.203125 -0.1875 0.5 -0.1875l8.0625 0q0.375 0 0.546875 0.234375q0.1875 0.21875 0.1875 0.5q0 0.296875 -0.234375 0.53125l-4.390625 4.90625l0.140625 0z"
       fill-rule="nonzero"
       id="path161" />
    <path
       fill="#000000"
       d="m633.056 443.4857q0.265625 0.015625 0.4375 0.21875q0.1875 0.203125 0.1875 0.5l0 15.359375q0 0.3125 -0.234375 0.515625q-0.234375 0.203125 -0.5625 0.203125q-0.3125 0 -0.53125 -0.203125q-0.21875 -0.203125 -0.21875 -0.515625l0 -14.046875l-3.0 1.78125q-0.15625 0.09375 -0.328125 0.09375q-0.3125 0 -0.546875 -0.234375q-0.21875 -0.25 -0.21875 -0.53125q0 -0.171875 0.109375 -0.328125q0.109375 -0.171875 0.265625 -0.265625l4.0625 -2.453125q0.234375 -0.140625 0.578125 -0.09375zm14.491943 10.265625q0.28125 0 0.484375 0.203125q0.21875 0.1875 0.21875 0.46875q0 0.296875 -0.21875 0.484375q-0.203125 0.1875 -0.484375 0.1875l-1.609375 0l0 4.46875q0 0.3125 -0.21875 0.515625q-0.21875 0.203125 -0.53125 0.203125q-0.3125 0 -0.5 -0.203125q-0.1875 -0.203125 -0.1875 -0.515625l0 -4.46875l-7.0625 0q-0.28125 0 -0.5 -0.21875q-0.21875 -0.234375 -0.21875 -0.515625q0 -0.296875 0.171875 -0.484375l7.734375 -10.109375q0.1875 -0.28125 0.59375 -0.28125q0.3125 0 0.515625 0.203125q0.203125 0.203125 0.203125 0.515625l0 9.546875l1.609375 0zm-8.859375 0l5.8125 0l0 -7.671875l-5.8125 7.671875z"
       fill-rule="nonzero"
       id="path163" />
    <path
       fill="#000000"
       d="m808.99567 443.4857q0.265625 0.015625 0.4375 0.21875q0.1875 0.203125 0.1875 0.5l0 15.359375q0 0.3125 -0.234375 0.515625q-0.234375 0.203125 -0.5625 0.203125q-0.3125 0 -0.53125 -0.203125q-0.21875 -0.203125 -0.21875 -0.515625l0 -14.046875l-3.0 1.78125q-0.15625 0.09375 -0.328125 0.09375q-0.3125 0 -0.546875 -0.234375q-0.21875 -0.25 -0.21875 -0.53125q0 -0.171875 0.109375 -0.328125q0.109375 -0.171875 0.265625 -0.265625l4.0625 -2.453125q0.234375 -0.140625 0.578125 -0.09375zm8.929443 5.640625q1.53125 0 2.765625 0.6875q1.234375 0.671875 1.9375 1.921875q0.71875 1.234375 0.71875 2.765625q0 1.671875 -0.78125 3.015625q-0.78125 1.328125 -2.171875 2.078125q-1.390625 0.734375 -3.171875 0.734375q-1.0 0 -2.0 -0.328125q-1.0 -0.34375 -1.75 -0.96875q-0.140625 -0.09375 -0.234375 -0.265625q-0.078125 -0.1875 -0.078125 -0.359375q0 -0.234375 0.203125 -0.453125q0.21875 -0.234375 0.5 -0.234375q0.265625 0 0.53125 0.203125q0.625 0.484375 1.34375 0.75q0.734375 0.265625 1.484375 0.265625q1.375 0 2.4375 -0.546875q1.0625 -0.5625 1.65625 -1.5625q0.59375 -1.015625 0.59375 -2.28125q0 -1.828125 -1.1875 -2.9375q-1.171875 -1.125 -3.140625 -1.125q-0.75 0 -1.390625 0.21875q-0.625 0.21875 -1.421875 0.578125q-0.5625 0.28125 -0.734375 0.28125q-0.359375 0 -0.59375 -0.21875q-0.21875 -0.234375 -0.21875 -0.546875q0 -0.109375 0.015625 -0.1875l1.03125 -6.53125q0.046875 -0.234375 0.25 -0.40625q0.203125 -0.1875 0.5 -0.1875l7.21875 0q0.296875 0 0.5 0.203125q0.203125 0.203125 0.203125 0.515625q0 0.28125 -0.203125 0.484375q-0.203125 0.203125 -0.5 0.203125l-6.71875 0l-0.8125 4.96875q0.625 -0.3125 1.46875 -0.515625q0.859375 -0.21875 1.75 -0.21875z"
       fill-rule="nonzero"
       id="path165" />
    <path
       fill="#000000"
       d="m984.9953 443.4857q0.265625 0.015625 0.4375 0.21875q0.1875 0.203125 0.1875 0.5l0 15.359375q0 0.3125 -0.234375 0.515625q-0.234375 0.203125 -0.5625 0.203125q-0.3125 0 -0.53125 -0.203125q-0.21875 -0.203125 -0.21875 -0.515625l0 -14.046875l-3.0 1.78125q-0.15625 0.09375 -0.328125 0.09375q-0.3125 0 -0.546875 -0.234375q-0.21875 -0.25 -0.21875 -0.53125q0 -0.171875 0.109375 -0.328125q0.109375 -0.171875 0.265625 -0.265625l4.0625 -2.453125q0.234375 -0.140625 0.578125 -0.09375zm9.976379 6.171875q1.421875 0 2.5625 0.765625q1.140625 0.765625 1.765625 2.046875q0.640625 1.265625 0.640625 2.671875q0 1.421875 -0.6875 2.65625q-0.671875 1.234375 -1.875 1.984375q-1.203125 0.734375 -2.6875 0.734375q-1.796875 0 -3.046875 -0.828125q-1.25 -0.84375 -1.875 -2.203125q-0.609375 -1.375 -0.609375 -2.96875q0 -2.03125 0.859375 -4.375q0.875 -2.34375 2.53125 -4.296875q1.65625 -1.953125 3.9375 -2.8125q0.1875 -0.046875 0.3125 -0.046875q0.3125 0 0.53125 0.1875q0.21875 0.1875 0.21875 0.546875q0 0.5 -0.578125 0.703125q-1.921875 0.78125 -3.625 2.796875q-1.6875 2.0 -2.3125 4.25q0.71875 -0.828125 1.734375 -1.3125q1.03125 -0.5 2.203125 -0.5zm-0.328125 9.46875q1.671875 0 2.75 -1.109375q1.078125 -1.125 1.078125 -2.875q0 -1.078125 -0.4375 -2.015625q-0.4375 -0.9375 -1.28125 -1.5q-0.84375 -0.578125 -2.0 -0.578125q-1.25 0 -2.1875 0.5625q-0.921875 0.5625 -1.4375 1.515625q-0.5 0.9375 -0.5 2.09375q0 1.046875 0.484375 1.9375q0.484375 0.890625 1.390625 1.4375q0.90625 0.53125 2.140625 0.53125z"
       fill-rule="nonzero"
       id="path167" />
    <path
       fill="#000000"
       d="m1161.079 443.4857q0.265625 0.015625 0.4375 0.21875q0.1875 0.203125 0.1875 0.5l0 15.359375q0 0.3125 -0.234375 0.515625q-0.234375 0.203125 -0.5625 0.203125q-0.3125 0 -0.53125 -0.203125q-0.21875 -0.203125 -0.21875 -0.515625l0 -14.046875l-3.0 1.78125q-0.15625 0.09375 -0.328125 0.09375q-0.3125 0 -0.546875 -0.234375q-0.21875 -0.25 -0.21875 -0.53125q0 -0.171875 0.109375 -0.328125q0.109375 -0.171875 0.265625 -0.265625l4.0625 -2.453125q0.234375 -0.140625 0.578125 -0.09375zm13.820068 0q0.328125 0 0.5 0.1875q0.1875 0.1875 0.1875 0.484375q0 0.109375 -0.0625 0.328125l-6.609375 15.390625q-0.09375 0.21875 -0.28125 0.359375q-0.1875 0.125 -0.40625 0.125q-0.28125 0 -0.515625 -0.1875q-0.234375 -0.203125 -0.234375 -0.484375q0 -0.203125 0.078125 -0.359375l6.21875 -14.484375l-7.703125 0q-0.296875 0 -0.5 -0.1875q-0.203125 -0.1875 -0.203125 -0.5q0 -0.296875 0.203125 -0.484375q0.203125 -0.1875 0.5 -0.1875l8.828125 0z"
       fill-rule="nonzero"
       id="path169" />
    <path
       fill="#000000"
       d="m105.38108 546.1681q0.265625 0.015625 0.4375 0.21875q0.1875 0.203125 0.1875 0.5l0 15.359375q0 0.3125 -0.234375 0.515625q-0.234375 0.203125 -0.5625 0.203125q-0.3125 0 -0.53125 -0.203125q-0.21875 -0.203125 -0.21875 -0.515625l0 -14.046875l-3.0 1.78125q-0.15625 0.09375 -0.328125 0.09375q-0.3125 0 -0.546875 -0.234375q-0.21875 -0.25 -0.21875 -0.53125q0 -0.171875 0.109375 -0.328125q0.109375 -0.171875 0.265625 -0.265625l4.0625 -2.453125q0.234375 -0.140625 0.578125 -0.09375zm12.070099 8.25q1.203125 0.578125 1.953125 1.65625q0.75 1.0625 0.75 2.40625q0 1.265625 -0.6875 2.34375q-0.671875 1.078125 -1.859375 1.703125q-1.1875 0.625 -2.609375 0.625q-1.40625 0 -2.59375 -0.625q-1.171875 -0.625 -1.859375 -1.703125q-0.6875 -1.078125 -0.6875 -2.34375q0 -1.390625 0.75 -2.421875q0.75 -1.03125 1.890625 -1.609375q-0.953125 -0.515625 -1.609375 -1.5q-0.640625 -1.0 -0.640625 -2.21875q0 -1.28125 0.625 -2.3125q0.640625 -1.046875 1.734375 -1.640625q1.09375 -0.609375 2.390625 -0.609375q1.296875 0 2.390625 0.609375q1.09375 0.59375 1.71875 1.640625q0.625 1.03125 0.625 2.3125q0 1.25 -0.671875 2.203125q-0.65625 0.953125 -1.609375 1.484375zm-2.453125 -6.890625q-1.46875 0 -2.375 0.890625q-0.90625 0.890625 -0.90625 2.3125q0 0.9375 0.453125 1.671875q0.453125 0.71875 1.203125 1.125q0.765625 0.40625 1.625 0.40625q0.859375 0 1.609375 -0.40625q0.765625 -0.40625 1.203125 -1.125q0.453125 -0.734375 0.453125 -1.671875q0 -1.421875 -0.921875 -2.3125q-0.90625 -0.890625 -2.34375 -0.890625zm0 14.234375q1.640625 0 2.671875 -0.921875q1.03125 -0.921875 1.03125 -2.359375q0 -0.9375 -0.515625 -1.703125q-0.5 -0.765625 -1.359375 -1.203125q-0.84375 -0.453125 -1.828125 -0.453125q-0.984375 0 -1.828125 0.453125q-0.828125 0.4375 -1.34375 1.203125q-0.5 0.765625 -0.5 1.703125q0 1.4375 1.015625 2.359375q1.03125 0.921875 2.65625 0.921875z"
       fill-rule="nonzero"
       id="path171" />
    <path
       fill="#000000"
       d="m281.38074 546.1681q0.265625 0.015625 0.4375 0.21875q0.1875 0.203125 0.1875 0.5l0 15.359375q0 0.3125 -0.234375 0.515625q-0.234375 0.203125 -0.5625 0.203125q-0.3125 0 -0.53125 -0.203125q-0.21875 -0.203125 -0.21875 -0.515625l0 -14.046875l-3.0 1.78125q-0.15625 0.09375 -0.328125 0.09375q-0.3125 0 -0.546875 -0.234375q-0.21875 -0.25 -0.21875 -0.53125q0 -0.171875 0.109375 -0.328125q0.109375 -0.171875 0.265625 -0.265625l4.0625 -2.453125q0.234375 -0.140625 0.578125 -0.09375zm9.445099 -0.265625q1.78125 0 3.03125 0.84375q1.25 0.828125 1.859375 2.203125q0.609375 1.375 0.609375 2.953125q0 2.015625 -0.859375 4.296875q-0.84375 2.28125 -2.515625 4.171875q-1.65625 1.890625 -3.9375 2.765625q-0.203125 0.046875 -0.296875 0.046875q-0.3125 0 -0.546875 -0.21875q-0.21875 -0.21875 -0.21875 -0.53125q0 -0.5 0.578125 -0.6875q1.96875 -0.84375 3.625 -2.703125q1.671875 -1.859375 2.28125 -4.046875q-0.703125 0.796875 -1.71875 1.265625q-1.015625 0.46875 -2.203125 0.46875q-1.40625 0 -2.546875 -0.75q-1.125 -0.765625 -1.78125 -2.015625q-0.640625 -1.265625 -0.640625 -2.6875q0 -1.421875 0.6875 -2.65625q0.6875 -1.234375 1.890625 -1.96875q1.21875 -0.75 2.703125 -0.75zm-0.0625 9.4375q1.25 0 2.171875 -0.546875q0.9375 -0.5625 1.421875 -1.5q0.5 -0.953125 0.5 -2.09375q0 -1.046875 -0.484375 -1.9375q-0.46875 -0.890625 -1.390625 -1.421875q-0.90625 -0.546875 -2.125 -0.546875q-1.109375 0 -1.96875 0.515625q-0.859375 0.5 -1.359375 1.40625q-0.484375 0.90625 -0.484375 2.0625q0 1.078125 0.421875 2.0q0.4375 0.921875 1.28125 1.5q0.84375 0.5625 2.015625 0.5625z"
       fill-rule="nonzero"
       id="path173" />
    <path
       fill="#000000"
       d="m460.61188 561.57434q0.296875 0 0.5 0.203125q0.203125 0.203125 0.203125 0.484375q0 0.3125 -0.203125 0.515625q-0.203125 0.1875 -0.5 0.1875l-9.0 0q-0.328125 0 -0.546875 -0.1875q-0.21875 -0.203125 -0.21875 -0.53125q0 -0.265625 0.1875 -0.5l5.546875 -6.125q1.34375 -1.4375 1.984375 -2.578125q0.65625 -1.140625 0.65625 -2.25q0 -1.625 -0.984375 -2.5625q-0.984375 -0.9375 -2.734375 -0.9375q-1.171875 0 -2.09375 0.5625q-0.921875 0.5625 -1.390625 1.71875q-0.265625 0.4375 -0.625 0.4375q-0.25 0 -0.5 -0.1875q-0.234375 -0.203125 -0.234375 -0.4375q0 -0.15625 0.09375 -0.34375q0.09375 -0.1875 0.234375 -0.375q0.625 -1.296875 1.875 -2.015625q1.25 -0.734375 2.734375 -0.734375q2.421875 0 3.78125 1.328125q1.375 1.3125 1.375 3.453125q0 1.328125 -0.71875 2.703125q-0.71875 1.375 -2.375 3.203125l-4.40625 4.96875l7.359375 0zm8.904846 1.625q-1.890625 0 -3.1875 -1.125q-1.296875 -1.125 -1.96875 -3.078125q-0.65625 -1.953125 -0.65625 -4.4375q0 -2.484375 0.640625 -4.421875q0.65625 -1.953125 1.96875 -3.078125q1.3125 -1.140625 3.203125 -1.140625q1.90625 0 3.203125 1.125q1.3125 1.109375 1.96875 3.078125q0.65625 1.953125 0.65625 4.4375q0 2.484375 -0.65625 4.4375q-0.65625 1.953125 -1.96875 3.078125q-1.296875 1.125 -3.203125 1.125zm0 -1.484375q2.0625 0 3.171875 -1.921875q1.125 -1.9375 1.125 -5.234375q0 -3.3125 -1.125 -5.234375q-1.109375 -1.9375 -3.171875 -1.9375q-2.03125 0 -3.15625 1.9375q-1.109375 1.921875 -1.109375 5.234375q0 3.296875 1.109375 5.234375q1.125 1.921875 3.15625 1.921875z"
       fill-rule="nonzero"
       id="path175" />
    <path
       fill="#000000"
       d="m639.6115 561.57434q0.296875 0 0.5 0.203125q0.203125 0.203125 0.203125 0.484375q0 0.3125 -0.203125 0.515625q-0.203125 0.1875 -0.5 0.1875l-9.0 0q-0.328125 0 -0.546875 -0.1875q-0.21875 -0.203125 -0.21875 -0.53125q0 -0.265625 0.1875 -0.5l5.546875 -6.125q1.34375 -1.4375 1.984375 -2.578125q0.65625 -1.140625 0.65625 -2.25q0 -1.625 -0.984375 -2.5625q-0.984375 -0.9375 -2.734375 -0.9375q-1.171875 0 -2.09375 0.5625q-0.921875 0.5625 -1.390625 1.71875q-0.265625 0.4375 -0.625 0.4375q-0.25 0 -0.5 -0.1875q-0.234375 -0.203125 -0.234375 -0.4375q0 -0.15625 0.09375 -0.34375q0.09375 -0.1875 0.234375 -0.375q0.625 -1.296875 1.875 -2.015625q1.25 -0.734375 2.734375 -0.734375q2.421875 0 3.78125 1.328125q1.375 1.3125 1.375 3.453125q0 1.328125 -0.71875 2.703125q-0.71875 1.375 -2.375 3.203125l-4.40625 4.96875l7.359375 0zm6.920471 -15.40625q0.265625 0.015625 0.4375 0.21875q0.1875 0.203125 0.1875 0.5l0 15.359375q0 0.3125 -0.234375 0.515625q-0.234375 0.203125 -0.5625 0.203125q-0.3125 0 -0.53125 -0.203125q-0.21875 -0.203125 -0.21875 -0.515625l0 -14.046875l-3.0 1.78125q-0.15625 0.09375 -0.328125 0.09375q-0.3125 0 -0.546875 -0.234375q-0.21875 -0.25 -0.21875 -0.53125q0 -0.171875 0.109375 -0.328125q0.109375 -0.171875 0.265625 -0.265625l4.0625 -2.453125q0.234375 -0.140625 0.578125 -0.09375z"
       fill-rule="nonzero"
       id="path177" />
    <path
       fill="#000000"
       d="m812.6592 561.57434q0.296875 0 0.5 0.203125q0.203125 0.203125 0.203125 0.484375q0 0.3125 -0.203125 0.515625q-0.203125 0.1875 -0.5 0.1875l-9.0 0q-0.328125 0 -0.546875 -0.1875q-0.21875 -0.203125 -0.21875 -0.53125q0 -0.265625 0.1875 -0.5l5.546875 -6.125q1.34375 -1.4375 1.984375 -2.578125q0.65625 -1.140625 0.65625 -2.25q0 -1.625 -0.984375 -2.5625q-0.984375 -0.9375 -2.734375 -0.9375q-1.171875 0 -2.09375 0.5625q-0.921875 0.5625 -1.390625 1.71875q-0.265625 0.4375 -0.625 0.4375q-0.25 0 -0.5 -0.1875q-0.234375 -0.203125 -0.234375 -0.4375q0 -0.15625 0.09375 -0.34375q0.09375 -0.1875 0.234375 -0.375q0.625 -1.296875 1.875 -2.015625q1.25 -0.734375 2.734375 -0.734375q2.421875 0 3.78125 1.328125q1.375 1.3125 1.375 3.453125q0 1.328125 -0.71875 2.703125q-0.71875 1.375 -2.375 3.203125l-4.40625 4.96875l7.359375 0zm13.607971 0q0.296875 0 0.5 0.203125q0.203125 0.203125 0.203125 0.484375q0 0.3125 -0.203125 0.515625q-0.203125 0.1875 -0.5 0.1875l-9.0 0q-0.328125 0 -0.546875 -0.1875q-0.21875 -0.203125 -0.21875 -0.53125q0 -0.265625 0.1875 -0.5l5.546875 -6.125q1.34375 -1.4375 1.984375 -2.578125q0.65625 -1.140625 0.65625 -2.25q0 -1.625 -0.984375 -2.5625q-0.984375 -0.9375 -2.734375 -0.9375q-1.171875 0 -2.09375 0.5625q-0.921875 0.5625 -1.390625 1.71875q-0.265625 0.4375 -0.625 0.4375q-0.25 0 -0.5 -0.1875q-0.234375 -0.203125 -0.234375 -0.4375q0 -0.15625 0.09375 -0.34375q0.09375 -0.1875 0.234375 -0.375q0.625 -1.296875 1.875 -2.015625q1.25 -0.734375 2.734375 -0.734375q2.421875 0 3.78125 1.328125q1.375 1.3125 1.375 3.453125q0 1.328125 -0.71875 2.703125q-0.71875 1.375 -2.375 3.203125l-4.40625 4.96875l7.359375 0z"
       fill-rule="nonzero"
       id="path179" />
    <path
       fill="#000000"
       d="m989.0788 561.57434q0.296875 0 0.5 0.203125q0.203125 0.203125 0.203125 0.484375q0 0.3125 -0.203125 0.515625q-0.203125 0.1875 -0.5 0.1875l-9.0 0q-0.328125 0 -0.546875 -0.1875q-0.21875 -0.203125 -0.21875 -0.53125q0 -0.265625 0.1875 -0.5l5.546875 -6.125q1.34375 -1.4375 1.984375 -2.578125q0.65625 -1.140625 0.65625 -2.25q0 -1.625 -0.984375 -2.5625q-0.984375 -0.9375 -2.734375 -0.9375q-1.171875 0 -2.09375 0.5625q-0.921875 0.5625 -1.390625 1.71875q-0.265625 0.4375 -0.625 0.4375q-0.25 0 -0.5 -0.1875q-0.234375 -0.203125 -0.234375 -0.4375q0 -0.15625 0.09375 -0.34375q0.09375 -0.1875 0.234375 -0.375q0.625 -1.296875 1.875 -2.015625q1.25 -0.734375 2.734375 -0.734375q2.421875 0 3.78125 1.328125q1.375 1.3125 1.375 3.453125q0 1.328125 -0.71875 2.703125q-0.71875 1.375 -2.375 3.203125l-4.40625 4.96875l7.359375 0zm7.873596 -9.234375q1.34375 0 2.5 0.625q1.171875 0.609375 1.875 1.8125q0.71875 1.203125 0.71875 2.828125q0 1.640625 -0.78125 2.921875q-0.78125 1.265625 -2.125 1.96875q-1.34375 0.703125 -2.984375 0.703125q-1.03125 0 -1.984375 -0.328125q-0.953125 -0.34375 -1.625 -1.015625q-0.34375 -0.234375 -0.34375 -0.578125q0 -0.28125 0.21875 -0.53125q0.21875 -0.25 0.5 -0.25q0.296875 0 0.59375 0.265625q1.015625 1.078125 2.796875 1.078125q1.140625 0 2.125 -0.53125q0.984375 -0.53125 1.5625 -1.484375q0.578125 -0.96875 0.578125 -2.15625q0 -1.328125 -0.59375 -2.21875q-0.578125 -0.890625 -1.53125 -1.296875q-0.953125 -0.421875 -2.0 -0.421875q-0.296875 0 -0.75 0.078125q-0.453125 0.078125 -0.578125 0.078125q-0.28125 0 -0.46875 -0.203125q-0.171875 -0.203125 -0.171875 -0.515625q0 -0.3125 0.234375 -0.546875l4.59375 -5.09375l-6.671875 0q-0.296875 0 -0.5 -0.1875q-0.203125 -0.1875 -0.203125 -0.5q0 -0.296875 0.203125 -0.484375q0.203125 -0.1875 0.5 -0.1875l8.0625 0q0.375 0 0.546875 0.234375q0.1875 0.21875 0.1875 0.5q0 0.296875 -0.234375 0.53125l-4.390625 4.90625l0.140625 0z"
       fill-rule="nonzero"
       id="path181" />
    <path
       fill="#000000"
       d="m1164.5024 561.57434q0.296875 0 0.5 0.203125q0.203125 0.203125 0.203125 0.484375q0 0.3125 -0.203125 0.515625q-0.203125 0.1875 -0.5 0.1875l-9.0 0q-0.328125 0 -0.546875 -0.1875q-0.21875 -0.203125 -0.21875 -0.53125q0 -0.265625 0.1875 -0.5l5.546875 -6.125q1.34375 -1.4375 1.984375 -2.578125q0.65625 -1.140625 0.65625 -2.25q0 -1.625 -0.984375 -2.5625q-0.984375 -0.9375 -2.734375 -0.9375q-1.171875 0 -2.09375 0.5625q-0.921875 0.5625 -1.390625 1.71875q-0.265625 0.4375 -0.625 0.4375q-0.25 0 -0.5 -0.1875q-0.234375 -0.203125 -0.234375 -0.4375q0 -0.15625 0.09375 -0.34375q0.09375 -0.1875 0.234375 -0.375q0.625 -1.296875 1.875 -2.015625q1.25 -0.734375 2.734375 -0.734375q2.421875 0 3.78125 1.328125q1.375 1.3125 1.375 3.453125q0 1.328125 -0.71875 2.703125q-0.71875 1.375 -2.375 3.203125l-4.40625 4.96875l7.359375 0zm13.42041 -5.140625q0.28125 0 0.484375 0.203125q0.21875 0.1875 0.21875 0.46875q0 0.296875 -0.21875 0.484375q-0.203125 0.1875 -0.484375 0.1875l-1.609375 0l0 4.46875q0 0.3125 -0.21875 0.515625q-0.21875 0.203125 -0.53125 0.203125q-0.3125 0 -0.5 -0.203125q-0.1875 -0.203125 -0.1875 -0.515625l0 -4.46875l-7.0625 0q-0.28125 0 -0.5 -0.21875q-0.21875 -0.234375 -0.21875 -0.515625q0 -0.296875 0.171875 -0.484375l7.734375 -10.109375q0.1875 -0.28125 0.59375 -0.28125q0.3125 0 0.515625 0.203125q0.203125 0.203125 0.203125 0.515625l0 9.546875l1.609375 0zm-8.859375 0l5.8125 0l0 -7.671875l-5.8125 7.671875z"
       fill-rule="nonzero"
       id="path183" />
    <path
       fill="#000000"
       d="m109.45259 664.2568q0.296875 0 0.5 0.203125q0.203125 0.203125 0.203125 0.484375q0 0.3125 -0.203125 0.515625q-0.203125 0.1875 -0.5 0.1875l-9.0 0q-0.328125 0 -0.546875 -0.1875q-0.21875 -0.203125 -0.21875 -0.53125q0 -0.265625 0.1875 -0.5l5.546875 -6.125q1.34375 -1.4375 1.984375 -2.578125q0.65625 -1.140625 0.65625 -2.25q0 -1.625 -0.984375 -2.5625q-0.984375 -0.9375 -2.734375 -0.9375q-1.171875 0 -2.09375 0.5625q-0.921875 0.5625 -1.390625 1.71875q-0.265625 0.4375 -0.625 0.4375q-0.25 0 -0.5 -0.1875q-0.234375 -0.203125 -0.234375 -0.4375q0 -0.15625 0.09375 -0.34375q0.09375 -0.1875 0.234375 -0.375q0.625 -1.296875 1.875 -2.015625q1.25 -0.734375 2.734375 -0.734375q2.421875 0 3.78125 1.328125q1.375 1.3125 1.375 3.453125q0 1.328125 -0.71875 2.703125q-0.71875 1.375 -2.375 3.203125l-4.40625 4.96875l7.359375 0zm7.857956 -9.765625q1.53125 0 2.765625 0.6875q1.234375 0.671875 1.9375 1.921875q0.71875 1.234375 0.71875 2.765625q0 1.671875 -0.78125 3.015625q-0.78125 1.328125 -2.171875 2.078125q-1.390625 0.734375 -3.171875 0.734375q-1.0 0 -2.0 -0.328125q-1.0 -0.34375 -1.75 -0.96875q-0.140625 -0.09375 -0.234375 -0.265625q-0.078125 -0.1875 -0.078125 -0.359375q0 -0.234375 0.203125 -0.453125q0.21875 -0.234375 0.5 -0.234375q0.265625 0 0.53125 0.203125q0.625 0.484375 1.34375 0.75q0.734375 0.265625 1.484375 0.265625q1.375 0 2.4375 -0.546875q1.0625 -0.5625 1.65625 -1.5625q0.59375 -1.015625 0.59375 -2.28125q0 -1.828125 -1.1875 -2.9375q-1.171875 -1.125 -3.140625 -1.125q-0.75 0 -1.390625 0.21875q-0.625 0.21875 -1.421875 0.578125q-0.5625 0.28125 -0.734375 0.28125q-0.359375 0 -0.59375 -0.21875q-0.21875 -0.234375 -0.21875 -0.546875q0 -0.109375 0.015625 -0.1875l1.03125 -6.53125q0.046875 -0.234375 0.25 -0.40625q0.203125 -0.1875 0.5 -0.1875l7.21875 0q0.296875 0 0.5 0.203125q0.203125 0.203125 0.203125 0.515625q0 0.28125 -0.203125 0.484375q-0.203125 0.203125 -0.5 0.203125l-6.71875 0l-0.8125 4.96875q0.625 -0.3125 1.46875 -0.515625q0.859375 -0.21875 1.75 -0.21875z"
       fill-rule="nonzero"
       id="path185" />
    <path
       fill="#000000"
       d="m285.45224 664.2568q0.296875 0 0.5 0.203125q0.203125 0.203125 0.203125 0.484375q0 0.3125 -0.203125 0.515625q-0.203125 0.1875 -0.5 0.1875l-9.0 0q-0.328125 0 -0.546875 -0.1875q-0.21875 -0.203125 -0.21875 -0.53125q0 -0.265625 0.1875 -0.5l5.546875 -6.125q1.34375 -1.4375 1.984375 -2.578125q0.65625 -1.140625 0.65625 -2.25q0 -1.625 -0.984375 -2.5625q-0.984375 -0.9375 -2.734375 -0.9375q-1.171875 0 -2.09375 0.5625q-0.921875 0.5625 -1.390625 1.71875q-0.265625 0.4375 -0.625 0.4375q-0.25 0 -0.5 -0.1875q-0.234375 -0.203125 -0.234375 -0.4375q0 -0.15625 0.09375 -0.34375q0.09375 -0.1875 0.234375 -0.375q0.625 -1.296875 1.875 -2.015625q1.25 -0.734375 2.734375 -0.734375q2.421875 0 3.78125 1.328125q1.375 1.3125 1.375 3.453125q0 1.328125 -0.71875 2.703125q-0.71875 1.375 -2.375 3.203125l-4.40625 4.96875l7.359375 0zm8.904816 -9.234375q1.421875 0 2.5625 0.765625q1.140625 0.765625 1.765625 2.046875q0.640625 1.265625 0.640625 2.671875q0 1.421875 -0.6875 2.65625q-0.671875 1.234375 -1.875 1.984375q-1.203125 0.734375 -2.6875 0.734375q-1.796875 0 -3.046875 -0.828125q-1.25 -0.84375 -1.875 -2.203125q-0.609375 -1.375 -0.609375 -2.96875q0 -2.03125 0.859375 -4.375q0.875 -2.34375 2.53125 -4.296875q1.65625 -1.953125 3.9375 -2.8125q0.1875 -0.046875 0.3125 -0.046875q0.3125 0 0.53125 0.1875q0.21875 0.1875 0.21875 0.546875q0 0.5 -0.578125 0.703125q-1.921875 0.78125 -3.625 2.796875q-1.6875 2.0 -2.3125 4.25q0.71875 -0.828125 1.734375 -1.3125q1.03125 -0.5 2.203125 -0.5zm-0.328125 9.46875q1.671875 0 2.75 -1.109375q1.078125 -1.125 1.078125 -2.875q0 -1.078125 -0.4375 -2.015625q-0.4375 -0.9375 -1.28125 -1.5q-0.84375 -0.578125 -2.0 -0.578125q-1.25 0 -2.1875 0.5625q-0.921875 0.5625 -1.4375 1.515625q-0.5 0.9375 -0.5 2.09375q0 1.046875 0.484375 1.9375q0.484375 0.890625 1.390625 1.4375q0.90625 0.53125 2.140625 0.53125z"
       fill-rule="nonzero"
       id="path187" />
    <path
       fill="#000000"
       d="m461.5359 664.2568q0.296875 0 0.5 0.203125q0.203125 0.203125 0.203125 0.484375q0 0.3125 -0.203125 0.515625q-0.203125 0.1875 -0.5 0.1875l-9.0 0q-0.328125 0 -0.546875 -0.1875q-0.21875 -0.203125 -0.21875 -0.53125q0 -0.265625 0.1875 -0.5l5.546875 -6.125q1.34375 -1.4375 1.984375 -2.578125q0.65625 -1.140625 0.65625 -2.25q0 -1.625 -0.984375 -2.5625q-0.984375 -0.9375 -2.734375 -0.9375q-1.171875 0 -2.09375 0.5625q-0.921875 0.5625 -1.390625 1.71875q-0.265625 0.4375 -0.625 0.4375q-0.25 0 -0.5 -0.1875q-0.234375 -0.203125 -0.234375 -0.4375q0 -0.15625 0.09375 -0.34375q0.09375 -0.1875 0.234375 -0.375q0.625 -1.296875 1.875 -2.015625q1.25 -0.734375 2.734375 -0.734375q2.421875 0 3.78125 1.328125q1.375 1.3125 1.375 3.453125q0 1.328125 -0.71875 2.703125q-0.71875 1.375 -2.375 3.203125l-4.40625 4.96875l7.359375 0zm12.748566 -15.40625q0.328125 0 0.5 0.1875q0.1875 0.1875 0.1875 0.484375q0 0.109375 -0.0625 0.328125l-6.609375 15.390625q-0.09375 0.21875 -0.28125 0.359375q-0.1875 0.125 -0.40625 0.125q-0.28125 0 -0.515625 -0.1875q-0.234375 -0.203125 -0.234375 -0.484375q0 -0.203125 0.078125 -0.359375l6.21875 -14.484375l-7.703125 0q-0.296875 0 -0.5 -0.1875q-0.203125 -0.1875 -0.203125 -0.5q0 -0.296875 0.203125 -0.484375q0.203125 -0.1875 0.5 -0.1875l8.828125 0z"
       fill-rule="nonzero"
       id="path189" />
    <path
       fill="#000000"
       d="m636.8275 664.2568q0.296875 0 0.5 0.203125q0.203125 0.203125 0.203125 0.484375q0 0.3125 -0.203125 0.515625q-0.203125 0.1875 -0.5 0.1875l-9.0 0q-0.328125 0 -0.546875 -0.1875q-0.21875 -0.203125 -0.21875 -0.53125q0 -0.265625 0.1875 -0.5l5.546875 -6.125q1.34375 -1.4375 1.984375 -2.578125q0.65625 -1.140625 0.65625 -2.25q0 -1.625 -0.984375 -2.5625q-0.984375 -0.9375 -2.734375 -0.9375q-1.171875 0 -2.09375 0.5625q-0.921875 0.5625 -1.390625 1.71875q-0.265625 0.4375 -0.625 0.4375q-0.25 0 -0.5 -0.1875q-0.234375 -0.203125 -0.234375 -0.4375q0 -0.15625 0.09375 -0.34375q0.09375 -0.1875 0.234375 -0.375q0.625 -1.296875 1.875 -2.015625q1.25 -0.734375 2.734375 -0.734375q2.421875 0 3.78125 1.328125q1.375 1.3125 1.375 3.453125q0 1.328125 -0.71875 2.703125q-0.71875 1.375 -2.375 3.203125l-4.40625 4.96875l7.359375 0zm10.998596 -7.15625q1.203125 0.578125 1.953125 1.65625q0.75 1.0625 0.75 2.40625q0 1.265625 -0.6875 2.34375q-0.671875 1.078125 -1.859375 1.703125q-1.1875 0.625 -2.609375 0.625q-1.40625 0 -2.59375 -0.625q-1.171875 -0.625 -1.859375 -1.703125q-0.6875 -1.078125 -0.6875 -2.34375q0 -1.390625 0.75 -2.421875q0.75 -1.03125 1.890625 -1.609375q-0.953125 -0.515625 -1.609375 -1.5q-0.640625 -1.0 -0.640625 -2.21875q0 -1.28125 0.625 -2.3125q0.640625 -1.046875 1.734375 -1.640625q1.09375 -0.609375 2.390625 -0.609375q1.296875 0 2.390625 0.609375q1.09375 0.59375 1.71875 1.640625q0.625 1.03125 0.625 2.3125q0 1.25 -0.671875 2.203125q-0.65625 0.953125 -1.609375 1.484375zm-2.453125 -6.890625q-1.46875 0 -2.375 0.890625q-0.90625 0.890625 -0.90625 2.3125q0 0.9375 0.453125 1.671875q0.453125 0.71875 1.203125 1.125q0.765625 0.40625 1.625 0.40625q0.859375 0 1.609375 -0.40625q0.765625 -0.40625 1.203125 -1.125q0.453125 -0.734375 0.453125 -1.671875q0 -1.421875 -0.921875 -2.3125q-0.90625 -0.890625 -2.34375 -0.890625zm0 14.234375q1.640625 0 2.671875 -0.921875q1.03125 -0.921875 1.03125 -2.359375q0 -0.9375 -0.515625 -1.703125q-0.5 -0.765625 -1.359375 -1.203125q-0.84375 -0.453125 -1.828125 -0.453125q-0.984375 0 -1.828125 0.453125q-0.828125 0.4375 -1.34375 1.203125q-0.5 0.765625 -0.5 1.703125q0 1.4375 1.015625 2.359375q1.03125 0.921875 2.65625 0.921875z"
       fill-rule="nonzero"
       id="path191" />
    <path
       fill="#000000"
       d="m812.82715 664.2568q0.296875 0 0.5 0.203125q0.203125 0.203125 0.203125 0.484375q0 0.3125 -0.203125 0.515625q-0.203125 0.1875 -0.5 0.1875l-9.0 0q-0.328125 0 -0.546875 -0.1875q-0.21875 -0.203125 -0.21875 -0.53125q0 -0.265625 0.1875 -0.5l5.546875 -6.125q1.34375 -1.4375 1.984375 -2.578125q0.65625 -1.140625 0.65625 -2.25q0 -1.625 -0.984375 -2.5625q-0.984375 -0.9375 -2.734375 -0.9375q-1.171875 0 -2.09375 0.5625q-0.921875 0.5625 -1.390625 1.71875q-0.265625 0.4375 -0.625 0.4375q-0.25 0 -0.5 -0.1875q-0.234375 -0.203125 -0.234375 -0.4375q0 -0.15625 0.09375 -0.34375q0.09375 -0.1875 0.234375 -0.375q0.625 -1.296875 1.875 -2.015625q1.25 -0.734375 2.734375 -0.734375q2.421875 0 3.78125 1.328125q1.375 1.3125 1.375 3.453125q0 1.328125 -0.71875 2.703125q-0.71875 1.375 -2.375 3.203125l-4.40625 4.96875l7.359375 0zm8.373596 -15.671875q1.78125 0 3.03125 0.84375q1.25 0.828125 1.859375 2.203125q0.609375 1.375 0.609375 2.953125q0 2.015625 -0.859375 4.296875q-0.84375 2.28125 -2.515625 4.171875q-1.65625 1.890625 -3.9375 2.765625q-0.203125 0.046875 -0.296875 0.046875q-0.3125 0 -0.546875 -0.21875q-0.21875 -0.21875 -0.21875 -0.53125q0 -0.5 0.578125 -0.6875q1.96875 -0.84375 3.625 -2.703125q1.671875 -1.859375 2.28125 -4.046875q-0.703125 0.796875 -1.71875 1.265625q-1.015625 0.46875 -2.203125 0.46875q-1.40625 0 -2.546875 -0.75q-1.125 -0.765625 -1.78125 -2.015625q-0.640625 -1.265625 -0.640625 -2.6875q0 -1.421875 0.6875 -2.65625q0.6875 -1.234375 1.890625 -1.96875q1.21875 -0.75 2.703125 -0.75zm-0.0625 9.4375q1.25 0 2.171875 -0.546875q0.9375 -0.5625 1.421875 -1.5q0.5 -0.953125 0.5 -2.09375q0 -1.046875 -0.484375 -1.9375q-0.46875 -0.890625 -1.390625 -1.421875q-0.90625 -0.546875 -2.125 -0.546875q-1.109375 0 -1.96875 0.515625q-0.859375 0.5 -1.359375 1.40625q-0.484375 0.90625 -0.484375 2.0625q0 1.078125 0.421875 2.0q0.4375 0.921875 1.28125 1.5q0.84375 0.5625 2.015625 0.5625z"
       fill-rule="nonzero"
       id="path193" />
    <path
       fill="#000000"
       d="m983.0084 655.0224q1.34375 0 2.5 0.625q1.171875 0.609375 1.875 1.8125q0.71875 1.203125 0.71875 2.828125q0 1.640625 -0.78125 2.921875q-0.78125 1.265625 -2.125 1.96875q-1.34375 0.703125 -2.984375 0.703125q-1.03125 0 -1.984375 -0.328125q-0.953125 -0.34375 -1.625 -1.015625q-0.34375 -0.234375 -0.34375 -0.578125q0 -0.28125 0.21875 -0.53125q0.21875 -0.25 0.5 -0.25q0.296875 0 0.59375 0.265625q1.015625 1.078125 2.796875 1.078125q1.140625 0 2.125 -0.53125q0.984375 -0.53125 1.5625 -1.484375q0.578125 -0.96875 0.578125 -2.15625q0 -1.328125 -0.59375 -2.21875q-0.578125 -0.890625 -1.53125 -1.296875q-0.953125 -0.421875 -2.0 -0.421875q-0.296875 0 -0.75 0.078125q-0.453125 0.078125 -0.578125 0.078125q-0.28125 0 -0.46875 -0.203125q-0.171875 -0.203125 -0.171875 -0.515625q0 -0.3125 0.234375 -0.546875l4.59375 -5.09375l-6.671875 0q-0.296875 0 -0.5 -0.1875q-0.203125 -0.1875 -0.203125 -0.5q0 -0.296875 0.203125 -0.484375q0.203125 -0.1875 0.5 -0.1875l8.0625 0q0.375 0 0.546875 0.234375q0.1875 0.21875 0.1875 0.5q0 0.296875 -0.234375 0.53125l-4.390625 4.90625l0.140625 0zm13.51123 10.859375q-1.890625 0 -3.1875 -1.125q-1.296875 -1.125 -1.96875 -3.078125q-0.65625 -1.953125 -0.65625 -4.4375q0 -2.484375 0.640625 -4.421875q0.65625 -1.953125 1.96875 -3.078125q1.3125 -1.140625 3.203125 -1.140625q1.90625 0 3.203125 1.125q1.3125 1.109375 1.96875 3.078125q0.65625 1.953125 0.65625 4.4375q0 2.484375 -0.65625 4.4375q-0.65625 1.953125 -1.96875 3.078125q-1.296875 1.125 -3.203125 1.125zm0 -1.484375q2.0625 0 3.171875 -1.921875q1.125 -1.9375 1.125 -5.234375q0 -3.3125 -1.125 -5.234375q-1.109375 -1.9375 -3.171875 -1.9375q-2.03125 0 -3.15625 1.9375q-1.109375 1.921875 -1.109375 5.234375q0 3.296875 1.109375 5.234375q1.125 1.921875 3.15625 1.921875z"
       fill-rule="nonzero"
       id="path195" />
    <path
       fill="#000000"
       fill-opacity="0.0"
       d="m80.20473 -11.803151l1116.7559 0l0 82.614174l-1116.7559 0z"
       fill-rule="evenodd"
       id="path197" />
    <path
       fill="#000000"
       d="m568.3796 69.79372q-4.953125 0 -8.953125 -2.75q-4.0 -2.765625 -6.15625 -7.406246q-0.40625 -0.640625 -0.40625 -1.28125q0 -0.953125 0.75 -1.59375q0.765625 -0.640625 1.65625 -0.640625q1.265625 0 2.234375 1.359375q1.515625 3.4375 4.390625 5.484375q2.890625 2.0312462 6.484375 2.0312462q5.515625 0 8.953125 -3.3906212q3.453125 -3.40625 3.453125 -8.921875l0 -37.28125q0 -1.046875 0.71875 -1.71875q0.71875 -0.6875 1.84375 -0.6875q1.109375 0 1.78125 0.6875q0.6875 0.671875 0.6875 1.71875l0 37.28125q0 4.875 -2.234375 8.796875q-2.234375 3.9218712 -6.203125 6.124996q-3.953125 2.1875 -9.0 2.1875zm61.838074 -41.437496q1.046875 0 1.71875 0.6875q0.6875 0.671875 0.6875 1.71875l0 22.546875q0 7.84375 -4.40625 12.046871q-4.390625 4.203125 -12.15625 4.203125q-7.671875 0 -12.046875 -4.203125q-4.359375 -4.203121 -4.359375 -12.046871l0 -22.546875q0 -1.046875 0.6875 -1.71875q0.6875 -0.6875 1.71875 -0.6875q1.046875 0 1.71875 0.6875q0.6875 0.671875 0.6875 1.71875l0 22.546875q0 5.765625 3.03125 8.765625q3.046875 2.9999962 8.5625 2.9999962q5.59375 0 8.671875 -2.9999962q3.09375 -3.0 3.09375 -8.765625l0 -22.546875q0 -1.046875 0.671875 -1.71875q0.6875 -0.6875 1.71875 -0.6875zm34.23871 -1.203125q7.453125 0 10.921875 4.359375q3.484375 4.359375 3.484375 11.5625l0 23.515621q0 1.046875 -0.71875 1.734375q-0.71875 0.671875 -1.6875 0.671875q-1.03125 0 -1.71875 -0.671875q-0.671875 -0.6875 -0.671875 -1.734375l0 -23.281246q0 -5.1875 -2.609375 -8.421875q-2.59375 -3.25 -8.03125 -3.25q-3.4375 0 -6.53125 1.609375q-3.078125 1.59375 -5.0 4.28125q-1.90625 2.671875 -1.90625 5.78125l0 23.281246q0 1.046875 -0.6875 1.734375q-0.671875 0.671875 -1.71875 0.671875q-1.03125 0 -1.71875 -0.671875q-0.6875 -0.6875 -0.6875 -1.734375l0 -35.82812q0 -1.046875 0.6875 -1.71875q0.6875 -0.6875 1.71875 -0.6875q1.046875 0 1.71875 0.6875q0.6875 0.671875 0.6875 1.71875l0 4.390625q2.15625 -3.4375 6.1875 -5.71875q4.046875 -2.28125 8.28125 -2.28125zm61.52124 19.046875q0 0.953125 -0.71875 1.640625q-0.71875 0.671875 -1.671875 0.671875l-30.25 0q0 4.796875 1.953125 8.609375q1.96875 3.796875 5.609375 6.0q3.640625 2.1874962 8.609375 2.1874962q3.828125 0 6.859375 -1.5937462q3.046875 -1.59375 4.890625 -4.078125q0.890625 -0.71875 1.6875 -0.71875q0.796875 0 1.4375 0.640625q0.640625 0.640625 0.640625 1.4375q0 0.875 -0.796875 1.6875q-2.5625 3.1093712 -6.453125 5.109371q-3.875 2.0 -8.1875 2.0q-6.171875 0 -10.890625 -2.640625q-4.71875 -2.640625 -7.359375 -7.390621q-2.640625 -4.765625 -2.640625 -11.0q0 -6.5625 2.59375 -11.484375q2.609375 -4.921875 6.921875 -7.515625q4.328125 -2.609375 9.203125 -2.609375q4.8125 0 9.0 2.25q4.203125 2.234375 6.84375 6.5625q2.640625 4.3125 2.71875 10.234375zm-18.5625 -14.40625q-4.625 0 -8.59375 3.203125q-3.953125 3.203125 -5.078125 9.203125l27.28125 0l0 -0.640625q-0.40625 -3.609375 -2.40625 -6.28125q-2.0 -2.6875 -5.0 -4.078125q-3.0 -1.40625 -6.203125 -1.40625z"
       fill-rule="nonzero"
       id="path199" />
  </g>
</svg>
