<?xml version="1.0" encoding="UTF-8" standalone="no"?>
<svg
   xmlns:dc="http://purl.org/dc/elements/1.1/"
   xmlns:cc="http://creativecommons.org/ns#"
   xmlns:rdf="http://www.w3.org/1999/02/22-rdf-syntax-ns#"
   xmlns:svg="http://www.w3.org/2000/svg"
   xmlns="http://www.w3.org/2000/svg"
   xmlns:sodipodi="http://sodipodi.sourceforge.net/DTD/sodipodi-0.dtd"
   xmlns:inkscape="http://www.inkscape.org/namespaces/inkscape"
   version="1.1"
   viewBox="0 0 446.80844 164.62608"
   stroke-miterlimit="10"
   id="svg51"
   sodipodi:docname="legend.svg"
   inkscape:version="0.92.0 r15299"
   width="446.80844"
   height="164.62607"
   style="fill:none;stroke:none;stroke-linecap:square;stroke-miterlimit:10">
  <metadata
     id="metadata57">
    <rdf:RDF>
      <cc:Work
         rdf:about="">
        <dc:format>image/svg+xml</dc:format>
        <dc:type
           rdf:resource="http://purl.org/dc/dcmitype/StillImage" />
        <dc:title />
      </cc:Work>
    </rdf:RDF>
  </metadata>
  <defs
     id="defs55" />
  <sodipodi:namedview
     pagecolor="#ffffff"
     bordercolor="#666666"
     borderopacity="1"
     objecttolerance="10"
     gridtolerance="10"
     guidetolerance="10"
     inkscape:pageopacity="0"
     inkscape:pageshadow="2"
     inkscape:window-width="1366"
     inkscape:window-height="719"
     id="namedview53"
     showgrid="false"
     inkscape:zoom="1.775"
     inkscape:cx="243.64918"
     inkscape:cy="69.710672"
     inkscape:window-x="-8"
     inkscape:window-y="333"
     inkscape:window-maximized="1"
     inkscape:current-layer="g49"
     fit-margin-top="0"
     fit-margin-left="0"
     fit-margin-right="0"
     fit-margin-bottom="0" />
  <clipPath
     id="p17.0">
    <path
       d="M 0,0 H 1280 V 720 H 0 Z"
       id="path2"
       inkscape:connector-curvature="0"
       style="clip-rule:nonzero" />
  </clipPath>
  <g
     clip-path="url(#p17.0)"
     id="g49"
     transform="translate(-406.76056,-264.22537)">
    <path
       d="M 407.60939,265.16637 H 854.39852 V 430.93226 H 407.60939 Z"
       id="path7"
       inkscape:connector-curvature="0"
       style="fill:#e9eff7;fill-rule:nonzero;stroke-width:1.05687368;shape-rendering:crispEdges" />
    <path
       d="m 407.60939,265.16637 h 223.39457 v 41.1748 H 407.60939 Z"
       id="path9"
       style="fill:#ffffff;fill-rule:nonzero;stroke-width:1.05687368;shape-rendering:crispEdges"
       inkscape:connector-curvature="0" />
    <path
       d="M 631.00395,265.16637 H 854.3985 v 41.1748 H 631.00395 Z"
       id="path11"
       inkscape:connector-curvature="0"
       style="fill:#ffffff;fill-rule:nonzero;stroke-width:1.05687368;shape-rendering:crispEdges" />
    <path
       d="m 407.60939,306.34117 h 223.39457 v 41.53037 H 407.60939 Z"
       id="path13"
       inkscape:connector-curvature="0"
       style="fill:#99cc00;fill-rule:nonzero;stroke-width:1.05687368;shape-rendering:crispEdges" />
    <path
       d="M 631.00395,306.34117 H 854.3985 v 41.53037 H 631.00395 Z"
       id="path15"
       inkscape:connector-curvature="0"
       style="fill:#99cc00;fill-rule:nonzero;stroke-width:1.05687368;shape-rendering:crispEdges" />
    <path
       d="M 407.60939,347.87153 H 631.00396 V 389.4019 H 407.60939 Z"
       id="path17"
       inkscape:connector-curvature="0"
       style="fill:#ff9900;fill-rule:nonzero;stroke-width:1.05687368;shape-rendering:crispEdges" />
    <path
       d="M 631.00395,347.87153 H 854.3985 V 389.4019 H 631.00395 Z"
       id="path19"
       inkscape:connector-curvature="0"
       style="fill:#ff9900;fill-rule:nonzero;stroke-width:1.05687368;shape-rendering:crispEdges" />
    <path
       d="m 407.60939,389.40191 h 223.39457 v 41.53036 H 407.60939 Z"
       id="path21"
       inkscape:connector-curvature="0"
       style="fill:#0033cc;fill-rule:nonzero;stroke-width:1.05687368;shape-rendering:crispEdges" />
    <path
       d="M 631.00395,389.40191 H 854.3985 v 41.53036 H 631.00395 Z"
       id="path23"
       inkscape:connector-curvature="0"
       style="fill:#0033cc;fill-rule:nonzero;stroke-width:1.05687368;shape-rendering:crispEdges" />
    <path
       d="M 407.60939,264.63445 V 431.46422"
       id="path25"
       inkscape:connector-curvature="0"
       style="fill-rule:nonzero;stroke:#ffffff;stroke-width:1.40916514;stroke-linecap:butt" />
    <path
       d="M 631.00395,264.63445 V 431.46422"
       id="path27"
       inkscape:connector-curvature="0"
       style="fill-rule:nonzero;stroke:#ffffff;stroke-width:1.40916514;stroke-linecap:butt" />
    <path
       d="M 854.3985,264.63445 V 431.46422"
       id="path29"
       inkscape:connector-curvature="0"
       style="fill-rule:nonzero;stroke:#ffffff;stroke-width:1.40916514;stroke-linecap:butt" />
    <path
       d="M 407.08717,265.16637 H 854.92073"
       id="path31"
       inkscape:connector-curvature="0"
       style="fill-rule:nonzero;stroke:#ffffff;stroke-width:1.40916514;stroke-linecap:butt" />
    <path
       d="M 407.08717,306.34117 H 854.92073"
       id="path33"
       style="fill:#000000;fill-rule:nonzero;stroke:#ffffff;stroke-width:4.22749472;stroke-linecap:butt"
       inkscape:connector-curvature="0" />
    <path
       d="M 407.08717,347.87153 H 854.92073"
       id="path35"
       style="fill:#000000;fill-rule:nonzero;stroke:#ffffff;stroke-width:1.40916514;stroke-linecap:butt"
       inkscape:connector-curvature="0" />
    <path
       d="M 407.08717,389.40191 H 854.92073"
       id="path37"
       inkscape:connector-curvature="0"
       style="fill-rule:nonzero;stroke:#ffffff;stroke-width:1.40916514;stroke-linecap:butt" />
    <path
       d="M 407.08717,430.93226 H 854.92073"
       id="path39"
       inkscape:connector-curvature="0"
       style="fill-rule:nonzero;stroke:#ffffff;stroke-width:1.40916514;stroke-linecap:butt" />
    <path
       d="m 427.48909,292.62593 q 0,0.38335 -0.0327,0.65002 -0.0327,0.24999 -0.0981,0.41666 -0.0491,0.16667 -0.14725,0.25001 -0.0817,0.0667 -0.2127,0.0667 h -7.28106 q -0.39268,0 -0.67084,-0.23334 -0.27815,-0.25001 -0.27815,-0.80001 v -14.70012 q 0,-0.11667 0.0817,-0.21668 0.0817,-0.0999 0.2618,-0.16666 0.17997,-0.0666 0.49085,-0.0999 0.31087,-0.0332 0.78537,-0.0332 0.47449,0 0.78537,0.0332 0.31087,0.0333 0.49086,0.0999 0.17997,0.0666 0.26179,0.16666 0.0817,0.0999 0.0817,0.21668 v 13.01678 h 4.9904 q 0.13088,0 0.2127,0.0666 0.0981,0.0667 0.14725,0.23333 0.0655,0.15002 0.0981,0.41668 0.0327,0.25 0.0327,0.61666 z m 11.83783,-4.95003 q 0,0.58334 -0.26179,0.86666 -0.24543,0.26669 -0.6872,0.26669 h -6.65929 q 0,0.71666 0.16362,1.3 0.16362,0.56667 0.52357,0.98334 0.35997,0.4 0.93264,0.61668 0.57266,0.21665 1.3744,0.21665 0.80172,0 1.40713,-0.11666 0.62175,-0.13332 1.06352,-0.26666 0.45812,-0.15 0.75264,-0.26666 0.29452,-0.11668 0.4745,-0.11668 0.11453,0 0.17997,0.05 0.0817,0.0332 0.1309,0.15 0.0491,0.11667 0.0655,0.31668 0.0164,0.19999 0.0164,0.51665 0,0.28335 -0.0164,0.48335 0,0.18334 -0.0327,0.31666 -0.0164,0.13334 -0.0655,0.23334 -0.0491,0.0998 -0.13089,0.18334 -0.0817,0.0833 -0.44176,0.23334 -0.35997,0.15 -0.91627,0.3 -0.53994,0.15 -1.25987,0.24999 -0.70355,0.0999 -1.52165,0.0999 -1.45622,0 -2.55245,-0.36667 -1.09626,-0.38333 -1.83254,-1.13334 -0.73629,-0.76667 -1.09626,-1.93336 -0.35996,-1.16667 -0.35996,-2.73334 0,-1.48335 0.37633,-2.6667 0.37631,-1.2 1.09624,-2.03334 0.7363,-0.83335 1.76709,-1.26668 1.0308,-0.43334 2.33975,-0.43334 1.37441,0 2.33976,0.41667 0.98171,0.4 1.60346,1.13334 0.63812,0.73335 0.93264,1.73335 0.29451,1.00001 0.29451,2.1667 z m -2.99422,-0.90001 q 0.0327,-1.31668 -0.52359,-2.06668 -0.5563,-0.76669 -1.73436,-0.76669 -0.58903,0 -1.0308,0.23335 -0.42541,0.21666 -0.71992,0.59999 -0.27815,0.38334 -0.44177,0.90002 -0.14725,0.51666 -0.16362,1.10001 z m 15.40064,-3.5667 q 0,0.60002 -0.14725,0.88334 -0.1309,0.28334 -0.32724,0.28334 h -1.29261 q 0.27818,0.3 0.39271,0.68333 0.11453,0.38335 0.11453,0.80001 0,0.96668 -0.32723,1.73334 -0.31089,0.75002 -0.91628,1.26669 -0.58903,0.51667 -1.42349,0.80001 -0.83445,0.26666 -1.86526,0.26666 -0.53994,0 -1.01443,-0.13333 -0.4745,-0.13333 -0.73628,-0.31666 -0.14727,0.16666 -0.2618,0.4 -0.11454,0.21666 -0.11454,0.50001 0,0.35 0.31088,0.58333 0.31087,0.23333 0.88355,0.26666 l 2.65063,0.0999 q 0.93262,0.0333 1.66891,0.26668 0.73627,0.23334 1.22715,0.65002 0.49085,0.41665 0.75264,1.00001 0.27816,0.58332 0.27816,1.35 0,0.81667 -0.35996,1.55001 -0.35996,0.73334 -1.07988,1.26669 -0.70359,0.53333 -1.78347,0.84999 -1.06352,0.31669 -2.50337,0.31669 -1.39076,0 -2.38883,-0.23334 -0.98171,-0.21668 -1.61982,-0.61669 -0.62177,-0.4 -0.91629,-0.96667 -0.29451,-0.55 -0.29451,-1.21666 0,-0.40001 0.0981,-0.78335 0.11454,-0.36668 0.31088,-0.71668 0.2127,-0.35 0.50721,-0.65 0.29452,-0.31666 0.67085,-0.61668 -0.52358,-0.28332 -0.81809,-0.76666 -0.27816,-0.5 -0.27816,-1.08335 0,-0.75001 0.32723,-1.35001 0.32724,-0.60001 0.85082,-1.1 -0.42541,-0.43335 -0.68719,-1.03335 -0.24543,-0.61668 -0.24543,-1.53335 0,-0.98335 0.32724,-1.75002 0.3436,-0.76668 0.93263,-1.3 0.60539,-0.53334 1.43985,-0.80002 0.83446,-0.28332 1.84889,-0.28332 0.50722,0 0.98172,0.0667 0.4745,0.05 0.88355,0.16668 h 3.46872 q 0.2127,0 0.34359,0.28331 0.1309,0.26668 0.1309,0.91669 z m -3.97594,2.63335 q 0,-0.89999 -0.49085,-1.40001 -0.49087,-0.50001 -1.37441,-0.50001 -0.45813,0 -0.80174,0.16668 -0.3436,0.15 -0.57267,0.41668 -0.22905,0.26665 -0.34359,0.63332 -0.0981,0.35001 -0.0981,0.73335 0,0.85001 0.49085,1.35001 0.49085,0.48333 1.35805,0.48333 0.45813,0 0.80173,-0.14998 0.34361,-0.15002 0.57266,-0.40001 0.22907,-0.26667 0.3436,-0.60002 0.11454,-0.35 0.11454,-0.73334 z m 0.73628,8.90008 q 0,-0.55001 -0.44177,-0.85001 -0.44178,-0.31666 -1.22714,-0.33333 l -2.19251,-0.0667 q -0.31087,0.23334 -0.50721,0.46668 -0.19634,0.21667 -0.31088,0.41669 -0.11453,0.19999 -0.14725,0.38332 -0.0327,0.18334 -0.0327,0.38334 0,0.63334 0.60538,0.95 0.62175,0.33333 1.75074,0.33333 0.70355,0 1.17806,-0.14999 0.49085,-0.13333 0.78536,-0.38333 0.29451,-0.23334 0.40904,-0.53335 0.1309,-0.28332 0.1309,-0.61667 z m 15.40064,-7.06672 q 0,0.58334 -0.26179,0.86666 -0.24542,0.26669 -0.6872,0.26669 h -6.65929 q 0,0.71666 0.16362,1.3 0.16363,0.56667 0.52358,0.98334 0.35997,0.4 0.93263,0.61668 0.57267,0.21665 1.3744,0.21665 0.80173,0 1.40712,-0.11666 0.62176,-0.13332 1.06353,-0.26666 0.45813,-0.15 0.75264,-0.26666 0.29452,-0.11668 0.4745,-0.11668 0.11453,0 0.17998,0.05 0.0817,0.0332 0.1309,0.15 0.0491,0.11667 0.0654,0.31668 0.0164,0.19999 0.0164,0.51665 0,0.28335 -0.0164,0.48335 0,0.18334 -0.0327,0.31666 -0.0164,0.13334 -0.0654,0.23334 -0.0491,0.0998 -0.13089,0.18334 -0.0817,0.0833 -0.44177,0.23334 -0.35997,0.15 -0.91628,0.3 -0.53993,0.15 -1.25985,0.24999 -0.70357,0.0999 -1.52167,0.0999 -1.4562,0 -2.55245,-0.36667 -1.09625,-0.38333 -1.83254,-1.13334 -0.73627,-0.76667 -1.09624,-1.93336 -0.35996,-1.16667 -0.35996,-2.73334 0,-1.48335 0.37632,-2.6667 0.37632,-1.2 1.09624,-2.03334 0.73629,-0.83335 1.7671,-1.26668 1.03079,-0.43334 2.33974,-0.43334 1.37441,0 2.33976,0.41667 0.98172,0.4 1.60347,1.13334 0.6381,0.73335 0.93262,1.73335 0.29451,1.00001 0.29451,2.1667 z m -2.99422,-0.90001 q 0.0327,-1.31668 -0.52359,-2.06668 -0.5563,-0.76669 -1.73435,-0.76669 -0.58903,0 -1.03081,0.23335 -0.42541,0.21666 -0.71992,0.59999 -0.27814,0.38334 -0.44177,0.90002 -0.14726,0.51666 -0.16362,1.10001 z m 15.98967,6.80006 q 0,0.13333 -0.0817,0.23333 -0.0654,0.0833 -0.24544,0.15 -0.16361,0.0667 -0.47448,0.0999 -0.29452,0.0333 -0.73629,0.0333 -0.45813,0 -0.76901,-0.0333 -0.29451,-0.0333 -0.47451,-0.0999 -0.16361,-0.0666 -0.24541,-0.15 -0.0655,-0.0999 -0.0655,-0.23333 v -6.35006 q 0,-0.81667 -0.11454,-1.28334 -0.11452,-0.46668 -0.34359,-0.78335 -0.21271,-0.33333 -0.57267,-0.51665 -0.34359,-0.18336 -0.80173,-0.18336 -0.58902,0 -1.19441,0.43334 -0.6054,0.43335 -1.24352,1.28336 v 7.40006 q 0,0.13333 -0.0817,0.23333 -0.0655,0.0833 -0.24544,0.15 -0.17997,0.0667 -0.47448,0.0999 -0.29451,0.0333 -0.75265,0.0333 -0.45813,0 -0.75264,-0.0333 -0.29452,-0.0333 -0.47451,-0.0999 -0.16361,-0.0666 -0.24541,-0.15 -0.0655,-0.0999 -0.0655,-0.23333 v -11.15011 q 0,-0.11666 0.0491,-0.19999 0.0654,-0.0999 0.22906,-0.16667 0.16362,-0.0667 0.40905,-0.0999 0.24543,-0.0333 0.63811,-0.0333 0.39268,0 0.63812,0.0333 0.26178,0.0333 0.39268,0.0999 0.14726,0.0666 0.2127,0.16667 0.0654,0.0833 0.0654,0.19999 v 1.30001 q 0.89992,-1 1.83254,-1.5 0.94898,-0.50001 1.96342,-0.50001 1.12897,0 1.88163,0.38334 0.76901,0.36667 1.24351,1.01667 0.47448,0.63335 0.68719,1.50002 0.2127,0.85 0.2127,2.06667 z m 13.4045,0 q 0,0.14999 -0.0655,0.24999 -0.0491,0.0833 -0.19634,0.15002 -0.14725,0.0667 -0.40906,0.0833 -0.24542,0.0333 -0.62175,0.0333 -0.39268,0 -0.63812,-0.0333 -0.24541,-0.0166 -0.39268,-0.0833 -0.14725,-0.0666 -0.22907,-0.15002 -0.0654,-0.0999 -0.0654,-0.24999 v -1.23335 q -0.83445,0.93335 -1.76709,1.45002 -0.93263,0.49999 -2.0616,0.49999 -1.2435,0 -2.11068,-0.48333 -0.86718,-0.49999 -1.42349,-1.33334 -0.53994,-0.85001 -0.78537,-1.96669 -0.24543,-1.11667 -0.24543,-2.35002 0,-1.48334 0.31088,-2.66669 0.32723,-1.20001 0.91626,-2.03334 0.60539,-0.83334 1.5053,-1.28335 0.89991,-0.45001 2.06159,-0.45001 0.91627,0 1.66893,0.38334 0.75265,0.36667 1.48893,1.11668 v -6.05005 q 0,-0.11667 0.0655,-0.21667 0.0654,-0.0999 0.24542,-0.16667 0.17999,-0.0666 0.4745,-0.0999 0.29452,-0.05 0.73629,-0.05 0.45812,0 0.75263,0.05 0.29453,0.0333 0.45815,0.0999 0.17998,0.0667 0.24543,0.16667 0.0817,0.0999 0.0817,0.21667 z m -3.05968,-7.45007 q -0.67084,-0.84999 -1.27622,-1.30001 -0.60541,-0.45 -1.27624,-0.45 -0.58903,0 -1.03081,0.31666 -0.44175,0.30002 -0.70355,0.81668 -0.26179,0.51667 -0.39268,1.15 -0.1309,0.61669 -0.1309,1.28336 0,0.70001 0.11453,1.36668 0.11454,0.66667 0.35997,1.18334 0.26178,0.51667 0.67083,0.83334 0.42541,0.3 1.06352,0.3 0.31088,0 0.6054,-0.0833 0.31087,-0.0999 0.62176,-0.3 0.31087,-0.21668 0.63811,-0.56668 0.34359,-0.35 0.73628,-0.85 z"
       id="path41"
       style="fill:#000000;fill-rule:nonzero;stroke-width:1.05687368"
       inkscape:connector-curvature="0" />
    <path
       d="m 432.44676,326.90069 q 0,1.96667 -0.45814,3.55002 -0.44178,1.56668 -1.35805,2.68337 -0.8999,1.1 -2.25794,1.7 -1.35803,0.58334 -3.17421,0.58334 -1.79981,0 -3.10876,-0.53334 -1.29259,-0.55001 -2.15977,-1.58335 -0.85082,-1.05001 -1.27624,-2.58336 -0.40904,-1.53335 -0.40904,-3.53336 0,-1.91667 0.45814,-3.46669 0.45813,-1.56668 1.35803,-2.66669 0.91626,-1.1 2.2743,-1.68335 1.35805,-0.59999 3.17422,-0.59999 1.76709,0 3.05967,0.54999 1.30896,0.53333 2.15977,1.56668 0.8672,1.01668 1.29261,2.55003 0.42541,1.51667 0.42541,3.4667 z m -2.22524,0.14999 q 0,-1.36668 -0.24542,-2.55001 -0.22907,-1.18335 -0.78538,-2.05003 -0.5563,-0.86668 -1.48892,-1.35001 -0.93264,-0.5 -2.30704,-0.5 -1.37439,0 -2.30702,0.53333 -0.93264,0.51666 -1.52166,1.40003 -0.57267,0.86666 -0.83445,2.05 -0.24544,1.16667 -0.24544,2.45002 0,1.41667 0.22907,2.61668 0.22907,1.20002 0.78536,2.08336 0.55631,0.86667 1.47257,1.35002 0.93265,0.46666 2.33977,0.46666 1.3744,0 2.32339,-0.51667 0.94899,-0.53333 1.52165,-1.41668 0.57267,-0.90001 0.8181,-2.06668 0.24542,-1.18334 0.24542,-2.50002 z m 15.49473,2.01668 q 0,1.48336 -0.31087,2.66669 -0.31088,1.16668 -0.93263,1.98335 -0.60539,0.81668 -1.5053,1.26669 -0.88355,0.43333 -2.04523,0.43333 -0.49085,0 -0.91626,-0.0999 -0.40907,-0.0999 -0.80175,-0.3 -0.39269,-0.21668 -0.78538,-0.53335 -0.39268,-0.33332 -0.83445,-0.78333 v 5.63339 q 0,0.0998 -0.0491,0.16667 -0.0491,0.0832 -0.16363,0.13332 -0.11452,0.05 -0.31086,0.0667 -0.19635,0.0333 -0.50723,0.0333 -0.29451,0 -0.49085,-0.0333 -0.19635,-0.0166 -0.31087,-0.0667 -0.11455,-0.05 -0.16363,-0.13332 -0.0327,-0.0667 -0.0327,-0.16667 v -15.71681 q 0,-0.11667 0.0327,-0.18333 0.0327,-0.0666 0.14725,-0.11667 0.11455,-0.05 0.27817,-0.0666 0.17997,-0.0166 0.42541,-0.0166 0.26179,0 0.4254,0.0166 0.16363,0.0166 0.2618,0.0666 0.11453,0.05 0.16361,0.11667 0.0491,0.0667 0.0491,0.18333 v 1.51669 q 0.49085,-0.53335 0.94899,-0.91668 0.47449,-0.38334 0.94898,-0.63334 0.47451,-0.26667 0.96537,-0.40001 0.50721,-0.13333 1.06351,-0.13333 1.19443,0 2.04525,0.48333 0.85082,0.46667 1.3744,1.30002 0.53994,0.81666 0.78536,1.91668 0.24543,1.10001 0.24543,2.31668 z m -2.14341,0.23334 q 0,-0.85002 -0.1309,-1.65003 -0.11454,-0.81666 -0.44177,-1.43334 -0.31087,-0.63333 -0.83445,-1 -0.52358,-0.38333 -1.30895,-0.38333 -0.39269,0 -0.78537,0.11666 -0.37632,0.11666 -0.76902,0.38334 -0.39269,0.25 -0.81809,0.66667 -0.42541,0.41667 -0.89991,1.03334 v 4.4667 q 0.83445,1.05001 1.57075,1.60003 0.75266,0.55 1.57075,0.55 0.769,0 1.30895,-0.36668 0.5563,-0.38333 0.88353,-1.00001 0.3436,-0.63333 0.49087,-1.4 0.16361,-0.78334 0.16361,-1.58335 z m 14.61118,-0.55001 q 0,0.50001 -0.24542,0.70001 -0.22907,0.19999 -0.53995,0.19999 h -7.24832 q 0,0.95002 0.17998,1.70003 0.19634,0.75 0.62175,1.28334 0.42541,0.53334 1.1126,0.83335 0.68721,0.28332 1.6853,0.28332 0.78536,0 1.39075,-0.13334 0.62175,-0.13331 1.06353,-0.29999 0.45813,-0.16667 0.73629,-0.28334 0.29451,-0.13333 0.44177,-0.13333 0.0817,0 0.14725,0.05 0.0817,0.0333 0.11454,0.11668 0.0327,0.0833 0.0491,0.25 0.0164,0.15001 0.0164,0.38334 0,0.14999 -0.0164,0.28333 0,0.11667 -0.0164,0.21668 -0.0164,0.0833 -0.0654,0.16666 -0.0491,0.0667 -0.11454,0.13334 -0.0654,0.0666 -0.39268,0.23333 -0.32724,0.15 -0.86718,0.3 -0.52358,0.15 -1.22715,0.26668 -0.6872,0.11666 -1.47256,0.11666 -1.35804,0 -2.38885,-0.38334 -1.01443,-0.38333 -1.71799,-1.15 -0.70356,-0.76668 -1.06353,-1.91669 -0.34359,-1.15001 -0.34359,-2.66669 0,-1.45001 0.35996,-2.60002 0.37631,-1.16668 1.06352,-1.96668 0.70356,-0.81668 1.68527,-1.25001 0.98173,-0.43335 2.19251,-0.43335 1.29257,0 2.20884,0.43335 0.91627,0.41666 1.50531,1.15 0.58902,0.71667 0.86718,1.68335 0.27814,0.96667 0.27814,2.06668 z m -2.04524,-0.6 q 0.0492,-1.63335 -0.70356,-2.55001 -0.73628,-0.93335 -2.19249,-0.93335 -0.75265,0 -1.32531,0.3 -0.55631,0.28334 -0.94899,0.76668 -0.37634,0.46666 -0.58903,1.1 -0.19635,0.61668 -0.22907,1.31668 z m 14.63165,6.71673 q 0,0.0999 -0.0491,0.16666 -0.0491,0.0667 -0.16361,0.13334 -0.0981,0.05 -0.29452,0.0667 -0.19634,0.0332 -0.49085,0.0332 -0.31087,0 -0.50721,-0.0332 -0.19635,-0.0166 -0.31088,-0.0667 -0.11453,-0.0666 -0.16363,-0.13334 -0.0491,-0.0667 -0.0491,-0.16666 v -6.5834 q 0,-0.96668 -0.14727,-1.55 -0.14725,-0.58335 -0.42541,-1.00001 -0.27814,-0.43335 -0.73629,-0.65002 -0.44177,-0.23333 -1.0308,-0.23333 -0.75264,0 -1.52165,0.55001 -0.75264,0.55001 -1.58711,1.60001 v 7.86674 q 0,0.0999 -0.0491,0.16666 -0.0491,0.0667 -0.16361,0.13334 -0.11454,0.05 -0.31088,0.0667 -0.19634,0.0332 -0.50722,0.0332 -0.29451,0 -0.49085,-0.0332 -0.19634,-0.0166 -0.31088,-0.0667 -0.11453,-0.0666 -0.16362,-0.13334 -0.0327,-0.0667 -0.0327,-0.16666 v -11.25011 q 0,-0.0999 0.0327,-0.16667 0.0327,-0.0667 0.14726,-0.11666 0.11453,-0.0666 0.27815,-0.0832 0.17998,-0.0166 0.45813,-0.0166 0.27816,0 0.44177,0.0166 0.17998,0.0166 0.27815,0.0832 0.0981,0.05 0.14726,0.11666 0.0491,0.0666 0.0491,0.16667 v 1.48335 q 0.93264,-1.05 1.8489,-1.55002 0.93263,-0.5 1.88161,-0.5 1.09626,0 1.8489,0.38335 0.75265,0.38333 1.21078,1.03334 0.47449,0.63333 0.67084,1.48335 0.21271,0.85 0.21271,2.05 z"
       id="path43"
       inkscape:connector-curvature="0"
       style="fill:#000000;fill-rule:nonzero;stroke-width:1.05687368" />
    <path
       d="m 429.09254,361.46431 q 0,0.23334 -0.0327,0.4167 -0.0164,0.16666 -0.0655,0.28332 -0.0491,0.0998 -0.13089,0.15001 -0.0817,0.05 -0.17998,0.05 h -4.4668 v 14.01679 q 0,0.0999 -0.0491,0.18335 -0.0491,0.0666 -0.17998,0.11667 -0.11453,0.05 -0.32724,0.0833 -0.19634,0.0333 -0.50721,0.0333 -0.29451,0 -0.50723,-0.0333 -0.19635,-0.0333 -0.32724,-0.0833 -0.11452,-0.05 -0.16362,-0.11667 -0.0491,-0.0833 -0.0491,-0.18335 v -14.01679 h -4.4668 q -0.0981,0 -0.17998,-0.05 -0.0817,-0.05 -0.1309,-0.15001 -0.0491,-0.11666 -0.0817,-0.28332 -0.0327,-0.18336 -0.0327,-0.4167 0,-0.23332 0.0327,-0.41665 0.0327,-0.18334 0.0817,-0.3 0.0491,-0.11668 0.1309,-0.16667 0.0817,-0.05 0.17998,-0.05 h 11.04429 q 0.0981,0 0.17998,0.05 0.0817,0.05 0.13089,0.16667 0.0491,0.11666 0.0655,0.3 0.0327,0.18333 0.0327,0.41665 z m 8.51638,4.41673 q 0,0.28333 -0.0164,0.46666 0,0.18333 -0.0491,0.3 -0.0327,0.0999 -0.0817,0.16668 -0.0491,0.05 -0.14726,0.05 -0.0981,0 -0.24542,-0.05 -0.14727,-0.0667 -0.32724,-0.11668 -0.16362,-0.0667 -0.39269,-0.11666 -0.21271,-0.05 -0.47449,-0.05 -0.31087,0 -0.60539,0.13334 -0.29453,0.11667 -0.62176,0.41666 -0.32724,0.28334 -0.6872,0.76669 -0.3436,0.46667 -0.76901,1.15 v 7.40007 q 0,0.0998 -0.0491,0.16667 -0.0491,0.0666 -0.16362,0.13332 -0.11454,0.05 -0.31088,0.0667 -0.19634,0.0333 -0.50721,0.0333 -0.29451,0 -0.49086,-0.0333 -0.19635,-0.0166 -0.31089,-0.0667 -0.11453,-0.0666 -0.16362,-0.13332 -0.0327,-0.0667 -0.0327,-0.16667 v -11.25009 q 0,-0.0999 0.0327,-0.16667 0.0327,-0.0666 0.14726,-0.11668 0.11453,-0.0667 0.27815,-0.0833 0.17999,-0.0166 0.45815,-0.0166 0.27815,0 0.44176,0.0166 0.17999,0.0166 0.27816,0.0833 0.0981,0.05 0.14725,0.11668 0.0491,0.0667 0.0491,0.16667 v 1.63334 q 0.44177,-0.66666 0.83446,-1.08334 0.40904,-0.43334 0.769,-0.66667 0.35996,-0.25001 0.70356,-0.35001 0.34361,-0.0999 0.70357,-0.0999 0.16362,0 0.35996,0.0333 0.21271,0.0166 0.42541,0.0667 0.22906,0.05 0.39269,0.11667 0.17998,0.05 0.24542,0.11668 0.0818,0.0667 0.0981,0.11666 0.0327,0.05 0.0491,0.15 0.0327,0.0833 0.0327,0.24999 0,0.16667 0,0.45002 z m 10.62705,10.53342 q 0,0.15 -0.0981,0.23334 -0.0981,0.0666 -0.27814,0.0998 -0.16362,0.05 -0.49086,0.05 -0.31089,0 -0.50723,-0.05 -0.19634,-0.0332 -0.27814,-0.0998 -0.0817,-0.0833 -0.0817,-0.23334 v -1.13335 q -0.71993,0.80001 -1.61982,1.23335 -0.88354,0.43333 -1.88161,0.43333 -0.86719,0 -1.57076,-0.23333 -0.70355,-0.23334 -1.21077,-0.66667 -0.49086,-0.43333 -0.76901,-1.06668 -0.27816,-0.65 -0.27816,-1.45002 0,-0.94999 0.37633,-1.65 0.39268,-0.70001 1.09625,-1.16667 0.71992,-0.46668 1.75072,-0.70002 1.0308,-0.23333 2.30703,-0.23333 h 1.52165 v -0.86667 q 0,-0.65003 -0.1309,-1.15002 -0.13088,-0.5 -0.44176,-0.83334 -0.29452,-0.33333 -0.76901,-0.5 -0.4745,-0.16668 -1.17805,-0.16668 -0.75265,0 -1.35805,0.18335 -0.58903,0.18332 -1.0308,0.4 -0.44178,0.21667 -0.75265,0.4 -0.29451,0.18332 -0.44176,0.18332 -0.0981,0 -0.17999,-0.05 -0.0654,-0.05 -0.13089,-0.15 -0.0491,-0.0999 -0.0817,-0.25001 -0.0164,-0.16666 -0.0164,-0.35001 0,-0.31666 0.0327,-0.49999 0.0491,-0.18334 0.2127,-0.33335 0.17999,-0.16667 0.57268,-0.38332 0.40904,-0.23334 0.93262,-0.40001 0.53994,-0.18334 1.16169,-0.29999 0.62176,-0.13334 1.25987,-0.13334 1.19442,0 2.02887,0.28332 0.83446,0.26667 1.34169,0.8 0.52358,0.53335 0.75265,1.33335 0.22906,0.78334 0.22906,1.83335 z m -2.01251,-5.13338 h -1.718 q -0.83446,0 -1.45621,0.15 -0.60539,0.13333 -1.01443,0.41668 -0.40906,0.28333 -0.6054,0.68332 -0.17997,0.38336 -0.17997,0.90001 0,0.86667 0.53993,1.38336 0.55631,0.51666 1.53801,0.51666 0.78539,0 1.47259,-0.4 0.68719,-0.41667 1.42348,-1.26668 z m 15.2452,5.11671 q 0,0.0999 -0.0491,0.16667 -0.0491,0.0666 -0.16363,0.13332 -0.0981,0.05 -0.29451,0.0667 -0.19634,0.0332 -0.49085,0.0332 -0.31087,0 -0.50721,-0.0332 -0.19635,-0.0166 -0.31089,-0.0667 -0.11452,-0.0667 -0.16362,-0.13332 -0.0491,-0.0667 -0.0491,-0.16667 v -6.58338 q 0,-0.96669 -0.14727,-1.55004 -0.14725,-0.58332 -0.42541,-0.99999 -0.27815,-0.43333 -0.73627,-0.65001 -0.44178,-0.23334 -1.03081,-0.23334 -0.75265,0 -1.52164,0.55001 -0.75266,0.55 -1.58712,1.60001 v 7.86674 q 0,0.0999 -0.0491,0.16667 -0.0491,0.0666 -0.16362,0.13332 -0.11454,0.05 -0.31088,0.0667 -0.19635,0.0332 -0.50722,0.0332 -0.29451,0 -0.49085,-0.0332 -0.19634,-0.0166 -0.31088,-0.0667 -0.11453,-0.0667 -0.16362,-0.13332 -0.0327,-0.0667 -0.0327,-0.16667 V 365.1477 q 0,-0.0999 0.0327,-0.16667 0.0327,-0.0666 0.14726,-0.11668 0.11453,-0.0666 0.27814,-0.0833 0.18,-0.0166 0.45814,-0.0166 0.27815,0 0.44178,0.0166 0.17997,0.0166 0.27814,0.0833 0.0981,0.05 0.14726,0.11668 0.0491,0.0667 0.0491,0.16667 v 1.48333 q 0.93264,-1.05 1.84891,-1.55001 0.93262,-0.49999 1.88161,-0.49999 1.09625,0 1.84891,0.38332 0.75264,0.38334 1.21078,1.03335 0.47448,0.63333 0.67082,1.48334 0.21271,0.85001 0.21271,2.05003 z m 10.63525,-3.0667 q 0,0.86668 -0.32723,1.55003 -0.31088,0.66667 -0.88356,1.13333 -0.57267,0.46667 -1.37439,0.70001 -0.80175,0.23333 -1.75073,0.23333 -0.58903,0 -1.12897,-0.0998 -0.52358,-0.0833 -0.94899,-0.21668 -0.42541,-0.14999 -0.71992,-0.29999 -0.29452,-0.16667 -0.44178,-0.28334 -0.13089,-0.13334 -0.19634,-0.35001 -0.0491,-0.23333 -0.0491,-0.61665 0,-0.25001 0.0164,-0.40001 0.0327,-0.16668 0.0655,-0.26667 0.0327,-0.0999 0.0981,-0.13334 0.0817,-0.05 0.16362,-0.05 0.1309,0 0.39268,0.16667 0.2618,0.16667 0.65448,0.36668 0.39268,0.2 0.91626,0.36666 0.52358,0.16667 1.21078,0.16667 0.52358,0 0.93264,-0.0999 0.42541,-0.11666 0.71992,-0.33335 0.31088,-0.23333 0.4745,-0.56666 0.16361,-0.33334 0.16361,-0.80001 0,-0.46667 -0.24542,-0.78333 -0.22906,-0.33334 -0.62175,-0.58334 -0.39269,-0.25001 -0.88355,-0.45 -0.49086,-0.20002 -1.01444,-0.40001 -0.52358,-0.21667 -1.01443,-0.48334 -0.49085,-0.26668 -0.88355,-0.65 -0.39268,-0.40001 -0.63811,-0.93334 -0.24542,-0.53334 -0.24542,-1.28335 0,-0.66668 0.24542,-1.26668 0.26179,-0.61666 0.76901,-1.06668 0.50721,-0.46667 1.25986,-0.73333 0.75265,-0.28334 1.75074,-0.28334 0.44176,0 0.88353,0.0832 0.44177,0.0667 0.80173,0.18335 0.35997,0.11666 0.60539,0.24999 0.2618,0.13333 0.37633,0.23335 0.13088,0.0998 0.17998,0.18332 0.0491,0.0666 0.0654,0.16668 0.0164,0.0833 0.0327,0.21666 0.0164,0.13334 0.0164,0.33334 0,0.21667 -0.0164,0.38334 -0.0164,0.14999 -0.0654,0.24999 -0.0327,0.0998 -0.0981,0.15001 -0.0655,0.0333 -0.1309,0.0333 -0.11454,0 -0.32724,-0.13333 -0.21271,-0.13333 -0.53995,-0.28335 -0.32723,-0.16666 -0.78537,-0.3 -0.44176,-0.15 -1.01444,-0.15 -0.52358,0 -0.91627,0.13334 -0.39268,0.11667 -0.63811,0.33333 -0.24542,0.21667 -0.37632,0.51668 -0.1309,0.3 -0.1309,0.65 0,0.48334 0.24544,0.81667 0.24542,0.33333 0.6381,0.58334 0.39269,0.25001 0.88355,0.45 0.50723,0.20001 1.03081,0.41668 0.52358,0.2 1.03079,0.46668 0.50723,0.26666 0.89991,0.64998 0.39268,0.36668 0.63811,0.90003 0.24543,0.51666 0.24543,1.23333 z m 4.92084,3.0667 q 0,0.0999 -0.0491,0.16667 -0.0491,0.0666 -0.16362,0.13332 -0.11453,0.05 -0.31087,0.0667 -0.19635,0.0332 -0.50723,0.0332 -0.29451,0 -0.49085,-0.0332 -0.19634,-0.0166 -0.31087,-0.0667 -0.11454,-0.0667 -0.16362,-0.13332 -0.0327,-0.0667 -0.0327,-0.16667 V 365.1477 q 0,-0.0832 0.0327,-0.15002 0.0491,-0.0833 0.16362,-0.13333 0.11453,-0.05 0.31087,-0.0666 0.19634,-0.0333 0.49085,-0.0333 0.31088,0 0.50723,0.0333 0.19634,0.0166 0.31087,0.0666 0.11454,0.05 0.16362,0.13333 0.0491,0.0667 0.0491,0.15002 z m 0.22906,-15.05014 q 0,0.73335 -0.27815,1.00003 -0.26179,0.24999 -0.98172,0.24999 -0.71992,0 -0.9817,-0.24999 -0.2618,-0.26668 -0.2618,-0.96668 0,-0.73335 0.2618,-0.98335 0.27815,-0.26667 0.99807,-0.26667 0.71992,0 0.98171,0.25002 0.26179,0.24998 0.26179,0.96665 z m 9.25267,14.23347 q 0,0.35 -0.0491,0.56666 -0.0492,0.21667 -0.14726,0.31666 -0.0981,0.10004 -0.29451,0.20002 -0.19635,0.0833 -0.45815,0.13333 -0.24543,0.05 -0.52358,0.0833 -0.27815,0.05 -0.57267,0.05 -0.85082,0 -1.47257,-0.23333 -0.60538,-0.23334 -0.99806,-0.7 -0.3927,-0.46667 -0.57268,-1.18333 -0.17998,-0.73334 -0.17998,-1.70002 v -6.5834 h -1.53802 q -0.19634,0 -0.31088,-0.2 -0.0981,-0.19999 -0.0981,-0.65 0,-0.23333 0.0327,-0.38333 0.0327,-0.16668 0.0817,-0.26667 0.0491,-0.11666 0.11453,-0.15 0.0817,-0.05 0.17998,-0.05 h 1.53802 v -2.68336 q 0,-0.0832 0.0327,-0.14999 0.0491,-0.0833 0.16362,-0.13335 0.1309,-0.0667 0.32724,-0.0833 0.19634,-0.0333 0.49085,-0.0333 0.29452,0 0.49086,0.0333 0.19635,0.0166 0.31088,0.0833 0.11454,0.05 0.16362,0.13335 0.0491,0.0666 0.0491,0.14999 v 2.68336 h 2.83059 q 0.0981,0 0.16361,0.05 0.0817,0.0333 0.1309,0.15 0.0654,0.0999 0.0817,0.26667 0.0327,0.15 0.0327,0.38333 0,0.45001 -0.11454,0.65 -0.11453,0.2 -0.29451,0.2 h -2.83061 v 6.2834 q 0,1.16669 0.32723,1.76668 0.3436,0.58334 1.21079,0.58334 0.29452,0 0.50722,-0.05 0.22906,-0.0667 0.39269,-0.11667 0.17998,-0.0667 0.29451,-0.11666 0.1309,-0.0666 0.22907,-0.0666 0.0491,0 0.0981,0.0333 0.0655,0.0333 0.0981,0.11666 0.0327,0.0833 0.0491,0.23334 0.0327,0.15001 0.0327,0.38335 z m 4.70404,0.81667 q 0,0.0999 -0.0491,0.16667 -0.0491,0.0666 -0.16362,0.13332 -0.11453,0.05 -0.31088,0.0667 -0.19634,0.0332 -0.50722,0.0332 -0.29451,0 -0.49086,-0.0332 -0.19634,-0.0166 -0.31087,-0.0667 -0.11453,-0.0667 -0.16363,-0.13332 -0.0327,-0.0667 -0.0327,-0.16667 V 365.1477 q 0,-0.0832 0.0327,-0.15002 0.0491,-0.0833 0.16363,-0.13333 0.11453,-0.05 0.31087,-0.0666 0.19635,-0.0333 0.49086,-0.0333 0.31088,0 0.50722,0.0333 0.19635,0.0166 0.31088,0.0666 0.11453,0.05 0.16362,0.13333 0.0491,0.0667 0.0491,0.15002 z m 0.22906,-15.05014 q 0,0.73335 -0.27814,1.00003 -0.26179,0.24999 -0.98171,0.24999 -0.71993,0 -0.98173,-0.24999 -0.26178,-0.26668 -0.26178,-0.96668 0,-0.73335 0.26178,-0.98335 0.27816,-0.26667 0.99809,-0.26667 0.71991,0 0.98171,0.25002 0.26178,0.24998 0.26178,0.96665 z m 13.78494,9.30009 q 0,1.38333 -0.35995,2.53336 -0.35997,1.15001 -1.06353,2.00001 -0.70356,0.83334 -1.76708,1.30001 -1.06353,0.46667 -2.4543,0.46667 -1.37443,0 -2.38886,-0.4 -0.99807,-0.41668 -1.68527,-1.20001 -0.67084,-0.8 -0.99808,-1.91669 -0.32724,-1.13334 -0.32724,-2.55001 0,-1.38335 0.34361,-2.53335 0.34359,-1.16667 1.04716,-2.00003 0.71992,-0.83334 1.76707,-1.3 1.06353,-0.46667 2.47068,-0.46667 1.35805,0 2.37249,0.41665 1.01444,0.41669 1.68527,1.20002 0.67084,0.78334 1.01444,1.91669 0.34359,1.11667 0.34359,2.53335 z m -2.1434,0.13334 q 0,-0.9 -0.16362,-1.71668 -0.16361,-0.81667 -0.55631,-1.41668 -0.37631,-0.61668 -1.0308,-0.96667 -0.63811,-0.36668 -1.60346,-0.36668 -0.8999,0 -1.55442,0.33333 -0.63811,0.31666 -1.06351,0.91668 -0.40906,0.58333 -0.62176,1.4 -0.19634,0.81669 -0.19634,1.76668 0,0.93335 0.16362,1.75003 0.17997,0.80001 0.55631,1.41667 0.39268,0.6 1.03078,0.96668 0.65452,0.35001 1.63624,0.35001 0.88353,0 1.52165,-0.31668 0.65447,-0.33333 1.06352,-0.91665 0.42541,-0.60002 0.62175,-1.40002 0.19635,-0.81668 0.19635,-1.80002 z m 14.62754,5.61671 q 0,0.0999 -0.0491,0.16667 -0.0491,0.0666 -0.16362,0.13332 -0.0981,0.05 -0.29451,0.0667 -0.19635,0.0332 -0.49086,0.0332 -0.31088,0 -0.50723,-0.0332 -0.19634,-0.0166 -0.31087,-0.0667 -0.11454,-0.0667 -0.16361,-0.13332 -0.0491,-0.0667 -0.0491,-0.16667 v -6.58338 q 0,-0.96669 -0.14724,-1.55004 -0.14727,-0.58332 -0.42542,-0.99999 -0.27816,-0.43333 -0.73629,-0.65001 -0.44177,-0.23334 -1.0308,-0.23334 -0.75264,0 -1.52165,0.55001 -0.75266,0.55 -1.58711,1.60001 v 7.86674 q 0,0.0999 -0.0491,0.16667 -0.0491,0.0666 -0.16362,0.13332 -0.11452,0.05 -0.31087,0.0667 -0.19634,0.0332 -0.50722,0.0332 -0.29452,0 -0.49086,-0.0332 -0.19634,-0.0166 -0.31087,-0.0667 -0.11453,-0.0667 -0.16362,-0.13332 -0.0327,-0.0667 -0.0327,-0.16667 V 365.1477 q 0,-0.0999 0.0327,-0.16667 0.0327,-0.0666 0.14726,-0.11668 0.11453,-0.0666 0.27815,-0.0833 0.17998,-0.0166 0.45813,-0.0166 0.27815,0 0.44177,0.0166 0.17998,0.0166 0.27815,0.0833 0.0981,0.05 0.14726,0.11668 0.0491,0.0667 0.0491,0.16667 v 1.48333 q 0.93263,-1.05 1.8489,-1.55001 0.93263,-0.49999 1.88162,-0.49999 1.09624,0 1.8489,0.38332 0.75265,0.38334 1.21078,1.03335 0.4745,0.63333 0.67084,1.48334 0.2127,0.85001 0.2127,2.05003 z"
       id="path45"
       inkscape:connector-curvature="0"
       style="fill:#000000;fill-rule:nonzero;stroke-width:1.05687368" />
    <path
       d="m 429.74702,415.96143 q 0,0.20001 -0.0164,0.35001 0,0.15001 -0.0327,0.26667 -0.0327,0.0998 -0.0817,0.20001 -0.0491,0.0833 -0.17997,0.21666 -0.11454,0.11666 -0.50722,0.36667 -0.39269,0.25 -0.98172,0.5 -0.57266,0.25001 -1.34167,0.41667 -0.75265,0.16667 -1.63619,0.16667 -1.55438,0 -2.79788,-0.51667 -1.24351,-0.53333 -2.12705,-1.55001 -0.86719,-1.03335 -1.34167,-2.53336 -0.47451,-1.51667 -0.47451,-3.48335 0,-2.00003 0.50722,-3.56671 0.50721,-1.58335 1.42348,-2.68336 0.93263,-1.10001 2.20887,-1.66667 1.27622,-0.58334 2.84696,-0.58334 0.68721,0 1.32532,0.13333 0.65448,0.13334 1.21078,0.33334 0.5563,0.20001 0.98171,0.46668 0.42541,0.26666 0.58903,0.43334 0.16361,0.16666 0.21271,0.24998 0.0491,0.0833 0.0817,0.21668 0.0327,0.11666 0.0491,0.28333 0.0164,0.15001 0.0164,0.38335 0,0.24999 -0.0326,0.43333 -0.0164,0.16667 -0.0654,0.28334 -0.0491,0.11667 -0.11452,0.18333 -0.0655,0.05 -0.16364,0.05 -0.16361,0 -0.47449,-0.25 -0.31088,-0.25 -0.80173,-0.53333 -0.4745,-0.30002 -1.17806,-0.53335 -0.68719,-0.25 -1.65256,-0.25 -1.06351,0 -1.9307,0.43334 -0.85082,0.43333 -1.47256,1.26667 -0.6054,0.83335 -0.94901,2.05002 -0.34359,1.20002 -0.34359,2.75002 0,1.53335 0.32724,2.71671 0.32725,1.18333 0.93263,1.98333 0.60539,0.78334 1.48893,1.20002 0.88355,0.4 2.01251,0.4 0.93264,0 1.6362,-0.23334 0.71992,-0.25 1.21077,-0.53334 0.49086,-0.3 0.80174,-0.53333 0.32724,-0.23334 0.52359,-0.23334 0.0817,0 0.1309,0.0333 0.0654,0.0332 0.0981,0.15001 0.0491,0.0999 0.0654,0.28333 0.0164,0.18334 0.0164,0.48333 z m 4.5977,1.96669 q 0,0.0999 -0.0491,0.16667 -0.0491,0.0667 -0.16362,0.13334 -0.11453,0.05 -0.31087,0.0666 -0.19635,0.0333 -0.50723,0.0333 -0.29451,0 -0.49085,-0.0333 -0.19634,-0.0166 -0.31087,-0.0666 -0.11454,-0.0667 -0.16362,-0.13334 -0.0327,-0.0667 -0.0327,-0.16667 v -16.70014 q 0,-0.0999 0.0327,-0.16667 0.0491,-0.0833 0.16362,-0.13333 0.11453,-0.05 0.31087,-0.0666 0.19634,-0.0333 0.49085,-0.0333 0.31088,0 0.50723,0.0333 0.19634,0.0166 0.31087,0.0666 0.11454,0.05 0.16362,0.13333 0.0491,0.0666 0.0491,0.16667 z m 14.01398,-5.75006 q 0,1.38337 -0.35998,2.53336 -0.35996,1.15002 -1.06352,2.00002 -0.70355,0.83335 -1.76708,1.30002 -1.06352,0.46666 -2.45429,0.46666 -1.3744,0 -2.38884,-0.4 -0.99808,-0.41666 -1.68527,-1.20001 -0.67085,-0.8 -0.99809,-1.91667 -0.32723,-1.13335 -0.32723,-2.55004 0,-1.38334 0.3436,-2.53336 0.3436,-1.16667 1.04716,-2.00001 0.71993,-0.83333 1.7671,-1.3 1.06351,-0.46669 2.47064,-0.46669 1.35804,0 2.37247,0.41668 1.01445,0.41667 1.68527,1.20002 0.67084,0.78334 1.01444,1.91668 0.34362,1.11668 0.34362,2.53334 z m -2.14342,0.13334 q 0,-0.90001 -0.16363,-1.71667 -0.16361,-0.81668 -0.55629,-1.41669 -0.37633,-0.61666 -1.0308,-0.96667 -0.63813,-0.36667 -1.60348,-0.36667 -0.8999,0 -1.55437,0.33334 -0.63811,0.31668 -1.06352,0.91667 -0.40906,0.58335 -0.62176,1.40002 -0.19634,0.81667 -0.19634,1.76669 0,0.93333 0.16361,1.75 0.17998,0.80001 0.55632,1.41669 0.39268,0.60001 1.03079,0.96666 0.65447,0.35 1.63619,0.35 0.88353,0 1.52166,-0.31665 0.65448,-0.33334 1.06352,-0.91669 0.42541,-0.6 0.62176,-1.40001 0.19634,-0.81667 0.19634,-1.80002 z m 12.05873,2.55003 q 0,0.86667 -0.32724,1.55001 -0.31088,0.66667 -0.88354,1.13335 -0.57269,0.46667 -1.37441,0.69999 -0.80174,0.23334 -1.75073,0.23334 -0.58902,0 -1.12896,-0.0998 -0.52359,-0.0833 -0.94899,-0.21667 -0.42541,-0.15 -0.71992,-0.3 -0.29453,-0.16667 -0.44178,-0.28334 -0.1309,-0.13332 -0.19634,-0.34999 -0.0491,-0.23334 -0.0491,-0.61668 0,-0.25 0.0164,-0.40001 0.0327,-0.16666 0.0655,-0.26667 0.0327,-0.0999 0.0981,-0.13333 0.0818,-0.05 0.16362,-0.05 0.1309,0 0.39268,0.16666 0.2618,0.16667 0.65448,0.36666 0.39268,0.20002 0.91626,0.36668 0.52358,0.16667 1.21079,0.16667 0.52358,0 0.93263,-0.0999 0.42541,-0.11668 0.71992,-0.33334 0.31088,-0.23334 0.47449,-0.56667 0.16362,-0.33335 0.16362,-0.80002 0,-0.46667 -0.24542,-0.78334 -0.22907,-0.33333 -0.62175,-0.58333 -0.39269,-0.25001 -0.88354,-0.45001 -0.49085,-0.19999 -1.01445,-0.40001 -0.52358,-0.21666 -1.01443,-0.48333 -0.49086,-0.26666 -0.88355,-0.65001 -0.39268,-0.4 -0.63812,-0.93334 -0.24541,-0.53334 -0.24541,-1.28334 0,-0.66667 0.24541,-1.26668 0.2618,-0.61668 0.76902,-1.06667 0.50721,-0.46667 1.25986,-0.73334 0.75264,-0.28334 1.75074,-0.28334 0.44176,0 0.88353,0.0833 0.44177,0.0667 0.80173,0.18333 0.35997,0.11667 0.60539,0.25 0.2618,0.13334 0.37632,0.23333 0.1309,0.0999 0.17999,0.18334 0.0491,0.0667 0.0654,0.16666 0.0164,0.0832 0.0327,0.21668 0.0164,0.13334 0.0164,0.33333 0,0.21666 -0.0164,0.38334 -0.0164,0.15001 -0.0655,0.25001 -0.0327,0.0999 -0.0981,0.14999 -0.0654,0.0333 -0.13089,0.0333 -0.11454,0 -0.32724,-0.13335 -0.21271,-0.13334 -0.53995,-0.28332 -0.32724,-0.16668 -0.78537,-0.30001 -0.44176,-0.15 -1.01443,-0.15 -0.52358,0 -0.91627,0.13333 -0.3927,0.11667 -0.63811,0.33335 -0.24544,0.21666 -0.37634,0.51667 -0.13089,0.3 -0.13089,0.65 0,0.48333 0.24543,0.81667 0.24543,0.33334 0.63811,0.58334 0.39268,0.25001 0.88356,0.45001 0.50722,0.19999 1.03079,0.41666 0.52358,0.2 1.03079,0.46666 0.50723,0.26669 0.89992,0.65003 0.39268,0.36667 0.6381,0.9 0.24545,0.51668 0.24545,1.23335 z m 12.31642,-3.05004 q 0,0.50001 -0.24543,0.70001 -0.22907,0.20001 -0.53994,0.20001 h -7.24833 q 0,0.95001 0.17999,1.70001 0.19634,0.75001 0.62175,1.28335 0.42541,0.53334 1.11261,0.83334 0.6872,0.28334 1.68527,0.28334 0.78537,0 1.39077,-0.13335 0.62175,-0.13332 1.06352,-0.29999 0.45813,-0.16667 0.73629,-0.28333 0.29451,-0.13335 0.44176,-0.13335 0.0817,0 0.14726,0.05 0.0818,0.0333 0.11453,0.11667 0.0327,0.0833 0.0491,0.25001 0.0164,0.14999 0.0164,0.38333 0,0.14999 -0.0164,0.28333 0,0.11668 -0.0164,0.21667 -0.0164,0.0833 -0.0654,0.16667 -0.0491,0.0666 -0.11453,0.13334 -0.0654,0.0667 -0.39269,0.23333 -0.32724,0.15 -0.86717,0.3 -0.52359,0.15001 -1.22714,0.26667 -0.6872,0.11666 -1.47258,0.11666 -1.35804,0 -2.38884,-0.38333 -1.01443,-0.38334 -1.71801,-1.15001 -0.70355,-0.76668 -1.06352,-1.91668 -0.34359,-1.15001 -0.34359,-2.66669 0,-1.45002 0.35995,-2.60002 0.37634,-1.16668 1.06353,-1.96667 0.70357,-0.81669 1.68527,-1.25003 0.98172,-0.43335 2.1925,-0.43335 1.2926,0 2.20886,0.43335 0.91627,0.41668 1.5053,1.15002 0.58902,0.71666 0.86717,1.68333 0.27817,0.96669 0.27817,2.06671 z m -2.04524,-0.59998 q 0.0491,-1.63337 -0.70356,-2.55004 -0.73628,-0.93333 -2.19249,-0.93333 -0.75265,0 -1.32532,0.3 -0.55631,0.28332 -0.94899,0.76667 -0.37631,0.46667 -0.58903,1.10001 -0.19635,0.61667 -0.22907,1.31669 z m 14.58254,6.71671 q 0,0.0999 -0.0491,0.18334 -0.0327,0.0666 -0.14727,0.11667 -0.0981,0.05 -0.27814,0.0666 -0.16362,0.0333 -0.40905,0.0333 -0.2618,0 -0.44178,-0.0333 -0.16362,-0.0166 -0.27816,-0.0666 -0.0981,-0.05 -0.14724,-0.11667 -0.0491,-0.0833 -0.0491,-0.18334 v -1.48334 q -0.86717,0.96667 -1.81616,1.50001 -0.93263,0.53333 -2.04525,0.53333 -1.22713,0 -2.09432,-0.48332 -0.85082,-0.48335 -1.39075,-1.30002 -0.52359,-0.81667 -0.76903,-1.91669 -0.24541,-1.11667 -0.24541,-2.33335 0,-1.45001 0.31087,-2.61669 0.31088,-1.16668 0.89991,-1.98335 0.60539,-0.83334 1.48892,-1.28335 0.89992,-0.45001 2.0616,-0.45001 0.96537,0 1.76709,0.43334 0.8181,0.43335 1.60346,1.26669 v -6.5334 q 0,-0.0833 0.0327,-0.16666 0.0491,-0.0833 0.16362,-0.11665 0.13089,-0.05 0.31088,-0.0833 0.19634,-0.0333 0.49086,-0.0333 0.31087,0 0.50721,0.0333 0.19634,0.0333 0.29452,0.0833 0.11453,0.0333 0.16361,0.11665 0.0654,0.0833 0.0654,0.16666 z m -2.02888,-7.91673 q -0.83445,-1.03335 -1.60346,-1.56669 -0.75264,-0.54999 -1.5871,-0.54999 -0.78537,0 -1.32532,0.38333 -0.53993,0.36666 -0.88354,0.98334 -0.32724,0.60001 -0.49085,1.38334 -0.14726,0.76667 -0.14726,1.56668 0,0.85002 0.1309,1.66669 0.1309,0.81668 0.44177,1.45001 0.32723,0.63333 0.85081,1.01667 0.53995,0.36667 1.32532,0.36667 0.40904,0 0.78538,-0.0999 0.37631,-0.11666 0.769,-0.38334 0.39268,-0.26666 0.81809,-0.68334 0.42541,-0.41667 0.91626,-1.03334 z"
       id="path47"
       inkscape:connector-curvature="0"
       style="fill:#000000;fill-rule:nonzero;stroke-width:1.05687368" />
    <path
       style="opacity:0;fill:#000000;fill-opacity:0;stroke-width:0.29771096"
       d="m 407.11641,348.11266 0.0742,-83.38286 223.8862,10e-6 h 223.8862 v 83.30755 83.30754 l -223.96046,0.0753 -223.96047,0.0753 z m 223.22303,62.04897 V 390.02999 H 519.28126 408.22309 v 20.13164 20.13163 h 111.05817 111.05818 z m 223.59121,0 V 390.02999 H 742.72499 631.51935 v 20.13164 20.13163 H 742.72499 853.93065 Z M 630.33944,368.69649 V 348.56485 H 519.28126 408.22309 v 20.13164 20.13162 h 111.05817 111.05818 z m 223.59121,0 V 348.56485 H 742.72499 631.51935 v 20.13164 20.13162 H 742.72499 853.93065 Z M 630.33944,327.83228 V 308.30161 H 519.28126 408.22309 v 19.53067 19.53069 h 111.05817 111.05818 z m 223.51963,-0.0751 0.0759,-19.45557 H 742.72715 631.51935 v 19.53107 19.53108 l 111.13191,-0.0755 111.13191,-0.0755 z m -0.0759,-42.74217 v -19.2302 H 742.72499 631.66683 l -0.0759,19.30573 -0.0759,19.30572 111.13411,-0.0755 111.13407,-0.0755 z M 448.47338,298.3534 c 0.64132,-0.18137 1.60368,-0.77555 2.13856,-1.3204 0.80381,-0.81879 0.97251,-1.2188 0.97251,-2.30594 0,-2.47725 -1.50383,-3.55234 -4.96898,-3.55234 -1.46622,0 -2.14289,-0.12852 -2.41132,-0.45796 -0.55108,-0.6764 -0.16879,-0.86171 1.60502,-0.778 2.9779,0.14051 4.72831,-1.4317 4.72913,-4.24764 2.6e-4,-0.87358 0.11656,-1.12677 0.51761,-1.12677 0.54616,0 0.95143,-1.05137 0.77267,-2.00444 -0.089,-0.47473 -0.52445,-0.5773 -3.1971,-0.75316 -3.27691,-0.21561 -5.06331,0.0544 -6.00024,0.90688 -1.29801,1.18105 -1.7475,3.38433 -1.02152,5.00734 0.28715,0.64199 0.26088,0.9338 -0.14749,1.63798 -0.60317,1.04014 -0.63632,2.10761 -0.0892,2.86994 0.35511,0.49468 0.33225,0.67215 -0.17698,1.37376 -0.79744,1.09871 -0.76712,2.83041 0.0654,3.73307 1.12668,1.22166 4.70507,1.72661 7.21184,1.01768 z m -10.53422,-4.53397 c 0.64794,-0.31481 0.83298,-0.63227 0.90759,-1.55716 l 0.0937,-1.16172 -0.97865,0.18471 c -0.53824,0.10167 -1.73434,0.27159 -2.658,0.37775 -1.59373,0.18318 -1.72531,0.1462 -2.58103,-0.72547 -1.62206,-1.65228 -1.34312,-1.86612 2.43417,-1.86612 4.23095,0 4.49171,-0.15463 4.25191,-2.52137 -0.22799,-2.25011 -0.96358,-3.48563 -2.56869,-4.31437 -1.60125,-0.82675 -3.54697,-0.86853 -5.16656,-0.11095 -2.2122,1.03477 -3.09724,2.77527 -3.09724,6.09099 0,4.53688 2.00556,6.40887 6.5605,6.12366 1.09362,-0.0685 2.35463,-0.30246 2.80228,-0.51995 z m 24.48563,0.0477 c 0.8658,-0.31373 0.95868,-0.46427 0.95868,-1.55398 0,-1.19826 -0.006,-1.20534 -0.95868,-1.02486 -3.05198,0.57855 -4.19087,0.56144 -4.97892,-0.0748 -0.42654,-0.34438 -0.83953,-0.96721 -0.91776,-1.3841 l -0.14224,-0.75794 h 3.29492 c 4.2265,0 4.44261,-0.1368 4.21719,-2.6693 -0.29515,-3.31554 -2.55738,-5.14238 -5.87266,-4.74241 -3.03907,0.36664 -4.67727,2.31671 -4.91103,5.846 -0.31441,4.74698 1.96437,7.17215 6.43449,6.84788 1.05454,-0.0765 2.34874,-0.29541 2.87601,-0.48649 z m 23.16504,0.20865 c 0.52205,-0.22228 1.14599,-0.64588 1.38652,-0.9413 0.41348,-0.50785 0.44638,-0.4981 0.60324,0.17881 0.14412,0.62185 0.33864,0.71595 1.48001,0.71595 h 1.31408 v -8.55622 -8.55622 l -0.81117,-0.29059 c -0.52151,-0.18682 -1.10086,-0.18706 -1.62236,-7e-4 -0.80069,0.28617 -0.81227,0.3275 -0.89542,3.19654 l -0.0843,2.90662 -1.03505,-0.62209 c -0.79012,-0.47487 -1.35405,-0.58545 -2.38301,-0.46731 -2.79451,0.32085 -4.27768,2.55432 -4.27571,6.43871 6.1e-4,1.29009 0.15273,2.75122 0.33791,3.247 0.94773,2.53708 3.61166,3.76144 5.98519,2.7508 z m -58.0195,-0.64748 c 0.10178,-0.41315 0.10178,-1.08921 0,-1.50237 -0.1802,-0.73134 -0.25487,-0.75118 -2.8286,-0.75118 h -2.64352 l -0.0793,-6.6855 -0.0793,-6.6855 h -1.62237 -1.62236 l -0.0788,7.597 c -0.0508,4.89654 0.0315,7.807 0.23162,8.18785 0.28588,0.54414 0.6357,0.59086 4.42408,0.59086 h 4.11366 z m 41.94228,-3.36083 0.0821,-3.96177 0.89911,-0.77066 c 1.02993,-0.88278 1.79063,-0.97542 2.45472,-0.29895 0.65265,0.66481 0.75219,1.30772 0.83407,5.38749 l 0.0724,3.60566 h 1.47487 1.47489 l 0.0813,-4.57323 c 0.0614,-3.45702 -0.0225,-4.8264 -0.34408,-5.61048 -0.88408,-2.15535 -3.4911,-2.86312 -5.82974,-1.58271 -1.33534,0.73111 -1.37701,0.73537 -1.52573,0.15605 -0.12785,-0.49804 -0.36198,-0.58026 -1.42943,-0.50205 l -1.27653,0.0935 -0.0805,5.69971 c -0.0443,3.13484 -0.0125,5.88035 0.0707,6.10114 0.10409,0.27635 0.58875,0.37286 1.55536,0.30972 l 1.40415,-0.0917 z"
       id="path4540"
       inkscape:connector-curvature="0" />
    <path
       style="opacity:0;fill:#000000;fill-opacity:0;stroke-width:0.29771096"
       d="m 407.11641,348.11266 0.0742,-83.38286 223.8862,10e-6 h 223.8862 v 83.30755 83.30754 l -223.96046,0.0753 -223.96047,0.0753 z m 223.22303,62.04897 V 390.02999 H 519.28126 408.22309 v 20.13164 20.13163 h 111.05817 111.05818 z m 223.59121,0 V 390.02999 H 742.72499 631.51935 v 20.13164 20.13163 H 742.72499 853.93065 Z M 630.33944,368.69649 V 348.56485 H 519.28126 408.22309 v 20.13164 20.13162 h 111.05817 111.05818 z m 223.59121,0 V 348.56485 H 742.72499 631.51935 v 20.13164 20.13162 H 742.72499 853.93065 Z M 630.33944,327.83228 V 308.30161 H 519.28126 408.22309 v 19.53067 19.53069 h 111.05817 111.05818 z m 223.51963,-0.0751 0.0759,-19.45557 H 742.72715 631.51935 v 19.53107 19.53108 l 111.13191,-0.0755 111.13191,-0.0755 z m -0.0759,-42.74217 v -19.2302 H 742.72499 631.66683 l -0.0759,19.30573 -0.0759,19.30572 111.13411,-0.0755 111.13407,-0.0755 z M 448.47338,298.3534 c 0.64132,-0.18137 1.60368,-0.77555 2.13856,-1.3204 0.80381,-0.81879 0.97251,-1.2188 0.97251,-2.30594 0,-2.47725 -1.50383,-3.55234 -4.96898,-3.55234 -1.46622,0 -2.14289,-0.12852 -2.41132,-0.45796 -0.55108,-0.6764 -0.16879,-0.86171 1.60502,-0.778 2.9779,0.14051 4.72831,-1.4317 4.72913,-4.24764 2.6e-4,-0.87358 0.11656,-1.12677 0.51761,-1.12677 0.54616,0 0.95143,-1.05137 0.77267,-2.00444 -0.089,-0.47473 -0.52445,-0.5773 -3.1971,-0.75316 -3.27691,-0.21561 -5.06331,0.0544 -6.00024,0.90688 -1.29801,1.18105 -1.7475,3.38433 -1.02152,5.00734 0.28715,0.64199 0.26088,0.9338 -0.14749,1.63798 -0.60317,1.04014 -0.63632,2.10761 -0.0892,2.86994 0.35511,0.49468 0.33225,0.67215 -0.17698,1.37376 -0.79744,1.09871 -0.76712,2.83041 0.0654,3.73307 1.12668,1.22166 4.70507,1.72661 7.21184,1.01768 z m -10.53422,-4.53397 c 0.64794,-0.31481 0.83298,-0.63227 0.90759,-1.55716 l 0.0937,-1.16172 -0.97865,0.18471 c -0.53824,0.10167 -1.73434,0.27159 -2.658,0.37775 -1.59373,0.18318 -1.72531,0.1462 -2.58103,-0.72547 -1.62206,-1.65228 -1.34312,-1.86612 2.43417,-1.86612 4.23095,0 4.49171,-0.15463 4.25191,-2.52137 -0.22799,-2.25011 -0.96358,-3.48563 -2.56869,-4.31437 -1.60125,-0.82675 -3.54697,-0.86853 -5.16656,-0.11095 -2.2122,1.03477 -3.09724,2.77527 -3.09724,6.09099 0,4.53688 2.00556,6.40887 6.5605,6.12366 1.09362,-0.0685 2.35463,-0.30246 2.80228,-0.51995 z m 24.48563,0.0477 c 0.8658,-0.31373 0.95868,-0.46427 0.95868,-1.55398 0,-1.19826 -0.006,-1.20534 -0.95868,-1.02486 -3.05198,0.57855 -4.19087,0.56144 -4.97892,-0.0748 -0.42654,-0.34438 -0.83953,-0.96721 -0.91776,-1.3841 l -0.14224,-0.75794 h 3.29492 c 4.2265,0 4.44261,-0.1368 4.21719,-2.6693 -0.29515,-3.31554 -2.55738,-5.14238 -5.87266,-4.74241 -3.03907,0.36664 -4.67727,2.31671 -4.91103,5.846 -0.31441,4.74698 1.96437,7.17215 6.43449,6.84788 1.05454,-0.0765 2.34874,-0.29541 2.87601,-0.48649 z m 23.16504,0.20865 c 0.52205,-0.22228 1.14599,-0.64588 1.38652,-0.9413 0.41348,-0.50785 0.44638,-0.4981 0.60324,0.17881 0.14412,0.62185 0.33864,0.71595 1.48001,0.71595 h 1.31408 v -8.55622 -8.55622 l -0.81117,-0.29059 c -0.52151,-0.18682 -1.10086,-0.18706 -1.62236,-7e-4 -0.80069,0.28617 -0.81227,0.3275 -0.89542,3.19654 l -0.0843,2.90662 -1.03505,-0.62209 c -0.79012,-0.47487 -1.35405,-0.58545 -2.38301,-0.46731 -2.79451,0.32085 -4.27768,2.55432 -4.27571,6.43871 6.1e-4,1.29009 0.15273,2.75122 0.33791,3.247 0.94773,2.53708 3.61166,3.76144 5.98519,2.7508 z m -58.0195,-0.64748 c 0.10178,-0.41315 0.10178,-1.08921 0,-1.50237 -0.1802,-0.73134 -0.25487,-0.75118 -2.8286,-0.75118 h -2.64352 l -0.0793,-6.6855 -0.0793,-6.6855 h -1.62237 -1.62236 l -0.0788,7.597 c -0.0508,4.89654 0.0315,7.807 0.23162,8.18785 0.28588,0.54414 0.6357,0.59086 4.42408,0.59086 h 4.11366 z m 41.94228,-3.36083 0.0821,-3.96177 0.89911,-0.77066 c 1.02993,-0.88278 1.79063,-0.97542 2.45472,-0.29895 0.65265,0.66481 0.75219,1.30772 0.83407,5.38749 l 0.0724,3.60566 h 1.47487 1.47489 l 0.0813,-4.57323 c 0.0614,-3.45702 -0.0225,-4.8264 -0.34408,-5.61048 -0.88408,-2.15535 -3.4911,-2.86312 -5.82974,-1.58271 -1.33534,0.73111 -1.37701,0.73537 -1.52573,0.15605 -0.12785,-0.49804 -0.36198,-0.58026 -1.42943,-0.50205 l -1.27653,0.0935 -0.0805,5.69971 c -0.0443,3.13484 -0.0125,5.88035 0.0707,6.10114 0.10409,0.27635 0.58875,0.37286 1.55536,0.30972 l 1.40415,-0.0917 z"
       id="path4542"
       inkscape:connector-curvature="0" />
    <path
       style="opacity:0;fill:#000000;fill-opacity:0;stroke-width:0.29771096"
       d="m 407.11641,348.11266 0.0742,-83.38286 223.8862,10e-6 h 223.8862 v 83.30755 83.30754 l -223.96046,0.0753 -223.96047,0.0753 z m 223.22303,62.04897 V 390.02999 H 519.28126 408.22309 v 20.13164 20.13163 h 111.05817 111.05818 z m 223.59121,0 V 390.02999 H 742.72499 631.51935 v 20.13164 20.13163 H 742.72499 853.93065 Z M 630.33944,368.69649 V 348.56485 H 519.28126 408.22309 v 20.13164 20.13162 h 111.05817 111.05818 z m 223.59121,0 V 348.56485 H 742.72499 631.51935 v 20.13164 20.13162 H 742.72499 853.93065 Z M 630.33944,327.83228 V 308.30161 H 519.28126 408.22309 v 19.53067 19.53069 h 111.05817 111.05818 z m 223.51963,-0.0751 0.0759,-19.45557 H 742.72715 631.51935 v 19.53107 19.53108 l 111.13191,-0.0755 111.13191,-0.0755 z m -0.0759,-42.74217 v -19.2302 H 742.72499 631.66683 l -0.0759,19.30573 -0.0759,19.30572 111.13411,-0.0755 111.13407,-0.0755 z M 448.47338,298.3534 c 0.64132,-0.18137 1.60368,-0.77555 2.13856,-1.3204 0.80381,-0.81879 0.97251,-1.2188 0.97251,-2.30594 0,-2.47725 -1.50383,-3.55234 -4.96898,-3.55234 -1.46622,0 -2.14289,-0.12852 -2.41132,-0.45796 -0.55108,-0.6764 -0.16879,-0.86171 1.60502,-0.778 2.9779,0.14051 4.72831,-1.4317 4.72913,-4.24764 2.6e-4,-0.87358 0.11656,-1.12677 0.51761,-1.12677 0.54616,0 0.95143,-1.05137 0.77267,-2.00444 -0.089,-0.47473 -0.52445,-0.5773 -3.1971,-0.75316 -3.27691,-0.21561 -5.06331,0.0544 -6.00024,0.90688 -1.29801,1.18105 -1.7475,3.38433 -1.02152,5.00734 0.28715,0.64199 0.26088,0.9338 -0.14749,1.63798 -0.60317,1.04014 -0.63632,2.10761 -0.0892,2.86994 0.35511,0.49468 0.33225,0.67215 -0.17698,1.37376 -0.79744,1.09871 -0.76712,2.83041 0.0654,3.73307 1.12668,1.22166 4.70507,1.72661 7.21184,1.01768 z m -10.53422,-4.53397 c 0.64794,-0.31481 0.83298,-0.63227 0.90759,-1.55716 l 0.0937,-1.16172 -0.97865,0.18471 c -0.53824,0.10167 -1.73434,0.27159 -2.658,0.37775 -1.59373,0.18318 -1.72531,0.1462 -2.58103,-0.72547 -1.62206,-1.65228 -1.34312,-1.86612 2.43417,-1.86612 4.23095,0 4.49171,-0.15463 4.25191,-2.52137 -0.22799,-2.25011 -0.96358,-3.48563 -2.56869,-4.31437 -1.60125,-0.82675 -3.54697,-0.86853 -5.16656,-0.11095 -2.2122,1.03477 -3.09724,2.77527 -3.09724,6.09099 0,4.53688 2.00556,6.40887 6.5605,6.12366 1.09362,-0.0685 2.35463,-0.30246 2.80228,-0.51995 z m 24.48563,0.0477 c 0.8658,-0.31373 0.95868,-0.46427 0.95868,-1.55398 0,-1.19826 -0.006,-1.20534 -0.95868,-1.02486 -3.05198,0.57855 -4.19087,0.56144 -4.97892,-0.0748 -0.42654,-0.34438 -0.83953,-0.96721 -0.91776,-1.3841 l -0.14224,-0.75794 h 3.29492 c 4.2265,0 4.44261,-0.1368 4.21719,-2.6693 -0.29515,-3.31554 -2.55738,-5.14238 -5.87266,-4.74241 -3.03907,0.36664 -4.67727,2.31671 -4.91103,5.846 -0.31441,4.74698 1.96437,7.17215 6.43449,6.84788 1.05454,-0.0765 2.34874,-0.29541 2.87601,-0.48649 z m 23.16504,0.20865 c 0.52205,-0.22228 1.14599,-0.64588 1.38652,-0.9413 0.41348,-0.50785 0.44638,-0.4981 0.60324,0.17881 0.14412,0.62185 0.33864,0.71595 1.48001,0.71595 h 1.31408 v -8.55622 -8.55622 l -0.81117,-0.29059 c -0.52151,-0.18682 -1.10086,-0.18706 -1.62236,-7e-4 -0.80069,0.28617 -0.81227,0.3275 -0.89542,3.19654 l -0.0843,2.90662 -1.03505,-0.62209 c -0.79012,-0.47487 -1.35405,-0.58545 -2.38301,-0.46731 -2.79451,0.32085 -4.27768,2.55432 -4.27571,6.43871 6.1e-4,1.29009 0.15273,2.75122 0.33791,3.247 0.94773,2.53708 3.61166,3.76144 5.98519,2.7508 z m -58.0195,-0.64748 c 0.10178,-0.41315 0.10178,-1.08921 0,-1.50237 -0.1802,-0.73134 -0.25487,-0.75118 -2.8286,-0.75118 h -2.64352 l -0.0793,-6.6855 -0.0793,-6.6855 h -1.62237 -1.62236 l -0.0788,7.597 c -0.0508,4.89654 0.0315,7.807 0.23162,8.18785 0.28588,0.54414 0.6357,0.59086 4.42408,0.59086 h 4.11366 z m 41.94228,-3.36083 0.0821,-3.96177 0.89911,-0.77066 c 1.02993,-0.88278 1.79063,-0.97542 2.45472,-0.29895 0.65265,0.66481 0.75219,1.30772 0.83407,5.38749 l 0.0724,3.60566 h 1.47487 1.47489 l 0.0813,-4.57323 c 0.0614,-3.45702 -0.0225,-4.8264 -0.34408,-5.61048 -0.88408,-2.15535 -3.4911,-2.86312 -5.82974,-1.58271 -1.33534,0.73111 -1.37701,0.73537 -1.52573,0.15605 -0.12785,-0.49804 -0.36198,-0.58026 -1.42943,-0.50205 l -1.27653,0.0935 -0.0805,5.69971 c -0.0443,3.13484 -0.0125,5.88035 0.0707,6.10114 0.10409,0.27635 0.58875,0.37286 1.55536,0.30972 l 1.40415,-0.0917 z"
       id="path4544"
       inkscape:connector-curvature="0" />
    <path
       style="opacity:0;fill:#000000;fill-opacity:0;stroke-width:0.29771096"
       d="m 407.11641,348.11266 0.0742,-83.38286 223.8862,10e-6 h 223.8862 v 83.30755 83.30754 l -223.96046,0.0753 -223.96047,0.0753 z m 223.22303,62.04897 V 390.02999 H 519.28126 408.22309 v 20.13164 20.13163 h 111.05817 111.05818 z m 223.59121,0 V 390.02999 H 742.72499 631.51935 v 20.13164 20.13163 H 742.72499 853.93065 Z M 630.33944,368.69649 V 348.56485 H 519.28126 408.22309 v 20.13164 20.13162 h 111.05817 111.05818 z m 223.59121,0 V 348.56485 H 742.72499 631.51935 v 20.13164 20.13162 H 742.72499 853.93065 Z M 630.33944,327.83228 V 308.30161 H 519.28126 408.22309 v 19.53067 19.53069 h 111.05817 111.05818 z m 223.51963,-0.0751 0.0759,-19.45557 H 742.72715 631.51935 v 19.53107 19.53108 l 111.13191,-0.0755 111.13191,-0.0755 z m -0.0759,-42.74217 v -19.2302 H 742.72499 631.66683 l -0.0759,19.30573 -0.0759,19.30572 111.13411,-0.0755 111.13407,-0.0755 z M 448.47338,298.3534 c 0.64132,-0.18137 1.60368,-0.77555 2.13856,-1.3204 0.80381,-0.81879 0.97251,-1.2188 0.97251,-2.30594 0,-2.47725 -1.50383,-3.55234 -4.96898,-3.55234 -1.46622,0 -2.14289,-0.12852 -2.41132,-0.45796 -0.55108,-0.6764 -0.16879,-0.86171 1.60502,-0.778 2.9779,0.14051 4.72831,-1.4317 4.72913,-4.24764 2.6e-4,-0.87358 0.11656,-1.12677 0.51761,-1.12677 0.54616,0 0.95143,-1.05137 0.77267,-2.00444 -0.089,-0.47473 -0.52445,-0.5773 -3.1971,-0.75316 -3.27691,-0.21561 -5.06331,0.0544 -6.00024,0.90688 -1.29801,1.18105 -1.7475,3.38433 -1.02152,5.00734 0.28715,0.64199 0.26088,0.9338 -0.14749,1.63798 -0.60317,1.04014 -0.63632,2.10761 -0.0892,2.86994 0.35511,0.49468 0.33225,0.67215 -0.17698,1.37376 -0.79744,1.09871 -0.76712,2.83041 0.0654,3.73307 1.12668,1.22166 4.70507,1.72661 7.21184,1.01768 z m -10.53422,-4.53397 c 0.64794,-0.31481 0.83298,-0.63227 0.90759,-1.55716 l 0.0937,-1.16172 -0.97865,0.18471 c -0.53824,0.10167 -1.73434,0.27159 -2.658,0.37775 -1.59373,0.18318 -1.72531,0.1462 -2.58103,-0.72547 -1.62206,-1.65228 -1.34312,-1.86612 2.43417,-1.86612 4.23095,0 4.49171,-0.15463 4.25191,-2.52137 -0.22799,-2.25011 -0.96358,-3.48563 -2.56869,-4.31437 -1.60125,-0.82675 -3.54697,-0.86853 -5.16656,-0.11095 -2.2122,1.03477 -3.09724,2.77527 -3.09724,6.09099 0,4.53688 2.00556,6.40887 6.5605,6.12366 1.09362,-0.0685 2.35463,-0.30246 2.80228,-0.51995 z m 24.48563,0.0477 c 0.8658,-0.31373 0.95868,-0.46427 0.95868,-1.55398 0,-1.19826 -0.006,-1.20534 -0.95868,-1.02486 -3.05198,0.57855 -4.19087,0.56144 -4.97892,-0.0748 -0.42654,-0.34438 -0.83953,-0.96721 -0.91776,-1.3841 l -0.14224,-0.75794 h 3.29492 c 4.2265,0 4.44261,-0.1368 4.21719,-2.6693 -0.29515,-3.31554 -2.55738,-5.14238 -5.87266,-4.74241 -3.03907,0.36664 -4.67727,2.31671 -4.91103,5.846 -0.31441,4.74698 1.96437,7.17215 6.43449,6.84788 1.05454,-0.0765 2.34874,-0.29541 2.87601,-0.48649 z m 23.16504,0.20865 c 0.52205,-0.22228 1.14599,-0.64588 1.38652,-0.9413 0.41348,-0.50785 0.44638,-0.4981 0.60324,0.17881 0.14412,0.62185 0.33864,0.71595 1.48001,0.71595 h 1.31408 v -8.55622 -8.55622 l -0.81117,-0.29059 c -0.52151,-0.18682 -1.10086,-0.18706 -1.62236,-7e-4 -0.80069,0.28617 -0.81227,0.3275 -0.89542,3.19654 l -0.0843,2.90662 -1.03505,-0.62209 c -0.79012,-0.47487 -1.35405,-0.58545 -2.38301,-0.46731 -2.79451,0.32085 -4.27768,2.55432 -4.27571,6.43871 6.1e-4,1.29009 0.15273,2.75122 0.33791,3.247 0.94773,2.53708 3.61166,3.76144 5.98519,2.7508 z m -58.0195,-0.64748 c 0.10178,-0.41315 0.10178,-1.08921 0,-1.50237 -0.1802,-0.73134 -0.25487,-0.75118 -2.8286,-0.75118 h -2.64352 l -0.0793,-6.6855 -0.0793,-6.6855 h -1.62237 -1.62236 l -0.0788,7.597 c -0.0508,4.89654 0.0315,7.807 0.23162,8.18785 0.28588,0.54414 0.6357,0.59086 4.42408,0.59086 h 4.11366 z m 41.94228,-3.36083 0.0821,-3.96177 0.89911,-0.77066 c 1.02993,-0.88278 1.79063,-0.97542 2.45472,-0.29895 0.65265,0.66481 0.75219,1.30772 0.83407,5.38749 l 0.0724,3.60566 h 1.47487 1.47489 l 0.0813,-4.57323 c 0.0614,-3.45702 -0.0225,-4.8264 -0.34408,-5.61048 -0.88408,-2.15535 -3.4911,-2.86312 -5.82974,-1.58271 -1.33534,0.73111 -1.37701,0.73537 -1.52573,0.15605 -0.12785,-0.49804 -0.36198,-0.58026 -1.42943,-0.50205 l -1.27653,0.0935 -0.0805,5.69971 c -0.0443,3.13484 -0.0125,5.88035 0.0707,6.10114 0.10409,0.27635 0.58875,0.37286 1.55536,0.30972 l 1.40415,-0.0917 z"
       id="path4546"
       inkscape:connector-curvature="0" />
    <path
       style="opacity:0;fill:#000000;fill-opacity:0;stroke-width:0.29771096"
       d="m 631.81432,368.54624 v -19.98139 h 110.91067 110.91069 v 19.98139 19.9814 H 742.72499 631.81432 Z"
       id="path4548"
       inkscape:connector-curvature="0" />
    <path
       style="opacity:0;fill:#000000;fill-opacity:0;stroke-width:0.29771096"
       d="m 631.81432,368.54624 v -19.98139 h 110.91067 110.91069 v 19.98139 19.9814 H 742.72499 631.81432 Z"
       id="path4550"
       inkscape:connector-curvature="0" />
    <rect
       style="opacity:0;fill:#ffffff;fill-opacity:0;stroke-width:1.05687368"
       id="rect4515"
       width="446.55969"
       height="165.33202"
       x="408.40335"
       y="266.01288" />
    <rect
       style="opacity:0;fill:#ffffff;fill-opacity:0;stroke-width:1.05687368"
       id="rect4517"
       width="466.70013"
       height="175.30418"
       x="388.26291"
       y="256.04074" />
    <rect
       style="opacity:0;fill:#ffffff;fill-opacity:0;stroke-width:1.05687368"
       id="rect4519"
       width="466.70013"
       height="175.3042"
       x="388.26291"
       y="256.04074" />
    <rect
       style="opacity:0;fill:#ffffff;fill-opacity:0;stroke-width:1.05687368"
       id="rect4525"
       width="446.55969"
       height="165.33206"
       x="408.40338"
       y="266.01288" />
  </g>
  <path
     style="opacity:0;fill:#ffffff;fill-opacity:0;stroke-width:1.1267606"
     d="M 19.233352,26.813586 V 9.3487954 H 125.14884 231.06434 V 26.813586 44.278376 H 125.14884 19.233352 Z m 41.12356,10.71431 c 0.97816,-3.0819 -0.14444,-4.48936 -3.72527,-4.67057 -2.74317,-0.13882 -2.78473,-0.20073 -0.43617,-0.6497 2.29607,-0.43894 4.72802,-4.12056 4.72802,-7.15753 0,-1.6101 -9.00939,-1.2756 -9.56288,0.35504 -0.85107,2.5073 -1.6063,12.48712 -1.01712,13.44043 0.31468,0.50917 2.53623,0.92577 4.93677,0.92577 3.36849,0 4.52712,-0.51202 5.07665,-2.24344 z m -22.59364,-2.16389 c 0.37383,-0.60486 1.95397,-0.5291 3.84401,0.18431 3.38821,1.27891 6.92185,0.57675 6.92185,-1.37542 0,-0.63917 -1.23769,-1.16213 -2.75041,-1.16213 -1.51272,0 -3.06377,-0.50704 -3.44678,-1.12676 -0.40514,-0.65553 0.71731,-1.12676 2.68391,-1.12676 4.02161,0 4.69809,-0.83644 3.41729,-4.22535 -0.68287,-1.80682 -1.87503,-2.53521 -4.1494,-2.53521 -4.03883,0 -5.89546,1.8452 -5.89546,5.85915 0,2.59695 -0.48825,3.15493 -2.76067,3.15493 -2.57047,0 -2.78396,-0.44638 -3.09859,-6.47887 -0.25336,-4.85764 -0.76085,-6.47887 -2.02806,-6.47887 -1.2722,0 -1.77485,1.64058 -2.0327,6.63439 -0.18841,3.64892 -0.0776,7.32498 0.24632,8.16902 0.66078,1.72196 8.04226,2.13601 9.04869,0.50757 z m 34.15326,-0.94479 c 0.30274,-0.9222 -0.73706,-1.40845 -3.01182,-1.40845 -1.9108,0 -3.47418,-0.50704 -3.47418,-1.12676 0,-0.61972 1.55481,-1.12676 3.45513,-1.12676 3.10448,0 3.41894,-0.31445 3.09859,-3.09859 -0.28218,-2.45241 -1.01692,-3.17431 -3.52326,-3.4617 -1.7417,-0.19971 -3.89663,0.24266 -4.78873,0.98304 -1.99179,1.65303 -2.13204,7.99679 -0.2191,9.90974 1.73311,1.73311 7.83296,1.24984 8.46337,-0.67052 z m 6.12204,-2.16642 c 0.50232,-5.9441 3.16661,-6.33339 3.16661,-0.46268 0,3.40739 0.45372,4.60094 1.74903,4.60094 1.402,0 1.68145,-1.17367 1.40845,-5.9155 l -0.34058,-5.91549 -4.78873,-0.34648 -4.78873,-0.34647 v 6.26197 c 0,4.69832 0.40505,6.26197 1.62212,6.26197 1.05373,0 1.74466,-1.45005 1.97183,-4.13826 z m 19.50464,-4.8991 c 0,-6.73988 -0.33844,-8.42743 -1.69014,-8.42743 -0.92958,0 -1.85217,1.14084 -2.0502,2.53521 -0.21498,1.51368 -1.1457,2.53521 -2.30986,2.53521 -2.92984,0 -4.65403,2.29589 -4.65403,6.19718 0,4.63082 1.86037,6.26592 6.70608,5.89407 l 3.99815,-0.30681 z"
     id="path4534"
     inkscape:connector-curvature="0" />
  <path
     style="opacity:0;fill:#ffffff;fill-opacity:0;stroke-width:1.1267606"
     d="M 19.233352,26.813586 V 9.3487954 H 125.14884 231.06434 V 26.813586 44.278376 H 125.14884 19.233352 Z m 41.12356,10.71431 c 0.97816,-3.0819 -0.14444,-4.48936 -3.72527,-4.67057 -2.74317,-0.13882 -2.78473,-0.20073 -0.43617,-0.6497 2.29607,-0.43894 4.72802,-4.12056 4.72802,-7.15753 0,-1.6101 -9.00939,-1.2756 -9.56288,0.35504 -0.85107,2.5073 -1.6063,12.48712 -1.01712,13.44043 0.31468,0.50917 2.53623,0.92577 4.93677,0.92577 3.36849,0 4.52712,-0.51202 5.07665,-2.24344 z m -22.59364,-2.16389 c 0.37383,-0.60486 1.95397,-0.5291 3.84401,0.18431 3.38821,1.27891 6.92185,0.57675 6.92185,-1.37542 0,-0.63917 -1.23769,-1.16213 -2.75041,-1.16213 -1.51272,0 -3.06377,-0.50704 -3.44678,-1.12676 -0.40514,-0.65553 0.71731,-1.12676 2.68391,-1.12676 4.02161,0 4.69809,-0.83644 3.41729,-4.22535 -0.68287,-1.80682 -1.87503,-2.53521 -4.1494,-2.53521 -4.03883,0 -5.89546,1.8452 -5.89546,5.85915 0,2.59695 -0.48825,3.15493 -2.76067,3.15493 -2.57047,0 -2.78396,-0.44638 -3.09859,-6.47887 -0.25336,-4.85764 -0.76085,-6.47887 -2.02806,-6.47887 -1.2722,0 -1.77485,1.64058 -2.0327,6.63439 -0.18841,3.64892 -0.0776,7.32498 0.24632,8.16902 0.66078,1.72196 8.04226,2.13601 9.04869,0.50757 z m 34.15326,-0.94479 c 0.30274,-0.9222 -0.73706,-1.40845 -3.01182,-1.40845 -1.9108,0 -3.47418,-0.50704 -3.47418,-1.12676 0,-0.61972 1.55481,-1.12676 3.45513,-1.12676 3.10448,0 3.41894,-0.31445 3.09859,-3.09859 -0.28218,-2.45241 -1.01692,-3.17431 -3.52326,-3.4617 -1.7417,-0.19971 -3.89663,0.24266 -4.78873,0.98304 -1.99179,1.65303 -2.13204,7.99679 -0.2191,9.90974 1.73311,1.73311 7.83296,1.24984 8.46337,-0.67052 z m 6.12204,-2.16642 c 0.50232,-5.9441 3.16661,-6.33339 3.16661,-0.46268 0,3.40739 0.45372,4.60094 1.74903,4.60094 1.402,0 1.68145,-1.17367 1.40845,-5.9155 l -0.34058,-5.91549 -4.78873,-0.34648 -4.78873,-0.34647 v 6.26197 c 0,4.69832 0.40505,6.26197 1.62212,6.26197 1.05373,0 1.74466,-1.45005 1.97183,-4.13826 z m 19.50464,-4.8991 c 0,-6.73988 -0.33844,-8.42743 -1.69014,-8.42743 -0.92958,0 -1.85217,1.14084 -2.0502,2.53521 -0.21498,1.51368 -1.1457,2.53521 -2.30986,2.53521 -2.92984,0 -4.65403,2.29589 -4.65403,6.19718 0,4.63082 1.86037,6.26592 6.70608,5.89407 l 3.99815,-0.30681 z"
     id="path4536"
     inkscape:connector-curvature="0" />
  <path
     style="opacity:0;fill:#ffffff;fill-opacity:0;stroke-width:1.1267606"
     d="M 19.233352,26.813586 V 9.3487954 H 125.14884 231.06434 V 26.813586 44.278376 H 125.14884 19.233352 Z m 41.12356,10.71431 c 0.97816,-3.0819 -0.14444,-4.48936 -3.72527,-4.67057 -2.74317,-0.13882 -2.78473,-0.20073 -0.43617,-0.6497 2.29607,-0.43894 4.72802,-4.12056 4.72802,-7.15753 0,-1.6101 -9.00939,-1.2756 -9.56288,0.35504 -0.85107,2.5073 -1.6063,12.48712 -1.01712,13.44043 0.31468,0.50917 2.53623,0.92577 4.93677,0.92577 3.36849,0 4.52712,-0.51202 5.07665,-2.24344 z m -22.59364,-2.16389 c 0.37383,-0.60486 1.95397,-0.5291 3.84401,0.18431 3.38821,1.27891 6.92185,0.57675 6.92185,-1.37542 0,-0.63917 -1.23769,-1.16213 -2.75041,-1.16213 -1.51272,0 -3.06377,-0.50704 -3.44678,-1.12676 -0.40514,-0.65553 0.71731,-1.12676 2.68391,-1.12676 4.02161,0 4.69809,-0.83644 3.41729,-4.22535 -0.68287,-1.80682 -1.87503,-2.53521 -4.1494,-2.53521 -4.03883,0 -5.89546,1.8452 -5.89546,5.85915 0,2.59695 -0.48825,3.15493 -2.76067,3.15493 -2.57047,0 -2.78396,-0.44638 -3.09859,-6.47887 -0.25336,-4.85764 -0.76085,-6.47887 -2.02806,-6.47887 -1.2722,0 -1.77485,1.64058 -2.0327,6.63439 -0.18841,3.64892 -0.0776,7.32498 0.24632,8.16902 0.66078,1.72196 8.04226,2.13601 9.04869,0.50757 z m 34.15326,-0.94479 c 0.30274,-0.9222 -0.73706,-1.40845 -3.01182,-1.40845 -1.9108,0 -3.47418,-0.50704 -3.47418,-1.12676 0,-0.61972 1.55481,-1.12676 3.45513,-1.12676 3.10448,0 3.41894,-0.31445 3.09859,-3.09859 -0.28218,-2.45241 -1.01692,-3.17431 -3.52326,-3.4617 -1.7417,-0.19971 -3.89663,0.24266 -4.78873,0.98304 -1.99179,1.65303 -2.13204,7.99679 -0.2191,9.90974 1.73311,1.73311 7.83296,1.24984 8.46337,-0.67052 z m 6.12204,-2.16642 c 0.50232,-5.9441 3.16661,-6.33339 3.16661,-0.46268 0,3.40739 0.45372,4.60094 1.74903,4.60094 1.402,0 1.68145,-1.17367 1.40845,-5.9155 l -0.34058,-5.91549 -4.78873,-0.34648 -4.78873,-0.34647 v 6.26197 c 0,4.69832 0.40505,6.26197 1.62212,6.26197 1.05373,0 1.74466,-1.45005 1.97183,-4.13826 z m 19.50464,-4.8991 c 0,-6.73988 -0.33844,-8.42743 -1.69014,-8.42743 -0.92958,0 -1.85217,1.14084 -2.0502,2.53521 -0.21498,1.51368 -1.1457,2.53521 -2.30986,2.53521 -2.92984,0 -4.65403,2.29589 -4.65403,6.19718 0,4.63082 1.86037,6.26592 6.70608,5.89407 l 3.99815,-0.30681 z"
     id="path4538"
     inkscape:connector-curvature="0" />
</svg>
