<?xml version="1.0" encoding="utf-8"?>
<!-- Generator: Adobe Illustrator 18.0.0, SVG Export Plug-In . SVG Version: 6.00 Build 0)  -->
<!DOCTYPE svg PUBLIC "-//W3C//DTD SVG 1.1//EN" "http://www.w3.org/Graphics/SVG/1.1/DTD/svg11.dtd">
<svg version="1.1" id="Capa_1" xmlns="http://www.w3.org/2000/svg" xmlns:xlink="http://www.w3.org/1999/xlink" x="0px" y="0px"
	 viewBox="0 0 512 512" enable-background="new 0 0 512 512" xml:space="preserve">
<g>
	<g id="XMLID_1_">
		<g>
			<path fill="#127D2A" d="M398.7,341.6c3.3,10.1,0,24.5-7.5,31.9L370.7,394c-3.7,3.7-14.4,5.9-14.7,5.9
				c-64.9,0.6-127.3-24.9-173.2-70.8c-46-46-71.5-108.7-70.8-173.7c0,0,2.3-10.4,6-14.1l20.5-20.5c7.5-7.5,21.9-10.9,32-7.6l4.3,1.4
				c10.1,3.4,20.6,14.5,23.4,24.8l10.3,37.8c2.8,10.3-1,24.9-8.5,32.4l-13.7,13.7c13.4,49.8,52.5,88.8,102.2,102.3l13.7-13.7
				c7.5-7.5,22.2-11.3,32.4-8.5l37.8,10.4c10.3,2.8,21.4,13.3,24.8,23.4L398.7,341.6z"/>
			<path fill="#FFFFFF" d="M512,256c0,141.4-114.6,256-256,256C114.6,512,0,397.4,0,256S114.6,0,256,0S512,114.6,512,256z
				 M391.2,373.5c7.5-7.5,10.9-21.9,7.5-31.9l-1.4-4.4c-3.4-10.1-14.5-20.6-24.8-23.4l-37.8-10.4c-10.3-2.8-24.9,1-32.4,8.5
				l-13.7,13.7c-49.8-13.5-88.8-52.5-102.2-102.3l13.7-13.7c7.5-7.5,11.3-22.1,8.5-32.4l-10.3-37.8c-2.8-10.3-13.3-21.4-23.4-24.8
				l-4.3-1.4c-10.1-3.4-24.5,0-32,7.6L118,141.4c-3.7,3.6-6,14-6,14.1c-0.7,65.1,24.8,127.7,70.8,173.7
				c45.9,45.9,108.3,71.4,173.2,70.8c0.3,0,11.1-2.3,14.7-5.9L391.2,373.5z"/>
		</g>
		<g>
		</g>
	</g>
</g>
</svg>
