<?xml version="1.0" encoding="utf-8"?>
<!-- Generator: Adobe Illustrator 19.1.0, SVG Export Plug-In . SVG Version: 6.00 Build 0)  -->
<svg version="1.0" id="Layer_1" xmlns="http://www.w3.org/2000/svg" xmlns:xlink="http://www.w3.org/1999/xlink" x="0px" y="0px"
	 viewBox="0 0 612 200" style="enable-background:new 0 0 612 200;" xml:space="preserve">
<style type="text/css">
	.st0{fill:#FFFFFF;}
</style>
<g>
	<path class="st0" d="M17,86.6c0.9-3.7,1.6-7.5,2.6-11.1c5.9-20.4,19.5-34,38.1-43.1c10.6-5.2,21.8-8.1,33.7-9.5
		c0,14.6,0,29.1,0,43.5c-0.1,0-0.2,0.1-0.4,0.1c-1.9-7.4-3.8-14.8-5.8-22.2c-0.2,0-0.3,0.1-0.5,0.1c0,8.1,0,16.3,0,24.4
		c-0.2,0.1-0.4,0.2-0.6,0.3c-4.1-7.8-8.2-15.5-12.3-23.3c-0.2,0.1-0.4,0.1-0.7,0.2c2,8.2,4,16.5,5.9,24.7c-0.2,0.1-0.4,0.2-0.7,0.3
		c-5.4-6.4-10.9-12.8-16.3-19.2c-0.2,0.1-0.5,0.3-0.7,0.4c3.9,7.6,7.9,15.2,11.8,22.9c-0.2,0.2-0.4,0.3-0.6,0.5
		C63.9,70.9,57,66,50.2,61.1c-0.2,0.2-0.4,0.4-0.6,0.6C55.3,68.1,61,74.6,66.6,81c-0.1,0.2-0.2,0.4-0.3,0.6
		c-7.7-2.9-15.4-5.8-23.1-8.8c-0.1,0.2-0.3,0.4-0.4,0.6c6.5,4.7,13.1,9.4,19.6,14c-0.1,0.3-0.1,0.5-0.2,0.8
		c-8.8-1.2-17.5-2.3-26.3-3.5c0,0.1-0.1,0.3-0.1,0.4c8.2,3.4,16.4,6.7,24.5,10.1c0,0.2,0,0.4-0.1,0.7c-8,1.1-15.9,2.2-23.9,3.3
		c0,0.3,0,0.5-0.1,0.8c8,1.1,16.1,2.3,24.1,3.4c0,0.2,0.1,0.4,0.1,0.6c-8.2,2.9-16.4,5.9-24.6,8.8c0,0.3,0.1,0.5,0.1,0.8
		c8.6-0.9,17.2-1.7,25.8-2.6c0.1,0.2,0.2,0.4,0.3,0.6c-6.9,4.8-13.9,9.6-20.8,14.4c0.1,0.2,0.2,0.4,0.3,0.6
		c8.2-2.9,16.4-5.8,25.5-9.1c-6.4,7.2-12.1,13.6-17.8,20.1c0.2,0.2,0.4,0.4,0.6,0.7c6.9-4.7,13.8-9.4,20.7-14.1
		c0.2,0.2,0.5,0.3,0.7,0.5c-4,7.5-7.9,15.1-11.9,22.6c0.2,0.1,0.4,0.3,0.6,0.4c5.7-6.3,11.4-12.5,17.1-18.8c0.2,0.1,0.5,0.2,0.7,0.3
		c-2,8.4-4,16.8-6,25.2c0.2,0.1,0.4,0.1,0.6,0.2c4-7.6,8.1-15.3,12.5-23.7c0,9.9,0,18.9,0,27.9c0.2,0,0.3,0.1,0.5,0.1
		c2-7.8,4.1-15.6,6.1-23.4c0.1,0,0.2,0.1,0.3,0.1c0,13.6,0,27.1,0,41.7c-7.7-1.7-15.1-2.6-22.1-5C39,162,21.8,140.1,17.7,107.8
		c-0.1-0.8-0.5-1.6-0.7-2.4C17,99.2,17,92.9,17,86.6z"/>
	<path class="st0" d="M152.5,179.4c-5.9-2.3-9.5-6.9-12.3-12.4c-2.8-5.3-5.9-10.5-9.3-16.5c0,9.4,0,18.2,0,27.1
		c-7.4,0-14.4,0-21.6,0c-0.1-1.1-0.2-2.3-0.2-3.5c0-16.7,0-33.3,0-50c0-7.6,2.7-12.5,7.8-14.1c6.3-2,12.9,0.2,16.9,6.6
		c3.9,6.2,7.3,12.8,10.8,19.2c0.3,0.5,0.6,1,1.4,1.3c0-8.7,0-17.4,0-26.3c7.3,0,14.2,0,21.7,0c0,1.3,0,2.6,0,3.9
		c0,16.7-0.1,33.3,0,50c0.1,7.1-2.2,12.5-9.4,14.7C156.4,179.4,154.4,179.4,152.5,179.4z"/>
	<path class="st0" d="M235.1,21.4c7.2,4.1,10.1,11.6,13.8,18.3c1.5,2.8,3.1,5.6,5.3,8.4c0-8.6,0-17.1,0-25.8c7.3,0,14,0,21.2,0
		c0.1,1.3,0.2,2.5,0.2,3.8c0,16.2,0,32.3,0,48.5c0,1.9-0.3,3.8-0.5,5.8c-1,11-12.7,12.8-18.9,8c-2.3-1.8-4.2-4.3-5.7-6.9
		c-3.7-6.2-7-12.5-10.9-19.5c0,9.5,0,18.2,0,27.2c-7.1,0-13.9,0-21,0c0-1.2,0-2.4,0-3.6c0-16.5,0.1-33.1,0-49.6
		c0-6.2,1.6-11.3,7.2-14.6C228.8,21.4,232,21.4,235.1,21.4z"/>
	<path class="st0" d="M300.3,21.4c4.9,2.7,8.2,6.9,10.7,11.8c2.7,5.3,5.5,10.4,8.8,16.5c0-9.6,0-18.3,0-27.3c7.2,0,13.9,0,20.8,0
		c0.1,0.6,0.3,1.3,0.3,2c0,17.9,0.1,35.7,0,53.6c0,7.9-4.2,12.6-11.2,12.9c-5.8,0.2-9.9-2.7-12.7-7.5c-3.9-6.8-7.7-13.6-12-21.3
		c0,9.6,0,18.3,0,27.3c-7.2,0-13.9,0-21.2,0c0-1.1,0-2.3,0-3.4c0-16.2,0-32.4,0-48.5c0-6.4,1.3-12.1,7.1-15.9
		C294,21.4,297.2,21.4,300.3,21.4z"/>
	<path class="st0" d="M201.8,179.4c-1.7-0.4-3.5-0.7-5.2-1.2c-11.3-2.9-19.3-11.6-19.9-23.8c-0.7-14.4-0.2-28.9-0.2-43.6
		c7,0,14,0,21.6,0c0,1.2,0,2.4,0,3.7c0,11.9,0,23.9,0,35.8c0,1.5,0.2,3.1,0.7,4.6c0.8,2.7,3,3.7,5.6,3.4c2.6-0.3,4.2-1.8,4.6-4.3
		c0.3-1.8,0.4-3.6,0.4-5.4c0-11.2,0-22.4,0-33.7c0-1.3,0-2.6,0-4.1c7.4,0,14.5,0,22,0c0,1.8,0,3.6,0,5.4c0,11.6,0.1,23.2-0.1,34.7
		c-0.2,14-7.9,24.1-20.4,27.3c-1.6,0.4-3.2,0.8-4.8,1.2C204.7,179.4,203.2,179.4,201.8,179.4z"/>
	<path class="st0" d="M596.7,163.5c-4.4,11.3-13.6,14.3-24.5,14.4c-7.7,0.1-15.4,0-23.3,0c0-6.6,0-12.8,0-19.5
		c1.3-0.1,2.5-0.2,3.8-0.2c4.8,0,9.7,0.1,14.5-0.1c1.2-0.1,3.1-0.9,3.4-1.8c0.3-1-0.6-2.8-1.6-3.6c-4.1-3.4-8.4-6.4-12.6-9.8
		c-6.2-5-8.8-11.3-6.8-19.2c1.2-4.9,4.5-8.3,9-10.2c2.8-1.2,5.9-2.4,9-2.5c8.8-0.3,17.5-0.1,26.5-0.1c0,6.2,0,12.4,0,19
		c-5.5,0-10.8-0.1-16.1,0.1c-1.3,0-2.6,0.7-3.9,1.1c0.8,1.2,1.3,2.8,2.4,3.7c2.6,2.3,5.5,4.3,8.3,6.4c5,3.6,9.5,7.6,11.9,13.6
		C596.7,157.7,596.7,160.6,596.7,163.5z"/>
	<path class="st0" d="M293.6,177.7c-7.4,0-14.5,0-21.9,0c0-5.1,0-10,0-14.9c0-7.3-0.3-7.6-7.6-8.3c0-5.3,0-10.6,0-16.1
		c1.3-0.3,2.8-0.5,4.2-0.9c2.6-0.6,4-2.4,3.8-5c-0.3-2.6-1.9-4.4-4.7-4.6c-2.9-0.2-4.7,1-5.3,3.8c-0.4,2-0.3,4.1-0.3,6.1
		c0,12,0,23.9,0,35.9c0,1.3,0,2.6,0,4.1c-7.5,0-14.6,0-21.9,0c-0.1-0.8-0.2-1.5-0.2-2.2c0-13.3-0.1-26.6,0-39.8
		c0.1-13,7-22.4,18.6-25.3c9.8-2.5,18.9-0.9,27,5.3c3.7,2.9,6.2,6.7,7.1,11.4c1.2,6.8-0.7,12.4-7.4,16.4c7.6,2.7,8.7,8.7,8.7,15.2
		C293.6,165,293.6,171.3,293.6,177.7z"/>
	<path class="st0" d="M451.7,143.7c5.8,2.3,8.1,6.6,8.1,12.4c0,7.1,0,14.2,0,21.6c-7.1,0-14.2,0-21.7,0c0-4.8,0-9.6,0-14.4
		c0-7.8,0-7.8-7.7-8.9c0-5.2,0-10.5,0-16c1.4-0.3,3-0.6,4.4-0.9c2.6-0.7,3.8-2.5,3.5-5.1c-0.3-2.7-2-4.3-4.8-4.5
		c-2.7-0.2-4.5,1-5,3.7c-0.4,2-0.6,4.1-0.6,6.1c-0.1,12,0,23.9,0,35.9c0,1.3,0,2.6,0,4.2c-7.3,0-14.4,0-21.7,0c0-1.1-0.1-2-0.1-2.9
		c0-13,0-26.1,0-39.1c0-11.7,5.9-20.7,15.8-24.4c11-4.2,24.9-1.2,32.1,6.8C461.4,126.2,460.6,136,451.7,143.7z"/>
	<path class="st0" d="M511.4,89.4c0-6.5-0.1-12.6,0.1-18.8c0-0.8,1.5-1.9,2.5-2.4c7.6-3.4,10.6-12,6.6-19.4c-2.3-4.2-6-6-11-6.5
		c0,15.7,0,31.2,0,46.9c-7.2,0-14.1,0-21.2,0c0-22.2,0-44.4,0-67.1c10.4,0.5,20.9-1.2,31.2,1.6c15.6,4.2,25.7,19.5,24.2,36.2
		c-1.3,15-14,27.7-29.3,29.4C513.6,89.5,512.7,89.4,511.4,89.4z"/>
	<path class="st0" d="M188.8,22.4c7.4,0,14.2,0,21,0c0.2,0.5,0.4,0.9,0.4,1.2c-0.2,14.2,0.1,28.5-0.6,42.7
		c-0.7,14.1-11,23.8-25.2,24.3c-13.6,0.5-23.9-7.3-26.7-21.4c-0.5-2.3-0.7-4.8-0.7-7.2c-0.1-13.1,0-26.3,0-39.6c6.9,0,13.7,0,21,0
		c0,1.2,0,2.4,0,3.7c0,11.8,0,23.7,0,35.5c0,1.4,0.2,2.9,0.5,4.3c0.6,2.7,2.4,4.1,5.2,4.1c3,0,4.5-2,5.2-4.7
		c0.3-1.2,0.1-2.4,0.1-3.6c0-11.7,0-23.4,0-35.1C188.8,25.3,188.8,24,188.8,22.4z"/>
	<path class="st0" d="M344.3,111.3c0,5.9,0,12,0,18.7c-5.4,0-10.6-0.1-15.9,0.1c-1.4,0-2.8,0.8-4.2,1.2c0.8,1.2,1.4,2.7,2.5,3.6
		c3.9,3.2,7.9,6.3,12,9.3c6.8,4.9,9.5,11.6,7.6,19.6c-2,8.1-8.3,12.1-16,13.2c-7.1,1-14.4,0.7-21.6,0.9c-3.1,0.1-6.2,0-9.5,0
		c0-6.6,0-12.9,0-19.7c5.3,0,10.5,0,15.6,0c1,0,2,0.2,2.9-0.1c1.3-0.4,3.2-1.1,3.4-1.9c0.2-1-0.8-2.7-1.8-3.6
		c-3.8-3.2-7.8-6.1-11.7-9.1c-7-5.4-9.9-12.4-7.7-19.9c2.3-7.8,8.5-11.6,15.9-12.2C325.1,110.8,334.5,111.3,344.3,111.3z"/>
	<path class="st0" d="M103.5,89.9c0-7.2,0-13.4,0-20.1c5.6,0,11,0.1,16.4-0.1c1.6-0.1,3.3-1,4.9-1.5c-0.9-1.6-1.4-3.5-2.7-4.6
		c-3.5-3.1-7.3-5.9-11-8.8c-6.4-5.1-8.9-11.7-6.8-19.6c2-7.5,8-11.4,15.2-12.1c9.1-0.8,18.3-0.2,27.7-0.2c0,5.6,0,11.8,0,18.6
		c-4.9,0-10-0.1-15,0.1c-1.4,0-2.8,0.7-4.2,1.1c0.9,1.3,1.5,3,2.6,3.9c3.7,3.1,7.5,6.1,11.3,9c6.7,5,9.3,11.7,7.4,19.7
		c-1.9,8-8,12.3-15.6,13.1C123.7,89.7,113.7,89.5,103.5,89.9z"/>
	<path class="st0" d="M404.3,69.8c5.5,0,11,0.1,16.4-0.1c1.6-0.1,3.3-1,4.9-1.5c-0.9-1.6-1.5-3.5-2.7-4.6c-3.4-3-7.1-5.8-10.7-8.6
		c-6.6-5.1-9.2-11.8-7.1-19.8c2-7.7,8.1-11.5,15.5-12.1c9-0.7,18-0.2,27.4-0.2c0,5.6,0,11.8,0,18.7c-4,0-8.2,0-12.3,0
		c-1.3,0-2.7-0.1-4,0.1c-1,0.1-1.9,0.7-2.9,1c0.5,1,0.7,2.4,1.5,3c4.2,3.5,8.5,6.8,12.7,10.2c4.6,3.7,7.7,8.2,7.7,14.4
		c0.1,7.4-3,12.9-9.6,16.1c-3.4,1.6-7.3,2.8-11,3c-8.4,0.4-16.9,0.1-25.6,0.1C404.3,83.1,404.3,76.8,404.3,69.8z"/>
	<path class="st0" d="M542.1,110.1c0,6.9,0,12.8,0,19c-7.5,0.7-15.8-0.9-22.1,6.7c7.8,0,14.7,0,21.9,0c0,5.6,0,11,0,16.6
		c-7,0-14,0-20.9,0c-0.1,0.4-0.2,0.8-0.3,1.2c5.4,6.7,13.5,5.4,21.2,5.7c0,6.2,0,12.2,0,18.6c-14.6,0.3-28.6-1.1-38.7-13.5
		c-15.6-19.1-4.7-47.4,20.2-52.2C529.5,111,535.6,110.8,542.1,110.1z"/>
	<path class="st0" d="M376.1,152.4c6.3,7.9,14.4,6.5,22,6.9c0,6.2,0,12.2,0,18.6c-14.6,0.3-28.4-1.1-38.6-13.5
		c-15.6-18.9-4.7-47.3,20.2-52.2c5.9-1.2,12.1-1.4,18.4-2.1c0,6.8,0,12.8,0,19c-7.5,0.7-15.7-0.9-21.9,6.8c7.7,0,14.7,0,21.9,0
		c0,5.7,0,11,0,16.5C391.1,152.4,384.1,152.4,376.1,152.4z"/>
	<path class="st0" d="M376.7,22.3c7,0,13.7,0,20.5,0c0.1,0.8,0.4,1.6,0.4,2.4c0,7.4,0,14.7-0.3,22.1c-0.3,7.9-4,14.1-11,17.9
		c-2,1.1-2.7,2.3-2.6,4.5c0.1,6.6,0,13.2,0,20.1c-7,0-13.8,0-21.1,0c0-6.5-0.1-13,0.1-19.5c0.1-2.5-0.5-4-3-5.4
		c-6.9-3.9-10.6-10-10.8-18c-0.2-7.9,0-15.9,0-24c6.9,0,13.6,0,20.9,0c0,4.5,0,9,0,13.5c0,2.8,0,5.5,0,8.3c0,2.3,1.1,3.9,3.4,3.9
		c2.3,0,3.3-1.7,3.3-3.9c0-6.6,0-13.3,0-19.9C376.5,23.8,376.6,23.2,376.7,22.3z"/>
	<path class="st0" d="M593,22.5c0,6.1,0,12,0,18.2c-7.2,0.8-15.3-0.9-21,6.7c7.2,0,13.9,0,20.9,0c0,5.6,0,11,0,16.6
		c-6.8,0-13.5,0-21,0c5.6,8,13.6,6.4,21.1,6.9c0,6.1,0,12.1,0,18c-16.7,2.2-33.9-3.5-41.2-19.4c-6.8-14.7-2-31.6,11.6-40.9
		C570,24,582.4,21.4,593,22.5z"/>
	<path class="st0" d="M488.7,177.8c-7.3,0-14.2,0-21.4,0c0-22.3,0-44.4,0-66.9c7,0,14,0,21.4,0C488.7,133,488.7,155.2,488.7,177.8z"
		/>
	<path class="st0" d="M458.1,89.2c0-22.2,0-44.5,0-66.9c7.1,0,13.9,0,20.9,0c0,22.3,0,44.4,0,66.9C472.2,89.2,465.3,89.2,458.1,89.2
		z"/>
</g>
</svg>
